<svg width="131" height="40" viewBox="0 0 131 40" fill="none" xmlns="http://www.w3.org/2000/svg">
<g clip-path="url(#clip0_336_8897)">
<rect x="0.400391" y="0.5" width="130.12" height="39" rx="3.75" fill="#141316"/>
<path d="M30.7139 20.7632C30.7258 19.8433 30.9701 18.9414 31.4242 18.1413C31.8783 17.3412 32.5274 16.6689 33.3111 16.1871C32.8133 15.4761 32.1565 14.8909 31.3929 14.4781C30.6293 14.0653 29.78 13.8362 28.9123 13.8091C27.0616 13.6148 25.2674 14.9165 24.3243 14.9165C23.3629 14.9165 21.9109 13.8284 20.3472 13.8605C19.3358 13.8932 18.3501 14.1873 17.4862 14.7142C16.6223 15.2411 15.9095 15.9828 15.4175 16.867C13.2859 20.5574 14.8759 25.981 16.9177 28.9641C17.9393 30.4248 19.1332 32.0565 20.6954 31.9986C22.2241 31.9352 22.7951 31.0238 24.6404 31.0238C26.4686 31.0238 27.0042 31.9986 28.5981 31.9618C30.2385 31.9352 31.2721 30.4946 32.2578 29.0201C32.9918 27.9792 33.5566 26.8289 33.9313 25.6117C32.9783 25.2086 32.165 24.5339 31.5928 23.6717C31.0207 22.8095 30.715 21.798 30.7139 20.7632Z" fill="white"/>
<path d="M27.7031 11.8471C28.5976 10.7734 29.0382 9.39335 28.9315 8C27.565 8.14352 26.3028 8.7966 25.3963 9.82911C24.9531 10.3335 24.6136 10.9203 24.3974 11.556C24.1811 12.1917 24.0922 12.8638 24.1358 13.5338C24.8193 13.5408 25.4954 13.3927 26.1134 13.1005C26.7313 12.8084 27.2749 12.3798 27.7031 11.8471Z" fill="white"/>
<path d="M50.6509 25.9156H46.0105L44.8961 29.1308H42.9307L47.3259 17.2354H49.368L53.7633 29.1308H51.7643L50.6509 25.9156ZM46.4911 24.432H50.1693L48.3561 19.2139H48.3054L46.4911 24.432Z" fill="white"/>
<path d="M63.2552 24.7949C63.2552 27.49 61.779 29.2216 59.5512 29.2216C58.9868 29.2504 58.4256 29.1234 57.9317 28.855C57.4378 28.5867 57.0313 28.1879 56.7586 27.7042H56.7164V31.9999H54.8945V20.4581H56.658V21.9006H56.6915C56.9768 21.4192 57.3902 21.0225 57.8879 20.7525C58.3855 20.4825 58.9488 20.3494 59.5177 20.3673C61.7703 20.3673 63.2552 22.1073 63.2552 24.7949ZM61.3826 24.7949C61.3826 23.039 60.454 21.8847 59.0371 21.8847C57.6451 21.8847 56.7088 23.0634 56.7088 24.7949C56.7088 26.5424 57.6451 27.7127 59.0371 27.7127C60.454 27.7127 61.3826 26.5667 61.3826 24.7949Z" fill="white"/>
<path d="M73.0248 24.7952C73.0248 27.4903 71.5485 29.2218 69.3207 29.2218C68.7564 29.2506 68.1951 29.1236 67.7012 28.8553C67.2074 28.5869 66.8008 28.1881 66.5281 27.7045H66.4859V32.0001H64.6641V20.4583H66.4275V21.9008H66.461C66.7463 21.4195 67.1597 21.0227 67.6574 20.7527C68.155 20.4827 68.7183 20.3496 69.2872 20.3676C71.5399 20.3676 73.0248 22.1075 73.0248 24.7952ZM71.1522 24.7952C71.1522 23.0393 70.2235 21.8849 68.8066 21.8849C67.4146 21.8849 66.4783 23.0636 66.4783 24.7952C66.4783 26.5426 67.4146 27.7129 68.8066 27.7129C70.2235 27.7129 71.1522 26.5669 71.1522 24.7952H71.1522Z" fill="white"/>
<path d="M79.4812 25.8166C79.6162 26.9962 80.789 27.7707 82.3916 27.7707C83.9272 27.7707 85.032 26.9962 85.032 25.9325C85.032 25.0092 84.3657 24.4564 82.7879 24.0775L81.2102 23.7061C78.9748 23.1785 77.937 22.1569 77.937 20.4993C77.937 18.4469 79.7674 17.0371 82.3667 17.0371C84.9391 17.0371 86.7026 18.4469 86.762 20.4993H84.9228C84.8127 19.3122 83.8085 18.5956 82.3408 18.5956C80.8732 18.5956 79.8689 19.3206 79.8689 20.3758C79.8689 21.2168 80.5103 21.7117 82.0795 22.0905L83.4207 22.4123C85.9185 22.9895 86.9563 23.9699 86.9563 25.7098C86.9563 27.9353 85.1421 29.3292 82.2566 29.3292C79.5568 29.3292 77.734 27.9681 77.6162 25.8165L79.4812 25.8166Z" fill="white"/>
<path d="M90.8876 18.4058V20.4582H92.5754V21.8679H90.8876V26.6491C90.8876 27.3919 91.2256 27.738 91.9675 27.738C92.1679 27.7346 92.3679 27.7209 92.5668 27.6968V29.0982C92.2332 29.1591 91.8942 29.1867 91.5549 29.1805C89.7579 29.1805 89.0571 28.521 89.0571 26.839V21.8679H87.7666V20.4582H89.0571V18.4058H90.8876Z" fill="white"/>
<path d="M93.5537 24.7951C93.5537 22.0663 95.1985 20.3516 97.7632 20.3516C100.337 20.3516 101.974 22.0662 101.974 24.7951C101.974 27.5313 100.345 29.2385 97.7632 29.2385C95.1821 29.2385 93.5537 27.5313 93.5537 24.7951ZM100.117 24.7951C100.117 22.9232 99.2395 21.8184 97.7632 21.8184C96.287 21.8184 95.41 22.9316 95.41 24.7951C95.41 26.6744 96.287 27.7708 97.7632 27.7708C99.2395 27.7708 100.117 26.6744 100.117 24.7951H100.117Z" fill="white"/>
<path d="M103.476 20.4582H105.213V21.9344H105.255C105.373 21.4734 105.649 21.0659 106.038 20.7806C106.427 20.4952 106.904 20.3493 107.39 20.3675C107.6 20.3668 107.81 20.389 108.014 20.4339V22.099C107.749 22.0199 107.473 21.9836 107.196 21.9915C106.931 21.981 106.667 22.0266 106.422 22.1251C106.178 22.2237 105.957 22.3729 105.777 22.5624C105.597 22.752 105.46 22.9774 105.378 23.2233C105.295 23.4692 105.267 23.7296 105.297 23.9868V29.131H103.476L103.476 20.4582Z" fill="white"/>
<path d="M116.415 26.5837C116.17 28.1581 114.6 29.2385 112.593 29.2385C110.011 29.2385 108.408 27.5481 108.408 24.8362C108.408 22.1159 110.019 20.3516 112.516 20.3516C114.972 20.3516 116.516 21.9999 116.516 24.6295V25.2394H110.247V25.347C110.218 25.6662 110.259 25.9877 110.367 26.2903C110.475 26.5928 110.648 26.8694 110.874 27.1018C111.1 27.3341 111.373 27.5169 111.677 27.6378C111.981 27.7588 112.307 27.8153 112.635 27.8035C113.066 27.8429 113.498 27.7455 113.867 27.5257C114.236 27.3059 114.523 26.9755 114.685 26.5837L116.415 26.5837ZM110.256 23.9952H114.693C114.71 23.7082 114.665 23.421 114.563 23.1517C114.46 22.8823 114.301 22.6365 114.097 22.4299C113.893 22.2232 113.647 22.06 113.375 21.9506C113.103 21.8412 112.81 21.7879 112.516 21.7941C112.22 21.7923 111.925 21.848 111.651 21.9579C111.376 22.0679 111.127 22.2298 110.917 22.4345C110.707 22.6391 110.54 22.8824 110.427 23.1503C110.313 23.4182 110.255 23.7053 110.256 23.9952V23.9952Z" fill="white"/>
<path d="M46.2623 8.28163C46.6443 8.25485 47.0275 8.31123 47.3845 8.44671C47.7415 8.5822 48.0632 8.7934 48.3265 9.06509C48.5898 9.33678 48.7881 9.66219 48.9071 10.0178C49.0261 10.3735 49.0629 10.7505 49.0147 11.1217C49.0147 12.9478 48.0047 13.9974 46.2623 13.9974H44.1494V8.28163H46.2623ZM45.0579 13.1891H46.1608C46.4338 13.205 46.7069 13.1613 46.9604 13.0611C47.2138 12.9609 47.4412 12.8067 47.626 12.6098C47.8108 12.4129 47.9483 12.1782 48.0286 11.9228C48.1088 11.6674 48.1298 11.3977 48.0899 11.1334C48.1269 10.8701 48.1038 10.6021 48.0223 10.3486C47.9408 10.095 47.803 9.86227 47.6186 9.66692C47.4342 9.47157 47.2079 9.31848 46.9559 9.21863C46.7039 9.11878 46.4324 9.07464 46.1608 9.08936H45.0579V13.1891Z" fill="white"/>
<path d="M50.0411 11.8389C50.0133 11.5554 50.0465 11.2694 50.1385 10.9992C50.2305 10.729 50.3793 10.4806 50.5753 10.2699C50.7713 10.0591 51.0102 9.89078 51.2768 9.77556C51.5433 9.66035 51.8315 9.60083 52.1229 9.60083C52.4143 9.60083 52.7025 9.66035 52.969 9.77556C53.2355 9.89078 53.4745 10.0591 53.6705 10.2699C53.8665 10.4806 54.0153 10.729 54.1073 10.9992C54.1992 11.2694 54.2324 11.5554 54.2047 11.8389C54.233 12.1227 54.2002 12.4091 54.1084 12.6797C54.0167 12.9503 53.868 13.1992 53.6719 13.4104C53.4759 13.6215 53.2368 13.7902 52.97 13.9057C52.7032 14.0212 52.4147 14.0808 52.1229 14.0808C51.8311 14.0808 51.5426 14.0212 51.2758 13.9057C51.009 13.7902 50.7699 13.6215 50.5739 13.4104C50.3778 13.1992 50.2291 12.9503 50.1374 12.6797C50.0456 12.4091 50.0128 12.1227 50.0411 11.8389ZM53.3086 11.8389C53.3086 10.9039 52.8787 10.3571 52.1243 10.3571C51.367 10.3571 50.9411 10.9039 50.9411 11.8389C50.9411 12.7814 51.3671 13.324 52.1243 13.324C52.8787 13.324 53.3086 12.7776 53.3086 11.8389H53.3086Z" fill="white"/>
<path d="M59.7395 13.9973H58.8358L57.9234 10.8204H57.8545L56.9459 13.9973H56.0508L54.834 9.68384H55.7176L56.5084 12.9753H56.5735L57.4811 9.68384H58.3169L59.2245 12.9753H59.2934L60.0803 9.68384H60.9515L59.7395 13.9973Z" fill="white"/>
<path d="M61.9746 9.68394H62.8133V10.3692H62.8784C62.9888 10.1231 63.1751 9.91676 63.4112 9.779C63.6473 9.64125 63.9216 9.57891 64.1957 9.60068C64.4105 9.5849 64.6262 9.61655 64.8267 9.69327C65.0273 9.77 65.2077 9.88984 65.3544 10.0439C65.5011 10.198 65.6105 10.3824 65.6744 10.5833C65.7384 10.7843 65.7552 10.9968 65.7237 11.205V13.9974H64.8525V11.4188C64.8525 10.7256 64.5442 10.3809 63.8999 10.3809C63.754 10.3742 63.6085 10.3985 63.4731 10.452C63.3378 10.5055 63.2159 10.5869 63.1158 10.6907C63.0156 10.7945 62.9397 10.9183 62.8931 11.0535C62.8465 11.1887 62.8304 11.3321 62.8458 11.474V13.9974H61.9746L61.9746 9.68394Z" fill="white"/>
<path d="M67.1113 8H67.9825V13.9973H67.1113V8Z" fill="white"/>
<path d="M69.1944 11.8387C69.1667 11.5553 69.1999 11.2692 69.2919 10.999C69.3839 10.7288 69.5327 10.4804 69.7287 10.2696C69.9248 10.0589 70.1637 9.89054 70.4302 9.77532C70.6968 9.6601 70.985 9.60059 71.2764 9.60059C71.5679 9.60059 71.8561 9.6601 72.1226 9.77532C72.3891 9.89054 72.6281 10.0589 72.8241 10.2696C73.0201 10.4804 73.1689 10.7288 73.261 10.999C73.353 11.2692 73.3862 11.5553 73.3585 11.8387C73.3867 12.1225 73.3539 12.4089 73.2621 12.6795C73.1703 12.9502 73.0216 13.1991 72.8255 13.4102C72.6294 13.6213 72.3903 13.79 72.1235 13.9055C71.8568 14.021 71.5682 14.0806 71.2764 14.0806C70.9846 14.0806 70.6961 14.021 70.4293 13.9055C70.1625 13.79 69.9234 13.6213 69.7273 13.4102C69.5312 13.1991 69.3825 12.9502 69.2908 12.6795C69.199 12.4089 69.1662 12.1225 69.1944 11.8387ZM72.4619 11.8387C72.4619 10.9037 72.032 10.357 71.2776 10.357C70.5203 10.357 70.0944 10.9037 70.0944 11.8387C70.0944 12.7812 70.5204 13.3238 71.2776 13.3238C72.032 13.3238 72.4619 12.7775 72.4619 11.8387H72.4619Z" fill="white"/>
<path d="M74.2754 12.7774C74.2754 12.001 74.867 11.5534 75.9173 11.4898L77.113 11.4224V11.0501C77.113 10.5945 76.8047 10.3373 76.2093 10.3373C75.7229 10.3373 75.3859 10.5117 75.2892 10.8167H74.4458C74.5348 10.0758 75.2481 9.60059 76.2495 9.60059C77.3562 9.60059 77.9804 10.1389 77.9804 11.0501V13.9973H77.1417V13.3911H77.0728C76.9329 13.6086 76.7364 13.7858 76.5035 13.9048C76.2705 14.0238 76.0094 14.0802 75.7469 14.0684C75.5615 14.0872 75.3742 14.0679 75.197 14.0117C75.0198 13.9554 74.8566 13.8635 74.718 13.7419C74.5794 13.6203 74.4684 13.4716 74.3921 13.3055C74.3159 13.1394 74.2761 12.9595 74.2754 12.7774ZM77.113 12.4089V12.0482L76.035 12.1156C75.4271 12.1553 75.1514 12.3574 75.1514 12.7377C75.1514 13.1259 75.496 13.3518 75.97 13.3518C76.1088 13.3655 76.2491 13.3518 76.3824 13.3115C76.5157 13.2712 76.6394 13.2051 76.7461 13.1171C76.8527 13.0291 76.9402 12.9211 77.0032 12.7994C77.0662 12.6778 77.1036 12.5449 77.113 12.4089Z" fill="white"/>
<path d="M79.126 11.8387C79.126 10.4757 79.843 9.6123 80.9584 9.6123C81.2343 9.59988 81.5081 9.66444 81.7478 9.79845C81.9875 9.93246 82.1832 10.1304 82.3121 10.3691H82.3772V8H83.2484V13.9973H82.4136V13.3158H82.3446C82.2058 13.5529 82.0033 13.7483 81.7589 13.881C81.5146 14.0136 81.2377 14.0785 80.9584 14.0684C79.8354 14.0684 79.126 13.205 79.126 11.8387ZM80.0259 11.8387C80.0259 12.7536 80.4673 13.3041 81.2054 13.3041C81.9397 13.3041 82.3935 12.7457 82.3935 11.8425C82.3935 10.9435 81.9349 10.377 81.2054 10.377C80.472 10.377 80.0259 10.9313 80.0259 11.8387H80.0259Z" fill="white"/>
<path d="M86.8526 11.8389C86.8249 11.5554 86.8581 11.2694 86.95 10.9992C87.042 10.729 87.1908 10.4806 87.3868 10.2699C87.5828 10.0591 87.8218 9.89078 88.0883 9.77556C88.3548 9.66035 88.643 9.60083 88.9344 9.60083C89.2258 9.60083 89.514 9.66035 89.7806 9.77556C90.0471 9.89078 90.286 10.0591 90.482 10.2699C90.678 10.4806 90.8268 10.729 90.9188 10.9992C91.0108 11.2694 91.044 11.5554 91.0162 11.8389C91.0445 12.1227 91.0117 12.4091 90.9199 12.6797C90.8282 12.9503 90.6795 13.1992 90.4834 13.4104C90.2874 13.6215 90.0483 13.7902 89.7815 13.9057C89.5147 14.0212 89.2262 14.0808 88.9344 14.0808C88.6426 14.0808 88.3541 14.0212 88.0873 13.9057C87.8205 13.7902 87.5814 13.6215 87.3854 13.4104C87.1893 13.1992 87.0406 12.9503 86.9489 12.6797C86.8571 12.4091 86.8243 12.1227 86.8526 11.8389ZM90.1201 11.8389C90.1201 10.9039 89.6902 10.3571 88.9358 10.3571C88.1786 10.3571 87.7526 10.9039 87.7526 11.8389C87.7526 12.7814 88.1786 13.324 88.9358 13.324C89.6903 13.324 90.1201 12.7776 90.1201 11.8389Z" fill="white"/>
<path d="M92.1846 9.68394H93.0232V10.3692H93.0883C93.1988 10.1231 93.385 9.91676 93.6212 9.779C93.8573 9.64125 94.1316 9.57891 94.4057 9.60068C94.6205 9.5849 94.8361 9.61655 95.0367 9.69327C95.2373 9.77 95.4176 9.88984 95.5644 10.0439C95.7111 10.198 95.8205 10.3824 95.8844 10.5833C95.9483 10.7843 95.9651 10.9968 95.9336 11.205V13.9974H95.0624V11.4188C95.0624 10.7256 94.7542 10.3809 94.1098 10.3809C93.964 10.3742 93.8184 10.3985 93.6831 10.452C93.5477 10.5055 93.4258 10.5869 93.3257 10.6907C93.2256 10.7945 93.1496 10.9183 93.103 11.0535C93.0564 11.1887 93.0403 11.3321 93.0558 11.474V13.9974H92.1846V9.68394Z" fill="white"/>
<path d="M100.856 8.60986V9.70343H101.813V10.4205H100.856V12.6385C100.856 13.0903 101.047 13.2882 101.48 13.2882C101.591 13.2878 101.702 13.2813 101.813 13.2685V13.9776C101.656 14.0049 101.498 14.0195 101.339 14.0211C100.37 14.0211 99.984 13.6881 99.984 12.8564V10.4204H99.2832V9.70339H99.984V8.60986H100.856Z" fill="white"/>
<path d="M103.003 8H103.866V10.377H103.935C104.051 10.1286 104.243 9.92115 104.483 9.78288C104.724 9.6446 105.003 9.58226 105.281 9.60434C105.495 9.59298 105.709 9.62783 105.907 9.70642C106.105 9.78501 106.283 9.9054 106.429 10.059C106.574 10.2126 106.683 10.3956 106.747 10.595C106.812 10.7943 106.83 11.0052 106.802 11.2124V13.9973H105.93V11.4224C105.93 10.7334 105.601 10.3845 104.986 10.3845C104.836 10.3725 104.685 10.3926 104.544 10.4434C104.403 10.4943 104.276 10.5746 104.17 10.6787C104.064 10.7829 103.982 10.9084 103.931 11.0465C103.88 11.1845 103.861 11.3318 103.874 11.4781V13.9973H103.003L103.003 8Z" fill="white"/>
<path d="M111.881 12.8327C111.763 13.2269 111.506 13.5679 111.156 13.7961C110.807 14.0242 110.386 14.1249 109.968 14.0806C109.677 14.0881 109.388 14.0337 109.121 13.9211C108.854 13.8085 108.615 13.6405 108.421 13.4287C108.227 13.2168 108.083 12.9663 107.998 12.6944C107.913 12.4225 107.889 12.1358 107.929 11.8542C107.89 11.5717 107.914 11.2844 107.999 11.0117C108.084 10.739 108.227 10.4873 108.42 10.2736C108.613 10.0599 108.851 9.88927 109.118 9.77317C109.384 9.65706 109.673 9.59823 109.964 9.60066C111.193 9.60066 111.934 10.4206 111.934 11.7751V12.0722H108.816V12.1199C108.803 12.2782 108.823 12.4375 108.876 12.5877C108.929 12.7378 109.014 12.8755 109.125 12.9918C109.235 13.1082 109.37 13.2006 109.519 13.2633C109.668 13.3259 109.83 13.3574 109.992 13.3556C110.2 13.3801 110.412 13.3434 110.599 13.2503C110.786 13.1572 110.94 13.0118 111.042 12.8327L111.881 12.8327ZM108.816 11.4426H111.046C111.057 11.2978 111.037 11.1524 110.987 11.0157C110.937 10.879 110.858 10.754 110.756 10.6488C110.654 10.5435 110.53 10.4604 110.393 10.4047C110.256 10.3489 110.108 10.3219 109.96 10.3252C109.809 10.3233 109.659 10.351 109.52 10.4065C109.38 10.462 109.253 10.5442 109.147 10.6484C109.04 10.7525 108.956 10.8764 108.899 11.0128C108.843 11.1492 108.814 11.2954 108.816 11.4426H108.816Z" fill="white"/>
</g>
<defs>
<clipPath id="clip0_336_8897">
<rect width="130.12" height="39" fill="white" transform="translate(0.400391 0.5)"/>
</clipPath>
</defs>
</svg>
