<svg width="1440" height="917" viewBox="0 0 1440 917" fill="none" xmlns="http://www.w3.org/2000/svg">
<path opacity="0.06" d="M562.38 -103.09C562.063 -99.2026 562.38 -95.3097 562.489 -91.4168C562.685 -81.6615 562.719 -71.889 562.357 -62.1337C557.264 119.917 445.822 289.097 282.084 369.184C174.958 422.515 48.2894 436.094 -67.9983 407.018C-340.318 340.16 -510.138 63.3778 -452.923 -210.369C-393.464 -502.314 -101.258 -688.562 187.571 -611.591C351.371 -569.397 489.307 -438.801 539.541 -277.953C557.609 -221.789 565.355 -161.777 562.38 -103.084V-103.09ZM481.291 -103.09C477.188 -173.058 453.452 -241.645 412.654 -298.604C339.103 -402.682 212.792 -461.795 86.5897 -449.443C-142.13 -429.391 -293.876 -195.189 -210.83 20.1528C-123.452 246.793 164.704 318.109 350.261 160.787C417.718 104.403 463.689 22.5542 477.366 -64.512C478.304 -70.8466 479.311 -77.3539 479.967 -83.7058C480.474 -89.4645 481.561 -97.3828 481.291 -103.084V-103.09Z" fill="url(#paint0_linear_2002_9706)" stroke="white" stroke-width="38"/>
<path opacity="0.04" d="M1516.58 562.487C1515.01 562.773 1513.51 563.308 1511.99 563.762C1508.17 564.868 1504.33 565.913 1500.45 566.8C1428.22 584.003 1349.85 557.97 1301.04 501.946C1268.73 465.39 1250.02 416.944 1249.2 368.086C1246.79 253.801 1337.87 157.729 1451.69 151.375C1572.93 143.985 1677.1 239.395 1677.26 361.248C1677.93 430.199 1641.06 498.293 1583.02 535.044C1562.81 548.085 1540 557.467 1516.57 562.488L1516.58 562.487ZM1508.02 530.557C1535.14 521.559 1559.64 504.976 1577.77 482.902C1610.99 442.958 1620.94 386.984 1602.76 338.593C1570.73 250.646 1462.5 215.604 1386.47 271.026C1306.44 329.345 1308.76 450.336 1390.29 506.803C1419.61 527.417 1456.69 536.883 1492.42 533.082C1495.01 532.783 1497.68 532.493 1500.25 532.081C1502.57 531.673 1505.8 531.266 1508.02 530.558L1508.02 530.557Z" fill="url(#paint1_linear_2002_9706)" stroke="white" stroke-width="25"/>
<path opacity="0.05" d="M183.78 900.367C184.202 900.216 184.643 900.136 185.077 900.032C186.165 899.764 187.249 899.478 188.319 899.148C208.348 893.176 223.791 875.798 227.805 855.27C230.535 841.811 228.278 827.367 221.601 815.34C206.102 787.141 170.377 776.537 141.733 791.01C111.138 806.272 99.1716 844.194 116.282 873.923C125.824 890.827 144.397 902.238 163.719 903.029C170.481 903.363 177.363 902.44 183.78 900.367ZM181.372 891.378C173.494 893.002 165.187 892.408 157.661 889.577C143.94 884.515 133.636 872.27 131.257 857.914C126.686 831.966 148.139 808.189 174.476 810.998C202.194 813.953 218.657 843.775 206.73 869.017C202.483 878.169 194.776 885.695 185.531 889.797C184.857 890.09 184.166 890.394 183.481 890.656C182.858 890.883 182.012 891.239 181.372 891.378Z" fill="url(#paint2_linear_2002_9706)" stroke="white" stroke-width="6"/>
<defs>
<linearGradient id="paint0_linear_2002_9706" x1="-464" y1="-629" x2="563" y2="-629" gradientUnits="userSpaceOnUse">
<stop stop-color="#006838"/>
<stop offset="1" stop-color="#96CF24"/>
</linearGradient>
<linearGradient id="paint1_linear_2002_9706" x1="1615.37" y1="102.844" x2="1723.73" y2="507.243" gradientUnits="userSpaceOnUse">
<stop stop-color="#006838"/>
<stop offset="1" stop-color="#96CF24"/>
</linearGradient>
<linearGradient id="paint2_linear_2002_9706" x1="95" y1="802.216" x2="125.503" y2="916.056" gradientUnits="userSpaceOnUse">
<stop stop-color="#006838"/>
<stop offset="1" stop-color="#96CF24"/>
</linearGradient>
</defs>
</svg>
