<svg width="100%" height="100%" viewBox="0 0 72 68" fill="none" xmlns="http://www.w3.org/2000/svg">
<path d="M37.5719 10.9501C36.9622 10.5892 36.3493 10.2517 35.7395 9.93745C35.5388 10.065 35.3397 10.1957 35.139 10.3279C35.8686 10.6608 36.595 11.0372 37.3075 11.4588C44.2841 15.5826 47.5944 20.8295 46.1493 25.1197C46.1477 25.1274 46.1399 25.1337 46.1353 25.1414C45.6577 26.4403 44.8379 28.0021 43.6775 29.5872C43.4348 29.9201 43.175 30.253 42.9028 30.5859C41.4313 32.3748 39.5257 34.1279 37.1862 35.4968C36.0413 36.1672 34.8637 36.7054 33.6924 37.127C34.0206 37.2281 34.3519 37.3277 34.6864 37.4226C35.6119 36.9854 36.5453 36.4939 37.4786 35.9479C41.0004 33.8852 43.8875 31.4166 45.7977 29.0148C46.2317 28.4688 46.6159 27.9274 46.9441 27.3939C47.361 26.7188 47.6908 26.0561 47.9257 25.4214C47.9304 25.4137 47.9381 25.4059 47.9413 25.3966C49.5326 20.6708 45.2564 15.4908 37.575 10.9501H37.5719Z" fill="#0069AA"/>
<path d="M24.9917 6.86512C24.2389 6.87134 23.5435 6.94601 22.9229 7.09223C22.1902 7.29912 21.1666 7.66156 20.364 8.59023C17.9513 11.1958 16.2729 16.858 16.2589 23.4302C16.2464 29.9729 17.8875 35.6211 20.2722 38.2531C21.0624 38.9857 21.4653 39.3917 23.1873 39.8242C25.3153 40.2224 28.2024 39.8553 31.3695 38.7742C30.6384 38.6062 29.9197 38.4273 29.2182 38.2375C27.0637 38.5408 25.1208 38.4911 23.6757 38.2204C22.1109 37.8268 21.7469 37.4582 21.0282 36.7924C18.8644 34.4031 16.6509 29.2526 16.6617 23.3104C16.6742 17.3433 18.922 12.2224 21.1106 9.85645C21.8402 9.01334 22.7689 8.68356 23.4346 8.49534C23.7551 8.41912 24.1051 8.35845 24.4769 8.31489C24.7662 8.28067 25.0695 8.25578 25.3868 8.24178C27.4013 8.15001 29.9353 8.47356 32.5626 9.32445C32.782 9.13311 33.0013 8.94489 33.2206 8.76134C30.6244 7.68023 28.1464 7.04867 26.0371 6.89778C25.6777 6.8729 25.3277 6.86045 24.9902 6.86201L24.9917 6.86512Z" fill="#0069AA"/>
<path d="M29.5215 31.737C27.9831 31.2485 27.6424 30.8581 26.9657 30.1487C26.1117 29.0832 25.2795 27.5245 24.6308 25.6314C24.4566 25.1227 24.2964 24.5908 24.1517 24.0385C23.5606 21.7799 23.2433 19.1696 23.4128 16.421C23.5808 13.7143 24.1984 11.2114 25.0415 9.07566C24.7662 9.09277 24.4971 9.11455 24.2311 9.14099C23.6026 11.3374 23.1702 13.8403 23.0053 16.5143C22.7953 19.9256 23.0488 23.1192 23.6571 25.7885C23.8593 26.6799 24.102 27.5121 24.3788 28.2743C24.8611 29.6012 25.4506 30.7165 26.1242 31.5581C26.8693 32.339 27.2457 32.7699 28.9413 33.3081C32.0322 34.0874 36.8653 33.3143 41.899 31.0556C42.1526 30.7414 42.3984 30.4287 42.6364 30.1145C37.7286 32.4183 32.5066 32.4899 29.5231 31.737H29.5215Z" fill="#0069AA"/>
<path d="M45.0237 5.37655C39.6524 1.73966 34.0991 0.0192195 30.6317 0.616552C29.8866 0.77833 28.8444 1.077 27.9873 1.95433C26.9762 2.92188 26.0491 4.37322 25.2744 6.17766C25.6493 6.18388 26.032 6.19788 26.4193 6.2181C27.1349 4.98921 27.908 3.98433 28.6577 3.26722C29.4371 2.47077 30.3829 2.20011 31.0595 2.05388C34.2064 1.511 39.8515 2.56566 44.7282 5.8681C51.3051 10.3217 54.3089 15.6323 52.8373 19.7888C52.8062 19.8774 52.7735 19.9645 52.7393 20.0516C52.7362 20.061 52.7284 20.0656 52.7237 20.0734C52.66 20.2196 52.5915 20.3674 52.5184 20.5183C51.6893 22.2372 50.2551 24.3216 48.2515 26.2365C47.7864 26.9723 47.2575 27.719 46.6711 28.4687C49.5566 26.6083 51.8589 24.5068 53.3117 22.4861C53.4782 22.2559 53.6322 22.0256 53.7753 21.7985C54.06 21.3459 54.2995 20.8994 54.4909 20.4623C54.4971 20.4545 54.5049 20.4483 54.508 20.439C56.3777 15.8205 52.4204 10.3854 45.0237 5.37655Z" fill="#0069AA"/>
<path d="M54.0396 22.4347C53.8825 22.6789 53.7145 22.9231 53.5418 23.1673C55.0849 27.9646 54.6074 31.9422 52.1325 34.1495C52.1247 34.1557 52.1169 34.1573 52.1091 34.162C49.6545 36.2277 44.8758 38.5937 39.2851 38.5937C37.336 38.5937 35.4678 38.3075 33.7567 37.8471C33.3554 37.7397 32.9649 37.6215 32.5823 37.4971C29.8663 36.6057 27.634 35.3037 26.2403 34.0982C25.0767 32.9626 24.9398 32.4586 24.6427 31.5175C24.5494 31.096 24.4778 30.634 24.4327 30.1346C24.064 29.0784 23.7312 27.9522 23.4372 26.7653C22.9954 28.94 22.9347 30.8813 23.2738 32.3995C23.6005 33.4371 23.7498 33.9924 25.0332 35.2431C26.332 36.3646 28.2718 37.3151 30.6347 37.9949C31.1838 38.1535 31.7563 38.2966 32.3489 38.4242C34.4583 38.8784 36.8196 39.1335 39.3178 39.1335C45.4747 39.1335 50.8211 37.5857 53.5216 35.3115C53.5309 35.3069 53.5402 35.3053 53.548 35.2991C56.4336 32.7246 56.3434 28.086 54.0411 22.4362L54.0396 22.4347Z" fill="#0069AA"/>
<path d="M27.4467 17.611C29.3693 14.2183 31.9484 11.6314 34.358 9.98878C34.5742 9.841 34.7904 9.701 35.0035 9.56878C36.0318 8.931 37.0133 8.47211 37.8829 8.20611C38.9267 7.84523 39.8942 8.03034 40.5631 8.20611C43.6198 9.14567 48.2164 12.6488 51.1455 17.8163C51.5329 18.5023 51.886 19.179 52.2064 19.8448C52.2966 19.655 52.3822 19.4668 52.4631 19.2817C52.4724 19.2692 52.4849 19.2599 52.4895 19.2459C52.5004 19.2194 52.5097 19.1914 52.5206 19.1634C52.2391 18.6174 51.9389 18.0668 51.6246 17.5083C48.4 11.8166 44.1735 7.75967 40.8104 6.72523C40.0731 6.53234 39.0091 6.32701 37.858 6.72523C36.6151 7.10634 35.254 7.90278 33.8695 9.03989C33.6658 9.20634 33.462 9.38211 33.2582 9.56256C31.0913 11.4914 28.9011 14.2277 27.0422 17.5083C25.9502 19.4357 25.076 21.3692 24.4258 23.2219C24.5549 23.673 24.6902 24.1163 24.8318 24.5503C25.2984 22.3197 26.14 19.921 27.4482 17.611H27.4467Z" fill="#0069AA"/>
<path d="M2.92021 57.2973C2.92021 56.9799 3.16132 56.7186 3.43355 56.7186H8.56687V54.4428H2.93577C1.73333 54.4428 0.754883 55.5815 0.754883 56.9597V67.4971H2.92021V61.8084H7.0751V59.5513H2.92021V57.2957V57.2973Z" fill="#0069AA"/>
<path d="M14.3627 54.2951C13.7203 54.2951 13.0949 54.7431 12.8709 55.4509L8.98828 67.4987H11.1381L12.1165 64.4576H16.5125L17.4754 67.4987H19.7683L15.8389 55.4509C15.6134 54.7602 15.0378 54.2951 14.3627 54.2951ZM12.8072 62.2394L14.3145 57.3534L15.8218 62.2394H12.8056H12.8072Z" fill="#0069AA"/>
<path d="M28.4621 54.9299C27.5474 54.4259 26.6809 54.4819 25.7352 54.4445H24.2434C23.0409 54.4445 22.0625 55.5832 22.0625 56.9816V67.5003H24.2278V62.7823H25.7523C26.7789 62.7823 27.8367 62.6143 28.6876 61.9983C29.7609 61.233 30.1794 59.9278 30.1794 58.5481C30.1794 57.0936 29.6334 55.5832 28.4621 54.9314V54.9299ZM25.8627 60.5423H24.2263V57.2787C24.2263 56.9614 24.2263 56.6643 24.5001 56.6643H25.7834C27.1632 56.6643 27.9643 56.9054 27.9643 58.6025C27.9643 60.0585 26.9221 60.5423 25.8627 60.5423Z" fill="#0069AA"/>
<path d="M59.5233 54.4445H57.3564V67.4987H59.5233V54.4445Z" fill="#0069AA"/>
<path d="M67.0757 59.6943V61.8332L69.0808 61.8441V65.1045C68.7122 65.2321 68.2797 65.2865 67.8628 65.2865C65.4237 65.2865 64.173 63.6236 64.173 60.9185C64.173 59.9696 64.3815 58.7812 64.8622 57.9941C65.4875 56.9892 66.4986 56.5319 67.5564 56.5319C68.4555 56.5319 69.5942 56.7512 70.4108 57.2272H70.6846V54.9608C69.6268 54.5408 68.5986 54.3028 67.4599 54.3028C65.6306 54.3214 64.0424 55.0696 63.0328 56.7528C62.2628 57.9941 61.9424 59.4579 61.9424 60.9014C61.9424 62.5814 62.3593 64.2645 63.3222 65.5245C64.4126 66.951 65.9044 67.4985 67.5564 67.4985C68.807 67.4799 70.0126 67.2621 71.2462 66.8779V59.6943H67.0757Z" fill="#0069AA"/>
<path d="M35.3847 56.7203H40.4854V54.4445H34.8714C33.6689 54.4445 32.7061 55.5832 32.7061 56.9614V64.9803C32.7061 66.3601 33.6689 67.4972 34.8714 67.4972H40.4854V65.2214H35.3832C35.1109 65.2214 34.8714 64.9601 34.8714 64.6443V61.7167H39.0263V59.5343H34.8714V57.2974C34.8714 56.9801 35.1125 56.7187 35.3847 56.7187V56.7203Z" fill="#0069AA"/>
<path d="M52.6201 54.2951C51.8656 54.2764 51.497 54.7617 50.9478 55.4835L48.6845 59.5653L46.4212 55.4835C45.8705 54.7617 45.5003 54.2764 44.7474 54.2951C43.9603 54.3137 43.3521 55.0791 43.335 55.9735V67.4986H45.1441L45.1643 57.4342L48.7078 63.0995L52.2047 57.4342L52.225 67.4986H54.0341V55.9735C54.0185 55.0791 53.4087 54.3137 52.6232 54.2951H52.6201Z" fill="#0069AA"/>
</svg>
