<svg width="100%" height="100%" viewBox="0 0 88 40" fill="none" xmlns="http://www.w3.org/2000/svg">
<g clip-path="url(#clip0_336_9156)">
<path d="M67.2269 11.6772C67.2269 11.6772 67.237 11.6998 67.242 11.7123C67.2747 11.7676 67.3199 11.8128 67.3701 11.8455L68.8122 21.6583L58.3386 8.41628L67.2269 11.6772ZM85.3176 1.78394L70.3873 22.5678L67.9128 11.7777L85.3176 1.78394ZM67.4304 11.1521L58.738 7.58221L84.5891 1.6935L67.4304 11.1521ZM86.2999 1.06544C86.2723 0.937315 86.1467 0.856923 86.0185 0.882045L57.08 6.95666C56.8941 6.96922 56.7257 7.08981 56.6579 7.27571C56.5876 7.46665 56.6453 7.67265 56.786 7.80329C56.8388 7.85353 56.9041 7.8887 56.9744 7.91131L57.0473 7.93895L69.2945 24.7735C69.3171 24.8238 69.3473 24.8715 69.3799 24.9142C69.3799 24.9142 69.3824 24.9192 69.3849 24.9217C69.3925 24.9293 69.3975 24.9368 69.405 24.9443C69.5859 25.173 69.8899 25.291 70.1914 25.2207C70.4602 25.1579 70.6637 24.9644 70.7516 24.7233L86.207 1.30662C86.2798 1.25386 86.3175 1.1609 86.2999 1.06795" fill="#006361"/>
<path d="M87.1844 1.11568C87.1844 0.500181 86.6845 0.000244141 86.069 0.000244141C85.4535 0.000244141 84.9561 0.500181 84.9561 1.11568C84.9561 1.73118 85.4535 2.23112 86.069 2.23112C86.6845 2.23112 87.1844 1.73118 87.1844 1.11568Z" fill="#F26522"/>
<path d="M69.2238 11.5139C69.2238 10.6095 68.4902 9.87589 67.5833 9.87589C66.6764 9.87589 65.9453 10.6095 65.9453 11.5139C65.9453 12.4183 66.6789 13.1544 67.5833 13.1544C68.4877 13.1544 69.2238 12.4208 69.2238 11.5139Z" fill="#F26522"/>
<path d="M59.0364 7.44906C59.0364 6.39391 58.1822 5.53975 57.1271 5.53975C56.0719 5.53975 55.2178 6.39391 55.2178 7.44906C55.2178 8.5042 56.0719 9.35837 57.1271 9.35837C58.1822 9.35837 59.0364 8.5042 59.0364 7.44906Z" fill="#F26522"/>
<path d="M72.4396 24.4318C72.4396 23.0928 71.3518 22.005 70.0128 22.005C68.6737 22.005 67.5859 23.0903 67.5859 24.4318C67.5859 25.7734 68.6737 26.8587 70.0128 26.8587C71.3518 26.8587 72.4396 25.7734 72.4396 24.4318Z" fill="#F26522"/>
<path d="M46.8402 37.3649C46.7548 37.1187 46.697 36.865 46.697 36.865H46.6895C46.6895 36.865 46.6292 37.1237 46.5438 37.3649L46.3403 37.9553H47.0487L46.8402 37.3649ZM45.981 38.9928H45.2776L46.3755 36.1163H47.0437L48.1742 38.9928H47.4155L47.2422 38.508H46.1493L45.981 38.9928ZM44.0039 39.0456C43.5291 39.0456 43.2226 38.8697 43.0919 38.7642L43.3758 38.2794C43.4411 38.3221 43.6647 38.4879 43.9813 38.4879C44.2526 38.4879 44.3958 38.3673 44.3958 38.204C44.3958 37.9804 44.0968 37.9327 43.7602 37.7593C43.406 37.586 43.1598 37.3574 43.1598 36.8876C43.1598 36.3876 43.5793 36.0661 44.1194 36.0661C44.6043 36.0661 44.8581 36.2168 44.9862 36.3123L44.7149 36.7946C44.6144 36.7343 44.3908 36.6213 44.1622 36.6213C43.9461 36.6213 43.8205 36.7067 43.8205 36.88C43.8205 37.0835 44.0441 37.1388 44.3506 37.277C44.7299 37.4453 45.0641 37.6387 45.0641 38.1613C45.0641 38.6838 44.6671 39.0431 44.0014 39.0431M41.8584 36.1163H42.5619V38.9928H41.8584V36.1163ZM39.8436 39.0431C38.997 39.0431 38.5774 38.6411 38.5774 37.8648V36.1163H39.2758V37.8146C39.2758 38.2668 39.4266 38.4803 39.8537 38.4803C40.2506 38.4803 40.4063 38.2417 40.4063 37.8447V36.1163H41.0445V37.797C41.0445 38.6085 40.635 39.0456 39.8386 39.0456M36.5601 36.6238C36.0124 36.6238 35.7738 37.0433 35.7738 37.5382C35.7738 38.0332 36.0074 38.4879 36.5425 38.4879C37.0776 38.4879 37.3113 38.0558 37.3113 37.5583C37.3113 37.0609 37.1002 36.6213 36.5601 36.6213M37.4972 39.2566C37.6605 39.2566 37.7811 39.1888 37.8439 39.1411L38.0649 39.5907C37.9795 39.6586 37.766 39.7716 37.4695 39.7716C37.0123 39.7716 36.6455 39.6108 36.1908 39.0104C35.4396 38.8547 35.0377 38.2291 35.0377 37.5608C35.0377 36.7821 35.5602 36.0661 36.545 36.0661C37.5298 36.0661 38.0473 36.7695 38.0473 37.5382C38.0473 38.1939 37.6931 38.812 36.9947 38.9928C37.1455 39.1913 37.2711 39.2566 37.4997 39.2566M33.6208 39.0456C33.146 39.0456 32.8395 38.8697 32.7088 38.7642L32.9927 38.2794C33.058 38.3221 33.2816 38.4879 33.5982 38.4879C33.8695 38.4879 34.0127 38.3673 34.0127 38.204C34.0127 37.9804 33.7137 37.9327 33.3771 37.7593C33.0229 37.586 32.7767 37.3574 32.7767 36.8876C32.7767 36.3876 33.1962 36.0661 33.7363 36.0661C34.2212 36.0661 34.4749 36.2168 34.6056 36.3123L34.3342 36.7946C34.2338 36.7343 34.0102 36.6213 33.7816 36.6213C33.5655 36.6213 33.4399 36.7067 33.4399 36.88C33.4399 37.0835 33.6635 37.1388 33.97 37.277C34.3493 37.4453 34.6834 37.6387 34.6834 38.1613C34.6834 38.6838 34.2865 39.0431 33.6208 39.0431M30.4629 38.9903V36.1138H32.1812V36.6841H31.1537V37.2443H32.0607V37.7744H31.1537V38.4175H32.2114V38.9878H30.4629V38.9903ZM28.8224 36.6363H28.5536V37.4905H28.8048C29.1515 37.4905 29.3047 37.3523 29.3047 37.0534C29.3047 36.772 29.154 36.6338 28.8199 36.6338M28.7998 38.0105H28.5536V38.9878H27.8577V36.1113H28.8726C29.5107 36.1113 30.0006 36.4052 30.0006 37.0433C30.0006 37.6814 29.5258 38.0105 28.7998 38.0105ZM24.5289 38.9878V36.1113H26.2473V36.6816H25.2198V37.2418H26.1267V37.7719H25.2198V38.415H26.2775V38.9853H24.5289V38.9878ZM21.5193 36.6162C20.9716 36.6162 20.7329 37.0358 20.7329 37.5307C20.7329 38.0256 20.9666 38.4803 21.5017 38.4803C22.0368 38.4803 22.2704 38.0482 22.2704 37.5508C22.2704 37.0534 22.0594 36.6137 21.5193 36.6137M21.5193 39.0355C20.5294 39.0355 19.9943 38.3221 19.9943 37.5508C19.9943 36.7795 20.5169 36.056 21.5017 36.056C22.4865 36.056 23.004 36.7594 23.004 37.5282C23.004 38.2969 22.5066 39.0355 21.5193 39.0355ZM18.5297 37.3548C18.4443 37.1086 18.3865 36.8549 18.3865 36.8549H18.379C18.379 36.8549 18.3187 37.1137 18.2333 37.3548L18.0298 37.9452H18.7382L18.5297 37.3548ZM18.6628 35.8475C18.3915 35.8475 18.3162 35.7018 18.1353 35.7018C18.0323 35.7018 17.9443 35.7847 17.8966 35.8324L17.6027 35.5812C17.6856 35.4254 17.8715 35.232 18.1177 35.232C18.394 35.232 18.4644 35.3777 18.6453 35.3777C18.7659 35.3777 18.8488 35.2923 18.8915 35.2446L19.1854 35.4983C19.1 35.6541 18.9141 35.8475 18.6628 35.8475ZM17.6705 38.9828H16.9671L18.0649 36.1063H18.7332L19.8637 38.9828H19.1025L18.9291 38.4979H17.8363L17.668 38.9828H17.6705ZM14.2966 37.5408C14.2966 36.7594 14.8066 36.056 15.8089 36.056C16.1858 36.056 16.4621 36.1389 16.6907 36.2897L16.3842 36.7946C16.2285 36.6992 16.0551 36.6313 15.7964 36.6313C15.304 36.6313 15.0352 37.0207 15.0352 37.5257C15.0352 38.0306 15.2889 38.4577 15.8089 38.4577C16.1205 38.4577 16.2963 38.3447 16.4395 38.2417L16.7234 38.729C16.5752 38.8597 16.2235 39.0305 15.8039 39.0355L15.7386 39.2089C15.9195 39.2466 16.0501 39.3772 16.0501 39.5757C16.0501 39.8168 15.8265 39.9902 15.4874 39.9902C15.2964 39.9902 15.1683 39.9525 15.108 39.9198L15.1909 39.6385C15.2336 39.6611 15.3115 39.6862 15.412 39.6862C15.5326 39.6862 15.6155 39.6385 15.6155 39.543C15.6155 39.4048 15.4522 39.3747 15.309 39.3873L15.4522 39.0029C14.6784 38.8597 14.2991 38.2291 14.2991 37.5382M12.8344 37.3523C12.749 37.1061 12.6912 36.8524 12.6912 36.8524H12.6812C12.6812 36.8524 12.6209 37.1112 12.533 37.3523L12.3295 37.9427H13.0379L12.8319 37.3523H12.8344ZM11.9752 38.9803H11.2718L12.3697 36.1037H13.0379L14.1684 38.9803H13.4072L13.2339 38.4954H12.1411L11.9727 38.9803H11.9752ZM10.3825 38.9803H9.72176L8.61135 36.1037H9.36754L9.92525 37.7417C9.99811 37.9628 10.0685 38.2165 10.0685 38.2165H10.0785C10.0785 38.2165 10.1438 37.9578 10.2167 37.7417L10.7568 36.1037H11.4577L10.3875 38.9803H10.3825ZM6.99597 36.6087C6.4483 36.6087 6.20964 37.0283 6.20964 37.5232C6.20964 38.0181 6.44328 38.4728 6.97839 38.4728C7.5135 38.4728 7.74714 38.0407 7.74714 37.5433C7.74714 37.0458 7.53611 36.6062 6.99597 36.6062M6.99597 39.028C6.00615 39.028 5.47104 38.3145 5.47104 37.5433C5.47104 36.772 5.99359 36.0485 6.97839 36.0485C7.96319 36.0485 8.48071 36.7519 8.48071 37.5207C8.48071 38.2894 7.98329 39.028 6.99597 39.028ZM4.28024 38.9752L3.25775 37.5232C3.07687 37.2694 2.96382 37.0735 2.96382 37.0735H2.95628C2.95628 37.0735 2.97387 37.282 2.97387 37.4754V38.9727H2.34329V36.0962H3.04672L3.97877 37.4352C4.16467 37.704 4.2928 37.9402 4.2928 37.9402H4.30285C4.30285 37.9402 4.28526 37.694 4.28526 37.4704V36.0962H4.91583V38.9727H4.28024V38.9752ZM0.818359 36.1163H1.52179V38.9928H0.818359V36.1163Z" fill="#F26522"/>
<path d="M59.4488 26.311C59.4488 28.8484 58.5117 30.2276 56.8561 30.2276C55.8362 30.2276 55.2282 29.8131 54.786 29.4287V23.7736C55.0624 23.4144 55.8336 22.5602 57.0496 22.5602C58.6222 22.5602 59.4488 23.9118 59.4488 26.311ZM63.8904 26.3386C63.8904 21.7865 61.8228 19.2491 58.4012 19.2491C56.5798 19.2491 55.4493 20.0756 54.7031 20.9876V19.5807H50.5931V38.9903H54.786V32.5464C55.2558 32.9057 56.2482 33.4282 57.8208 33.4282C61.3505 33.4282 63.8904 30.6145 63.8904 26.3386ZM40.0567 24.7107C40.3054 23.0551 41.0767 22.201 42.4559 22.201C43.9181 22.201 44.4707 23.3039 44.4984 24.7107H40.0567ZM40.1396 27.4692H48.4979C48.9677 22.2562 46.8976 19.2491 42.5112 19.2491C38.7051 19.2491 35.6427 21.9246 35.6427 26.2834C35.6427 30.6421 38.3183 33.4282 42.9257 33.4282C45.7947 33.4282 47.1463 32.6569 48.0834 32.1319L46.787 29.5116C46.0987 29.8432 45.1591 30.3658 43.3402 30.3658C41.353 30.3658 40.3607 29.2905 40.1396 27.4692ZM33.7686 33.0966V23.6907C33.7686 21.181 32.6657 19.2491 29.6862 19.2491C27.4804 19.2491 26.1841 20.3796 25.438 21.2363V19.5807H21.3279V33.0966H25.5209V24.1856C25.7972 23.8264 26.7343 22.7235 27.9477 22.7235C29.1611 22.7235 29.5756 23.3038 29.5756 24.5449V33.0966H33.7686ZM18.6398 19.5807H14.3916V33.0966H18.6398V19.5807ZM11.6859 18.3673V14.727H0.81543V33.0991H5.28472V25.8161H10.9398V22.4221H5.28472V18.3673H11.6859ZM16.517 17.1514C15.1779 17.1514 14.0901 16.0661 14.0901 14.7245C14.0901 13.383 15.1779 12.2977 16.517 12.2977C17.856 12.2977 18.9438 13.383 18.9438 14.7245C18.9438 16.0661 17.8585 17.1514 16.517 17.1514Z" fill="#006361"/>
</g>
<defs>
<clipPath id="clip0_336_9156">
<rect width="86.3685" height="40" fill="white" transform="translate(0.81543 0.000244141)"/>
</clipPath>
</defs>
</svg>
