<svg width="1440" height="239" viewBox="0 0 1440 239" fill="none" xmlns="http://www.w3.org/2000/svg">
<path opacity="0.06" d="M1835.72 -729.19C1836.24 -724.294 1838.1 -719.73 1839.53 -715.055C1842.94 -703.297 1846.01 -691.433 1848.23 -679.377C1893.27 -455.287 1708.64 -189.902 1385.69 -4.84897C1174.69 117.36 910.012 201.695 654.284 228.606C55.8028 293.121 -389.528 47.4979 -352.071 -315.999C-315.433 -702.824 247.613 -1085.75 884.235 -1146.81C1244.83 -1183.21 1577.64 -1098.27 1733.6 -929.586C1789.18 -870.967 1824.03 -802.143 1835.72 -729.183L1835.72 -729.19ZM1663.61 -685.771C1633.44 -768.652 1562.03 -839.34 1457.96 -886.755C1269.93 -973.925 983.715 -978.171 719.653 -895.577C240.369 -748.729 -9.85168 -382.701 232.462 -165.323C487.438 63.4729 1120.9 -4.10155 1466.46 -294.753C1592.34 -399.432 1664.8 -523.57 1667.12 -636.762C1667.17 -644.966 1667.31 -653.418 1666.75 -661.493C1666.06 -668.766 1665.94 -678.977 1663.62 -685.764L1663.61 -685.771Z" fill="url(#paint0_linear_336_10901)"/>
<defs>
<linearGradient id="paint0_linear_336_10901" x1="-504" y1="-819.1" x2="1675.71" y2="-1369" gradientUnits="userSpaceOnUse">
<stop stop-color="#006838"/>
<stop offset="1" stop-color="#96CF24"/>
</linearGradient>
</defs>
</svg>
