<svg width="26" height="26" viewBox="0 0 26 26" fill="none" xmlns="http://www.w3.org/2000/svg">
<g clip-path="url(#clip0_336_8965)">
<path d="M12.9997 25.9995C20.1791 25.9995 25.9995 20.1786 25.9995 12.9997C25.9995 5.82094 20.1796 0 12.9997 0C5.81993 0 0 5.82145 0 12.9997C0 20.178 5.82043 25.9995 12.9997 25.9995Z" fill="#F0F0F0"/>
<path fill-rule="evenodd" clip-rule="evenodd" d="M24.0788 6.21204H12.4156V2.81738H21.0818C22.2718 3.7648 23.2862 4.9138 24.0788 6.21204ZM25.9999 12.9998H12.4227V9.6062H25.5525C25.8504 10.7128 26.0008 11.8539 25.9999 12.9998ZM13.0001 25.9996C15.9391 26.0064 18.7925 25.0104 21.0889 23.1762H4.91183C7.20788 25.0107 10.0612 26.0067 13.0001 25.9996ZM24.0931 19.7892H1.90716C1.26007 18.7339 0.768696 17.5907 0.448242 16.395H25.552C25.2316 17.5907 24.7402 18.7339 24.0931 19.7892Z" fill="#D80027"/>
<path fill-rule="evenodd" clip-rule="evenodd" d="M6.03523 2.0231H6.02356V2.03122L6.03523 2.0231ZM6.03523 2.0231H7.2108L6.10328 2.81781L6.52222 4.11778L5.41724 3.32307L4.31937 4.11778L4.68042 2.99605C3.71005 3.8082 2.86342 4.75764 2.1673 5.81435H2.55019L1.84942 6.32215L1.53153 6.88074L1.86364 7.91361L1.23548 7.45658L0.802329 8.46508L1.16338 9.59748H2.53444L1.4447 10.4003L1.86364 11.7003L0.758658 10.9056L0.10867 11.3819C0.036137 11.9181 -0.000168546 12.4586 5.88214e-07 12.9998H12.9997V1.09495e-05C10.5329 -0.00319741 8.11647 0.698731 6.03523 2.0231ZM6.51968 11.6937L6.52933 11.7013H6.52222L6.51968 11.6937ZM6.10277 10.4008L6.51968 11.6937L5.41673 10.9066L4.31175 11.7013L4.73069 10.4013L3.62571 9.60662H4.99678L5.41572 8.30665L5.83465 9.60662H7.20572L6.10277 10.4008ZM6.11039 6.61668L6.52933 7.91665L5.42435 7.12194L4.31937 7.91665L4.73831 6.61668L3.63333 5.82197H5.0044L5.42333 4.52199L5.84227 5.82197H7.21334L6.11039 6.61668ZM10.0895 10.9066L11.1945 11.7013L10.7756 10.4013L11.8826 9.60662H10.5115L10.0926 8.30665L9.67364 9.60662H8.30257L9.40755 10.4013L8.98861 11.7013L10.0895 10.9066ZM10.7756 6.61668L11.1945 7.91665L10.0895 7.12194L8.98455 7.91665L9.40349 6.61668L8.29851 5.82197H9.66958L10.0885 4.52199L10.5075 5.82197H11.8785L10.7756 6.61668ZM11.1945 4.132L10.7756 2.83203L11.8826 2.03731H10.5115L10.0926 0.73734L9.67364 2.03731H8.30257L9.40755 2.83203L8.98861 4.132L10.0936 3.33729L11.1945 4.132Z" fill="#0052B4"/>
</g>
<defs>
<clipPath id="clip0_336_8965">
<rect width="26" height="26" fill="white"/>
</clipPath>
</defs>
</svg>
