<svg width="27" height="26" viewBox="0 0 27 26" fill="none" xmlns="http://www.w3.org/2000/svg">
<path d="M13.002 5.50533e-07C9.55501 0.00100332 6.24947 1.37076 3.81207 3.80817C1.37467 6.24557 0.00490902 9.5511 0.00390625 12.9981C0.00390618 14.7059 0.340335 16.3969 0.993978 17.9746C1.64762 19.5523 2.60567 20.9858 3.81341 22.1932C5.02115 23.4006 6.45491 24.3582 8.03281 25.0114C9.61071 25.6646 11.3018 26.0005 13.0096 26C14.717 26 16.4077 25.6637 17.9852 25.0103C19.5626 24.3569 20.996 23.3992 22.2033 22.1918C23.4106 20.9845 24.3684 19.5512 25.0218 17.9737C25.6752 16.3963 26.0115 14.7055 26.0115 12.9981C26.011 11.2907 25.6742 9.60006 25.0203 8.02279C24.3664 6.44552 23.4083 5.01248 22.2006 3.80549C20.9929 2.59851 19.5593 1.64121 17.9817 0.988263C16.404 0.335316 14.7094 -0.000496302 13.002 5.50533e-07Z" fill="#FF2A2A"/>
<path d="M0.752801 8.67053C0.258239 10.0599 0.00367299 11.5234 0 12.9982C0.00402872 14.4758 0.259887 15.9418 0.756584 17.3334H25.2548C25.7515 15.9418 26.0073 14.4758 26.0113 12.9982C26.0105 11.5225 25.7585 10.0578 25.2661 8.66675L0.752801 8.67053Z" fill="#FFD42A"/>
<path d="M13.0024 1.49805C10.7154 1.4992 8.48072 2.18222 6.58386 3.45982C4.687 4.73742 3.21415 6.55158 2.35352 8.67046H23.6589C22.798 6.55098 21.3246 4.73641 19.427 3.45877C17.5294 2.18112 15.2901 1.49845 13.0024 1.49805ZM2.35352 17.3371C3.21498 19.4559 4.68867 21.2697 6.58623 22.5466C8.48378 23.8235 10.719 24.5057 13.0062 24.5058C15.2928 24.5049 17.5272 23.8224 19.424 22.5455C21.3208 21.2687 22.7939 19.4553 23.6551 17.3371H2.35352Z" fill="#D40000"/>
<path d="M2.35311 8.67053C1.79283 10.0447 1.5038 11.5142 1.50195 12.9982C1.50282 14.4847 1.79187 15.9569 2.35311 17.3334H23.6547C24.216 15.9569 24.505 14.4847 24.5059 12.9982C24.5057 11.5132 24.218 10.0423 23.6585 8.66675L2.35311 8.67053Z" fill="#FFCC00"/>
<path d="M6.66504 11.5872H10.9511L10.9549 14.6892C10.9549 15.8694 9.93348 16.8265 8.6662 16.8265C7.48593 16.7508 6.58938 15.7938 6.6726 14.6892L6.66504 11.5872Z" fill="white"/>
<path d="M6.66504 11.5872H8.80995V13.7812H6.66504V11.5872Z" fill="#D40000"/>
<path d="M8.81055 11.5872H10.9517V13.7812H8.81055V11.5872Z" fill="white"/>
<path d="M6.66895 13.7849V14.969C6.69873 15.3036 6.81244 15.6254 6.99957 15.9044C7.1867 16.1834 7.4412 16.4108 7.73951 16.5654C8.03853 16.4113 8.29378 16.1841 8.4816 15.9051C8.66941 15.626 8.7837 15.304 8.81386 14.969L8.80629 13.7849H6.66895ZM8.80629 13.7849L8.81386 14.969C8.8425 15.2919 8.94946 15.6029 9.12546 15.8752C9.30146 16.1474 9.5412 16.3726 9.8239 16.5313C10.1537 16.3592 10.4324 16.1032 10.6316 15.789C10.8309 15.4749 10.9437 15.1137 10.9588 14.742L10.9512 13.7849H8.80629Z" fill="#D40000"/>
<path d="M7.07846 12.0449H8.40248C8.44648 12.0462 8.48838 12.0698 8.51942 12.1107C8.55045 12.1516 8.56819 12.2066 8.56893 12.2643V13.1041C8.56931 13.1338 8.56519 13.1632 8.55681 13.1907C8.54843 13.2182 8.53595 13.2433 8.5201 13.2644C8.50426 13.2855 8.48536 13.3023 8.46452 13.3138C8.44367 13.3252 8.4213 13.3311 8.3987 13.3311H7.07468C7.02968 13.3298 6.98691 13.3052 6.95572 13.2627C6.92453 13.2201 6.90745 13.1631 6.90823 13.1041V12.2643C6.90899 12.2058 6.92725 12.15 6.9591 12.109C6.99094 12.0679 7.03381 12.0449 7.07846 12.0449Z" fill="#FFCC00"/>
<path d="M7.39558 13.3272H8.08029V12.8317C8.08029 12.6425 7.91762 12.4912 7.71335 12.4912C7.5242 12.5026 7.38423 12.6539 7.39558 12.8317V13.3272ZM4.07418 16.2893H5.8862C5.918 16.2902 5.94824 16.3033 5.97074 16.3258C5.99324 16.3483 6.0063 16.3785 6.00725 16.4103V16.7319C6.0063 16.7637 5.99324 16.7939 5.97074 16.8164C5.94824 16.8389 5.918 16.852 5.8862 16.8529H4.07418C4.04237 16.852 4.01213 16.8389 3.98963 16.8164C3.96713 16.7939 3.95408 16.7637 3.95312 16.7319V16.4103C3.95408 16.3785 3.96713 16.3483 3.98963 16.3258C4.01213 16.3033 4.04237 16.2902 4.07418 16.2893Z" fill="#0044AA"/>
<path d="M4.384 15.9185H5.57561C5.60571 15.9185 5.63458 15.9304 5.65586 15.9517C5.67715 15.973 5.6891 16.0018 5.6891 16.0319V16.2892H4.27051V16.0319C4.27051 16.0018 4.28246 15.973 4.30375 15.9517C4.32503 15.9304 4.3539 15.9185 4.384 15.9185Z" fill="#FFE680"/>
<path d="M5.50026 11.5908H4.45996V15.9185H5.50026V11.5908Z" fill="white"/>
<path d="M4.96687 10.8305C4.8314 10.8335 4.70247 10.8894 4.60772 10.9862C4.51297 11.0831 4.45993 11.2133 4.45996 11.3488V11.5909H5.50026V11.3488C5.47 10.9326 5.1825 10.8116 4.96687 10.8305ZM9.77874 11.9275H9.97924C10.2176 11.9275 10.4067 12.1053 10.4067 12.3248V13.0435C10.4067 13.2667 10.2176 13.4445 9.97924 13.4445H9.77874C9.5442 13.4445 9.35127 13.2667 9.35127 13.0473V12.3285C9.35127 12.1016 9.54042 11.9275 9.77874 11.9275ZM7.14962 11.171H10.5656L11.0763 9.16602L9.96789 10.0247L8.82923 9.16602L7.70192 10.0247L6.54813 9.16602L7.14962 11.171Z" fill="#D40000"/>
<path d="M9.28357 13.9741H10.5773V15.0371C10.5773 15.4419 10.2671 15.771 9.88505 15.771C9.52945 15.7483 9.26087 15.4192 9.28357 15.0371V13.9741Z" fill="#FFCC00"/>
<path d="M11.7381 16.2893H13.5464C13.5788 16.2893 13.61 16.3019 13.6333 16.3245C13.6566 16.3471 13.6702 16.3779 13.6712 16.4104V16.7319C13.6702 16.7644 13.6566 16.7951 13.6333 16.8177C13.61 16.8403 13.5788 16.853 13.5464 16.853H11.7381C11.7057 16.853 11.6745 16.8403 11.6512 16.8177C11.6279 16.7951 11.6143 16.7644 11.6133 16.7319V16.4104C11.6143 16.3779 11.6279 16.3471 11.6512 16.3245C11.6745 16.3019 11.7057 16.2893 11.7381 16.2893Z" fill="#0044AA"/>
<path d="M12.0451 15.9185H13.2367C13.2668 15.9185 13.2957 15.9304 13.317 15.9517C13.3383 15.973 13.3502 16.0018 13.3502 16.0319V16.2892H11.9316V16.0319C11.9316 16.0018 11.9436 15.973 11.9649 15.9517C11.9862 15.9304 12.015 15.9185 12.0451 15.9185Z" fill="#FFE680"/>
<path d="M13.1614 11.5908H12.1211V15.9185H13.1614V11.5908Z" fill="white"/>
<path d="M6.66504 13.7849L6.6726 14.689V14.969C6.6953 15.2829 6.79366 15.5742 6.95632 15.8353V13.7849H6.66504ZM8.51867 13.7849V15.8466C8.67544 15.5997 8.77377 15.3202 8.80617 15.0295V13.7849H8.51867ZM7.90205 13.7849V16.4708C8.00443 16.4024 8.10063 16.3252 8.18955 16.24V13.7849H7.90205ZM7.28544 13.7849V16.2325C7.37244 16.3157 7.4708 16.3913 7.57294 16.4594V13.7849H7.28544Z" fill="#FFE680"/>
<path d="M8.21628 13.4712H9.41168V14.3375C9.41168 14.6666 9.12796 14.9352 8.77237 14.9352C8.44325 14.9125 8.19358 14.6477 8.21628 14.3375V13.4712Z" fill="#D40000"/>
<path d="M8.3418 13.6262H9.28374V14.3071C9.28374 14.5682 9.05677 14.7762 8.7844 14.7762C8.51959 14.7611 8.32667 14.5493 8.34558 14.3071L8.3418 13.6262Z" fill="#0044AA"/>
<path d="M12.6242 10.8305C12.4894 10.8344 12.3614 10.8908 12.2675 10.9875C12.1736 11.0843 12.121 11.2139 12.1211 11.3487V11.5909H13.1614V11.3487C13.1311 10.9326 12.8398 10.8116 12.6242 10.8305Z" fill="#D40000"/>
</svg>
