<svg width="26" height="26" viewBox="0 0 26 26" fill="none" xmlns="http://www.w3.org/2000/svg">
<g clip-path="url(#clip0_336_8962)">
<path d="M13 26C20.1797 26 26 20.1797 26 13C26 5.8203 20.1797 0 13 0C5.8203 0 0 5.8203 0 13C0 20.1797 5.8203 26 13 26Z" fill="#6DA544"/>
<path d="M12.9999 5.08691L23.739 13L12.9999 20.913L2.26074 13L12.9999 5.08691Z" fill="#FFDA44"/>
<path d="M13.0002 17.5217C15.4975 17.5217 17.5219 15.4973 17.5219 13C17.5219 10.5027 15.4975 8.47827 13.0002 8.47827C10.503 8.47827 8.47852 10.5027 8.47852 13C8.47852 15.4973 10.503 17.5217 13.0002 17.5217Z" fill="#F0F0F0"/>
<path d="M10.7389 12.7174C9.95261 12.7174 9.19378 12.837 8.47949 13.0589C8.51113 15.5289 10.5223 17.5218 12.9998 17.5218C14.5318 17.5218 15.8848 16.7592 16.7027 15.5937C15.3033 13.8419 13.1501 12.7174 10.7389 12.7174ZM17.4377 13.8663C17.4933 13.5809 17.5214 13.2908 17.5216 13C17.5216 10.5027 15.4971 8.47827 12.9998 8.47827C11.1365 8.47827 9.53686 9.60567 8.84461 11.2153C9.46782 11.0864 10.1026 11.0215 10.739 11.0218C13.3653 11.0217 15.7411 12.1134 17.4377 13.8663Z" fill="#0052B4"/>
</g>
<defs>
<clipPath id="clip0_336_8962">
<rect width="26" height="26" fill="white"/>
</clipPath>
</defs>
</svg>
