<svg width="40" height="40" viewBox="0 0 40 40" fill="none" xmlns="http://www.w3.org/2000/svg">
<circle cx="20" cy="20" r="20" fill="#F5B101"/>
<path d="M30.0658 31C29.552 31 29.1316 30.5787 29.1316 30.0638C29.1316 25.4766 25.0212 21.7787 19.9766 21.7787C14.9321 21.7787 10.8684 25.5234 10.8684 30.0638C10.8684 30.5787 10.448 31 9.93418 31C9.42038 31 9 30.5787 9 30.0638C9.04671 24.4936 13.9512 19.9532 20.0234 19.9532C26.0955 19.9532 31 24.4936 31 30.0638C31 30.5787 30.5796 31 30.0658 31ZM20.0234 19.2979C17.0807 19.2979 14.6985 17.0043 14.6985 14.1489C14.6985 11.2936 17.0807 9 20.0234 9C22.966 9 25.3482 11.2936 25.3482 14.1489C25.3482 17.0043 22.966 19.2979 20.0234 19.2979ZM20.0234 10.8255C18.1083 10.8255 16.5202 12.3234 16.5202 14.1489C16.5202 15.9745 18.1083 17.4723 20.0234 17.4723C21.9384 17.4723 23.5265 15.9745 23.5265 14.1489C23.5265 12.3234 21.9384 10.8255 20.0234 10.8255Z" fill="white"/>
<path d="M22.5455 30.8129C22.0317 30.8129 21.6113 30.3916 21.6113 29.8767V24.1193C21.6113 23.6044 22.0317 23.1831 22.5455 23.1831C23.0593 23.1831 23.4797 23.6044 23.4797 24.1193V29.8767C23.433 30.3916 23.0126 30.8129 22.5455 30.8129Z" fill="white"/>
<path d="M25.4418 27.9578H19.6031C19.0893 27.9578 18.6689 27.5365 18.6689 27.0216C18.6689 26.5067 19.0893 26.0854 19.6031 26.0854H25.4885C26.0023 26.0854 26.4227 26.5067 26.4227 27.0216C26.4227 27.5365 25.9556 27.9578 25.4418 27.9578Z" fill="white"/>
</svg>
