<svg width="40" height="40" viewBox="0 0 40 40" fill="none" xmlns="http://www.w3.org/2000/svg">
<circle cx="20" cy="20" r="20" fill="#4442C2"/>
<path d="M28.3455 24.748C28.0355 24.438 27.6593 24.2188 27.2492 24.102V13.6166C27.2492 13.4403 27.182 13.2705 27.061 13.142L23.3677 9.21787C23.3029 9.14913 23.2248 9.09434 23.1381 9.05687C23.0514 9.01941 22.958 9.00005 22.8635 9H13.63C13.2475 9 12.9375 9.30998 12.9375 9.69248V27.4667C12.9375 27.8492 13.2475 28.1592 13.63 28.1592H21.3431L20.837 28.6653C19.847 29.6554 19.847 31.2662 20.837 32.2562C21.3165 32.736 21.9544 33 22.6326 33C23.3108 33 23.9483 32.736 24.4281 32.2562L28.3455 28.3389C29.3355 27.3488 29.3355 25.738 28.3455 24.748ZM25.823 13.8475H22.6326V10.4577L25.823 13.8475ZM22.7281 26.7743H14.3225V10.385H21.2475V14.54C21.2475 14.9225 21.5575 15.2325 21.94 15.2325H25.8642V24.0982C25.4487 24.214 25.0678 24.4347 24.7545 24.748L22.7281 26.7743ZM23.4487 31.277C23.0037 31.7219 22.2612 31.7217 21.8165 31.277C21.3664 30.8269 21.3664 30.0947 21.8165 29.6446L23.2855 28.1757L24.9177 29.8079L23.4487 31.277ZM27.366 27.3596L25.8969 28.8287L24.2648 27.1963L25.7338 25.7274C26.1788 25.2823 26.9216 25.2828 27.366 25.7274C27.8161 26.1773 27.8161 26.9095 27.366 27.3596Z" fill="white"/>
<path d="M18.708 18.4643H19.4005V19.1569C19.4005 19.5394 19.7105 19.8493 20.093 19.8493C20.4753 19.8493 20.7855 19.5394 20.7855 19.1569V18.4643H21.478C21.8603 18.4643 22.1705 18.1543 22.1705 17.7718C22.1705 17.3895 21.8603 17.0793 21.478 17.0793H20.7855V16.3868C20.7855 16.0045 20.4753 15.6943 20.093 15.6943C19.7105 15.6943 19.4005 16.0045 19.4005 16.3868V17.0793H18.708C18.3255 17.0793 18.0155 17.3895 18.0155 17.7718C18.0155 18.1543 18.3255 18.4643 18.708 18.4643ZM23.7863 21.2344H16.3995C16.017 21.2344 15.707 21.5445 15.707 21.9269C15.707 22.3094 16.017 22.6194 16.3995 22.6194H23.7863C24.1688 22.6194 24.4788 22.3094 24.4788 21.9269C24.4788 21.5445 24.1688 21.2344 23.7863 21.2344ZM21.0162 24.0044H16.3996C16.0171 24.0044 15.7071 24.3144 15.7071 24.6969C15.7071 25.0794 16.0171 25.3894 16.3996 25.3894H21.0162C21.3987 25.3894 21.7087 25.0794 21.7087 24.6969C21.7087 24.3144 21.3987 24.0044 21.0162 24.0044Z" fill="white"/>
</svg>
