<svg width="40" height="40" viewBox="0 0 40 40" fill="none" xmlns="http://www.w3.org/2000/svg">
<circle cx="20" cy="20" r="20" fill="#26B592"/>
<path fill-rule="evenodd" clip-rule="evenodd" d="M19.9999 13C20.5522 13 20.9999 13.4477 20.9999 14V14.34H21.1219C22.9494 14.34 24.3419 15.8741 24.3419 17.67C24.3419 18.2223 23.8942 18.67 23.3419 18.67C22.7896 18.67 22.3419 18.2223 22.3419 17.67C22.3419 16.8859 21.7543 16.34 21.1219 16.34H20.9999V19.2863L22.3559 19.7574C22.8231 19.923 23.3626 20.182 23.7651 20.6956C24.177 21.221 24.3419 21.8769 24.3419 22.63C24.3419 24.2592 23.0663 25.66 21.4019 25.66H20.9999V26C20.9999 26.5523 20.5522 27 19.9999 27C19.4476 27 18.9999 26.5523 18.9999 26V25.66H18.8919C17.0643 25.66 15.6719 24.1259 15.6719 22.33C15.6719 21.7777 16.1196 21.33 16.6719 21.33C17.2242 21.33 17.6719 21.7777 17.6719 22.33C17.6719 23.1141 18.2594 23.66 18.8919 23.66H18.9999V20.7088L17.6578 20.2426C17.1906 20.077 16.6512 19.818 16.2486 19.3044C15.8368 18.779 15.6719 18.1231 15.6719 17.37C15.6719 15.7408 16.9475 14.34 18.6119 14.34H18.9999V14C18.9999 13.4477 19.4476 13 19.9999 13ZM18.9999 16.34H18.6119C18.1363 16.34 17.6719 16.7592 17.6719 17.37C17.6719 17.8369 17.772 18.006 17.8226 18.0706C17.8824 18.1468 18.0024 18.2425 18.3231 18.3564L18.9999 18.5916V16.34ZM20.9999 21.4036V23.66H21.4019C21.8775 23.66 22.3419 23.2408 22.3419 22.63C22.3419 22.1631 22.2418 21.994 22.1911 21.9294C22.1314 21.8532 22.0113 21.7575 21.6906 21.6436L20.9999 21.4036Z" fill="white"/>
<path fill-rule="evenodd" clip-rule="evenodd" d="M9 20C9 13.9247 13.9247 9 20 9C26.0753 9 31 13.9247 31 20C31 26.0753 26.0753 31 20 31C13.9247 31 9 26.0753 9 20ZM20 11C15.0293 11 11 15.0293 11 20C11 24.9707 15.0293 29 20 29C24.9707 29 29 24.9707 29 20C29 15.0293 24.9707 11 20 11Z" fill="white"/>
</svg>
