<svg width="40" height="40" viewBox="0 0 40 40" fill="none" xmlns="http://www.w3.org/2000/svg">
<circle cx="20" cy="20" r="20" fill="#354065"/>
<path d="M15.8838 13.6047C15.4643 13.6047 15.1164 13.2567 15.1164 12.8372V9.76744C15.1164 9.34791 15.4643 9 15.8838 9C16.3033 9 16.6513 9.34791 16.6513 9.76744V12.8372C16.6513 13.2567 16.3033 13.6047 15.8838 13.6047ZM24.0699 13.6047C23.6503 13.6047 23.3024 13.2567 23.3024 12.8372V9.76744C23.3024 9.34791 23.6503 9 24.0699 9C24.4894 9 24.8373 9.34791 24.8373 9.76744V12.8372C24.8373 13.2567 24.4894 13.6047 24.0699 13.6047ZM16.3954 22.5581C16.2624 22.5581 16.1294 22.5274 16.0066 22.4763C15.8736 22.4251 15.7713 22.3535 15.6689 22.2614C15.4847 22.067 15.3722 21.8112 15.3722 21.5349C15.3722 21.4019 15.4029 21.2688 15.454 21.146C15.5052 21.0233 15.5768 20.9107 15.6689 20.8084C15.7713 20.7163 15.8736 20.6446 16.0066 20.5935C16.375 20.44 16.8354 20.5219 17.122 20.8084C17.3061 21.0028 17.4187 21.2688 17.4187 21.5349C17.4187 21.5963 17.4085 21.6679 17.3982 21.7395C17.388 21.8009 17.3675 21.8623 17.3368 21.9237C17.3164 21.9851 17.2857 22.0465 17.2447 22.1079C17.214 22.1591 17.1629 22.2102 17.122 22.2614C16.9275 22.4456 16.6615 22.5581 16.3954 22.5581ZM19.9768 22.5581C19.8438 22.5581 19.7108 22.5274 19.588 22.4763C19.455 22.4251 19.3526 22.3535 19.2503 22.2614C19.0661 22.067 18.9536 21.8112 18.9536 21.5349C18.9536 21.4019 18.9843 21.2688 19.0354 21.146C19.0866 21.0233 19.1582 20.9107 19.2503 20.8084C19.3526 20.7163 19.455 20.6446 19.588 20.5935C19.9564 20.4298 20.4168 20.5219 20.7033 20.8084C20.8875 21.0028 21.0001 21.2688 21.0001 21.5349C21.0001 21.5963 20.9899 21.6679 20.9796 21.7395C20.9694 21.8009 20.9489 21.8623 20.9182 21.9237C20.8978 21.9851 20.8671 22.0465 20.8261 22.1079C20.7954 22.1591 20.7443 22.2102 20.7033 22.2614C20.5089 22.4456 20.2429 22.5581 19.9768 22.5581ZM23.5582 22.5581C23.4252 22.5581 23.2922 22.5274 23.1694 22.4763C23.0364 22.4251 22.934 22.3535 22.8317 22.2614L22.7089 22.1079C22.6702 22.0509 22.6392 21.9889 22.6168 21.9237C22.5873 21.8657 22.5666 21.8037 22.5554 21.7395C22.5452 21.6679 22.535 21.5963 22.535 21.5349C22.535 21.2688 22.6475 21.0028 22.8317 20.8084C22.934 20.7163 23.0364 20.6446 23.1694 20.5935C23.548 20.4298 23.9982 20.5219 24.2847 20.8084C24.4689 21.0028 24.5815 21.2688 24.5815 21.5349C24.5815 21.5963 24.5713 21.6679 24.561 21.7395C24.5508 21.8009 24.5303 21.8623 24.4996 21.9237C24.4792 21.9851 24.4485 22.0465 24.4075 22.1079C24.3768 22.1591 24.3257 22.2102 24.2847 22.2614C24.0903 22.4456 23.8243 22.5581 23.5582 22.5581ZM16.3954 26.1395C16.2624 26.1395 16.1294 26.1088 16.0066 26.0577C15.8838 26.0065 15.7713 25.9349 15.6689 25.8428C15.4847 25.6484 15.3722 25.3823 15.3722 25.1163C15.3722 24.9833 15.4029 24.8502 15.454 24.7274C15.5052 24.5944 15.5768 24.4819 15.6689 24.3898C16.0475 24.0112 16.7433 24.0112 17.122 24.3898C17.3061 24.5842 17.4187 24.8502 17.4187 25.1163C17.4187 25.3823 17.3061 25.6484 17.122 25.8428C16.9275 26.027 16.6615 26.1395 16.3954 26.1395ZM19.9768 26.1395C19.7108 26.1395 19.4447 26.027 19.2503 25.8428C19.0661 25.6484 18.9536 25.3823 18.9536 25.1163C18.9536 24.9833 18.9843 24.8502 19.0354 24.7274C19.0866 24.5944 19.1582 24.4819 19.2503 24.3898C19.6289 24.0112 20.3247 24.0112 20.7033 24.3898C20.7954 24.4819 20.8671 24.5944 20.9182 24.7274C20.9694 24.8502 21.0001 24.9833 21.0001 25.1163C21.0001 25.3823 20.8875 25.6484 20.7033 25.8428C20.5089 26.027 20.2429 26.1395 19.9768 26.1395ZM23.5582 26.1395C23.2922 26.1395 23.0261 26.027 22.8317 25.8428C22.737 25.7467 22.6638 25.6316 22.6168 25.5051C22.5657 25.3823 22.535 25.2493 22.535 25.1163C22.535 24.9833 22.5657 24.8502 22.6168 24.7274C22.668 24.5944 22.7396 24.4819 22.8317 24.3898C23.0671 24.1544 23.4252 24.0419 23.7526 24.1135C23.8243 24.1237 23.8857 24.1442 23.9471 24.1749C24.0085 24.1953 24.0699 24.226 24.1313 24.267C24.1824 24.2977 24.2336 24.3488 24.2847 24.3898C24.4689 24.5842 24.5815 24.8502 24.5815 25.1163C24.5815 25.3823 24.4689 25.6484 24.2847 25.8428C24.0903 26.027 23.8243 26.1395 23.5582 26.1395ZM28.6745 17.7898H11.2792C10.8596 17.7898 10.5117 17.4419 10.5117 17.0223C10.5117 16.6028 10.8596 16.2549 11.2792 16.2549H28.6745C29.094 16.2549 29.442 16.6028 29.442 17.0223C29.442 17.4419 29.094 17.7898 28.6745 17.7898Z" fill="white"/>
<path d="M24.0698 30.9998H15.8837C12.1488 30.9998 10 28.8509 10 25.1161V16.4184C10 12.6835 12.1488 10.5347 15.8837 10.5347H24.0698C27.8047 10.5347 29.9535 12.6835 29.9535 16.4184V25.1161C29.9535 28.8509 27.8047 30.9998 24.0698 30.9998ZM15.8837 12.0696C12.9572 12.0696 11.5349 13.4919 11.5349 16.4184V25.1161C11.5349 28.0426 12.9572 29.4649 15.8837 29.4649H24.0698C26.9963 29.4649 28.4186 28.0426 28.4186 25.1161V16.4184C28.4186 13.4919 26.9963 12.0696 24.0698 12.0696H15.8837Z" fill="white"/>
</svg>
