<svg width="40" height="40" viewBox="0 0 40 40" fill="none" xmlns="http://www.w3.org/2000/svg">
<circle cx="20" cy="20" r="20" fill="#3796FF"/>
<path fill-rule="evenodd" clip-rule="evenodd" d="M19.1202 11.9629C18.4644 11.3303 17.5841 10.9841 16.673 11.0006L16.655 11.0007C14.7488 11.0007 13.215 12.5415 13.215 14.4407V14.4436H13.215C13.2125 15.3322 13.5559 16.1869 14.1726 16.8267C14.7774 17.4542 15.5984 17.8266 16.4676 17.8692C16.5907 17.8613 16.7201 17.861 16.844 17.8697C17.7379 17.8413 18.5862 17.4655 19.2078 16.8209C19.8404 16.1651 20.1866 15.2848 20.1702 14.3738C20.1537 13.4627 19.776 12.5955 19.1202 11.9629ZM16.646 9.00073C18.0842 8.97717 19.4732 9.52464 20.5087 10.5234C21.5463 11.5242 22.1438 12.8963 22.1698 14.3377C22.1958 15.7791 21.6482 17.1718 20.6473 18.2094C19.6465 19.247 18.2744 19.8446 16.833 19.8706C16.7938 19.8713 16.7545 19.8697 16.7155 19.8658C16.6845 19.8627 16.6285 19.8618 16.5755 19.8666C16.5342 19.8704 16.4926 19.8716 16.4511 19.8701C15.0436 19.8224 13.71 19.2286 12.7326 18.2147C11.7556 17.2011 11.2114 15.8471 11.215 14.4393C11.215 14.4388 11.215 14.4384 11.215 14.4379L12.215 14.4407H11.215C11.215 14.4402 11.215 14.4398 11.215 14.4393C11.2158 11.4421 13.6369 9.00558 16.646 9.00073ZM16.646 9.00073C16.643 9.00078 16.64 9.00083 16.637 9.00089L16.655 10.0007V9.00072C16.652 9.00072 16.649 9.00073 16.646 9.00073ZM23.065 12.0007C23.065 11.4484 23.5127 11.0007 24.065 11.0007C26.5591 11.0007 28.565 13.0203 28.565 15.5007C28.565 17.9313 26.6369 19.91 24.2324 20C24.1815 20.0019 24.1305 19.9999 24.08 19.9941C24.07 19.9929 24.06 19.9929 24.05 19.9941C23.5014 20.0576 23.0052 19.6644 22.9416 19.1158C22.8781 18.5671 23.2713 18.0709 23.82 18.0074C23.9514 17.9921 24.0839 17.9892 24.2158 17.9986C25.5241 17.9193 26.565 16.8304 26.565 15.5007C26.565 14.1211 25.4509 13.0007 24.065 13.0007C23.5127 13.0007 23.065 12.553 23.065 12.0007ZM16.8275 20.1882C18.793 20.1882 20.8102 20.6807 22.3795 21.7285C23.7979 22.6724 24.64 24.0177 24.64 25.492C24.64 26.9658 23.7984 28.3131 22.3813 29.2617L22.3811 29.2618C20.8071 30.315 18.7871 30.8107 16.82 30.8107C14.8532 30.8107 12.8336 30.3151 11.2597 29.2624C9.84178 28.3185 9 26.9735 9 25.4995C9 24.0256 9.84159 22.6784 11.2587 21.7297L11.2624 21.7273L11.2624 21.7273C12.8403 20.6811 14.8612 20.1882 16.8275 20.1882ZM12.3695 23.3929C11.368 24.064 11 24.8462 11 25.4995C11 26.1525 11.3677 26.932 12.3689 27.5981L12.3711 27.5996C13.5471 28.3865 15.1571 28.8107 16.82 28.8107C18.4829 28.8107 20.0929 28.3865 21.2689 27.5996C22.2716 26.9283 22.64 26.1456 22.64 25.492C22.64 24.839 22.2723 24.0594 21.2711 23.3933L21.2696 23.3923C20.099 22.6105 18.4916 22.1882 16.8275 22.1882C15.1646 22.1882 13.5514 22.6099 12.3695 23.3929ZM25.0495 21.7809C25.1709 21.2421 25.7061 20.9038 26.2448 21.0252C27.0608 21.2091 27.8704 21.5389 28.5585 22.0633C29.5532 22.8109 30.125 23.8661 30.125 24.9957C30.125 26.1249 29.5537 27.1798 28.5596 27.9273C27.8643 28.4599 27.0421 28.804 26.199 28.9797C25.6583 29.0923 25.1287 28.7454 25.016 28.2047C24.9034 27.664 25.2504 27.1344 25.791 27.0217C26.3861 26.8978 26.9222 26.663 27.346 26.3376L27.355 26.3307L27.355 26.3307C27.9181 25.9084 28.125 25.4148 28.125 24.9957C28.125 24.5767 27.9181 24.083 27.355 23.6607L27.3481 23.6555L27.3481 23.6555C26.9369 23.3415 26.4079 23.1121 25.8052 22.9763C25.2664 22.8548 24.9281 22.3197 25.0495 21.7809Z" fill="white"/>
</svg>
