<svg width="40" height="40" viewBox="0 0 40 40" fill="none" xmlns="http://www.w3.org/2000/svg">
<circle cx="20" cy="20" r="20" fill="#F95A28"/>
<path d="M13.187 31H26.8223C28.0861 31 29.1112 29.9749 29.1112 28.7111V11.2889C29.1112 10.0251 28.0861 9 26.8223 9H17.484C17.4419 9 17.3951 9.00468 17.3529 9.01404H17.3436C17.2874 9.02809 17.2312 9.04681 17.1797 9.07489C17.1657 9.08426 17.1516 9.08894 17.1376 9.0983C17.0861 9.12638 17.0393 9.16383 16.9925 9.20596C16.9925 9.20596 16.9878 9.20596 16.9878 9.21064L11.0993 15.0945C11.0572 15.1366 11.0197 15.1881 10.987 15.2443C10.9776 15.2583 10.9729 15.2723 10.9636 15.2817C10.9355 15.3379 10.9168 15.394 10.9027 15.4502C10.8934 15.497 10.8887 15.5391 10.8887 15.586V28.7064C10.8934 29.9749 11.9231 31 13.187 31ZM27.707 11.2889V28.7111C27.707 29.1979 27.3091 29.5957 26.8223 29.5957H13.187C12.7002 29.5957 12.3023 29.1979 12.3023 28.7111V16.2928H15.9019C17.1657 16.2928 18.1908 15.2677 18.1908 14.0038V10.4043H26.8223C27.3091 10.4043 27.707 10.8021 27.707 11.2889ZM16.7819 11.3966V13.9991C16.7819 14.486 16.384 14.8838 15.8972 14.8838H13.2946L16.7819 11.3966Z" fill="white"/>
<path d="M15.6631 24.3908H17.0673V27.4053H15.6631V24.3908ZM19.3001 21.7602H20.7044V27.41H19.3001V21.7602ZM22.1976 18.8019L22.9371 18.0623V27.41H24.3414V18.0576L25.081 18.7972C25.2167 18.933 25.3993 19.0032 25.5771 19.0032C25.755 19.0032 25.9376 18.933 26.0733 18.7972C26.3495 18.521 26.3495 18.0764 26.0733 17.8049L24.1354 15.867C23.8733 15.6049 23.4052 15.6049 23.1431 15.867L21.2052 17.8049C21.1395 17.8697 21.0874 17.947 21.0518 18.0322C21.0162 18.1174 20.9979 18.2087 20.9979 18.301C20.9979 18.3934 21.0162 18.4847 21.0518 18.5699C21.0874 18.6551 21.1395 18.7323 21.2052 18.7972C21.3362 18.9293 21.5144 19.004 21.7004 19.0049C21.8865 19.0058 22.0653 18.9328 22.1976 18.8019Z" fill="white"/>
</svg>
