<svg width="40" height="40" viewBox="0 0 40 40" fill="none" xmlns="http://www.w3.org/2000/svg">
<circle cx="20" cy="20" r="20" fill="#01C9D6"/>
<path fill-rule="evenodd" clip-rule="evenodd" d="M13.053 13.053C12.3425 13.7635 11.9039 14.9065 11.9039 16.6636V21.4234C11.9039 23.7212 12.3718 24.7922 13.0067 25.3477C13.6731 25.9308 14.7766 26.1831 16.6636 26.1831H17.1396C17.4558 26.1831 17.7542 26.2809 17.9825 26.394C18.2073 26.5055 18.4719 26.6853 18.6658 26.9488L20.0907 28.8486C20.2514 29.063 20.3984 29.0961 20.4714 29.0961C20.5445 29.0961 20.6915 29.063 20.8522 28.8486L22.2838 26.9398C22.6419 26.4686 23.2062 26.1831 23.8033 26.1831H24.2792C26.0364 26.1831 27.1794 25.7445 27.8899 25.034C28.6003 24.3236 29.039 23.1806 29.039 21.4234V16.6636C29.039 14.9065 28.6003 13.7635 27.8899 13.053C27.1794 12.3425 26.0364 11.9039 24.2792 11.9039H16.6636C14.9065 11.9039 13.7635 12.3425 13.053 13.053ZM11.7067 11.7067C12.9002 10.5133 14.613 10 16.6636 10H24.2792C26.3299 10 28.0427 10.5133 29.2361 11.7067C30.4296 12.9002 30.9429 14.613 30.9429 16.6636V21.4234C30.9429 23.474 30.4296 25.1869 29.2361 26.3803C28.0427 27.5737 26.3299 28.087 24.2792 28.087H23.8068C23.8064 28.0872 23.8059 28.0874 23.8054 28.0877C23.8038 28.0885 23.8023 28.0894 23.8011 28.0904C23.8004 28.091 23.8 28.0914 23.7998 28.0917C23.7996 28.0918 23.7998 28.0917 23.7998 28.0917L22.3753 29.9909C21.9078 30.6143 21.2266 31 20.4714 31C19.7163 31 19.0351 30.6143 18.5675 29.9909L17.158 28.1115C17.152 28.1078 17.1449 28.1038 17.1369 28.0998C17.1287 28.0958 17.1206 28.0923 17.1132 28.0894C17.1108 28.0885 17.1086 28.0877 17.1066 28.087H16.6636C14.7429 28.087 12.9906 27.8634 11.753 26.7806C10.484 25.6702 10 23.8853 10 21.4234V16.6636C10 14.613 10.5133 12.9002 11.7067 11.7067Z" fill="white"/>
<path fill-rule="evenodd" clip-rule="evenodd" d="M14.7598 16.6639C14.7598 16.1381 15.186 15.7119 15.7117 15.7119H25.2312C25.757 15.7119 26.1832 16.1381 26.1832 16.6639C26.1832 17.1896 25.757 17.6158 25.2312 17.6158H15.7117C15.186 17.6158 14.7598 17.1896 14.7598 16.6639ZM14.7598 21.4236C14.7598 20.8979 15.186 20.4717 15.7117 20.4717H21.4234C21.9492 20.4717 22.3754 20.8979 22.3754 21.4236C22.3754 21.9494 21.9492 22.3756 21.4234 22.3756H15.7117C15.186 22.3756 14.7598 21.9494 14.7598 21.4236Z" fill="white"/>
</svg>
