<svg width="223" height="52" viewBox="0 0 223 52" fill="none" xmlns="http://www.w3.org/2000/svg">
<mask id="mask0_2002_3130" style="mask-type:luminance" maskUnits="userSpaceOnUse" x="0" y="0" width="223" height="52">
<path d="M222.868 0H0V51.9983H222.868V0Z" fill="white"/>
</mask>
<g mask="url(#mask0_2002_3130)">
<path d="M36.0145 21.2385C35.9316 21.2385 35.8505 21.2064 35.788 21.1439L31.6671 17.0263C31.542 16.9012 31.542 16.6984 31.6671 16.5733L33.7275 14.5129C33.7884 14.452 33.8695 14.4182 33.954 14.4182C34.0385 14.4182 34.1213 14.452 34.1805 14.5129L38.3014 18.6304C38.3623 18.6913 38.3961 18.7724 38.3961 18.8569C38.3961 18.9414 38.3623 19.0242 38.3014 19.0834L36.241 21.1439C36.1784 21.2064 36.0956 21.2385 36.0145 21.2385ZM32.3482 16.7998L36.0145 20.4644L37.6202 18.8569L33.954 15.1924L32.3482 16.7998Z" fill="#02440A"/>
<path d="M18.8519 38.3916C18.7674 38.3916 18.6846 38.3578 18.6254 38.297L14.5079 34.1794C14.3828 34.0543 14.3828 33.8515 14.5079 33.7264L16.5666 31.6676C16.6867 31.5476 16.8996 31.5476 17.0196 31.6676L21.1372 35.7852C21.2623 35.9103 21.2623 36.1131 21.1372 36.2382L19.0784 38.297C19.0176 38.3578 18.9364 38.3916 18.8519 38.3916ZM15.1874 33.9529L18.8519 37.6175L20.4577 36.0117L16.7931 32.3471L15.1874 33.9529Z" fill="#02440A"/>
<path d="M8.55634 52.0001C7.97658 52.0001 7.39681 51.7804 6.95564 51.3392L1.46559 45.8475C1.03964 45.4232 0.804688 44.8553 0.804688 44.2484C0.804688 43.6416 1.03964 43.0737 1.46559 42.6494C2.21946 41.8939 2.8381 41.2769 2.8381 41.2769C2.96318 41.1518 3.16602 41.1518 3.2911 41.2769L11.5262 49.5103C11.6513 49.6354 11.6513 49.8382 11.5262 49.9633C11.5262 49.9633 10.9092 50.5819 10.1554 51.3375C9.71419 51.7787 9.13442 51.9984 8.55465 51.9984L8.55634 52.0001ZM3.0646 41.9581C2.81782 42.2032 2.39694 42.6241 1.92028 43.1024C1.61433 43.4067 1.447 43.814 1.447 44.2484C1.447 44.6828 1.61433 45.0885 1.92028 45.3928L7.41033 50.8845C8.0425 51.5167 9.07188 51.5167 9.70405 50.8845C10.1807 50.4078 10.6033 49.9853 10.8484 49.7385L3.06629 41.9564L3.0646 41.9581Z" fill="#02440A"/>
<path d="M14.0482 51.9984C13.4431 51.9984 12.8752 51.7634 12.4475 51.3375L1.46741 40.3574C0.585082 39.475 0.585082 38.04 1.46741 37.156L4.21244 34.4109C4.33752 34.2859 4.54035 34.2859 4.66543 34.4109L18.3923 48.1378C18.5089 48.2544 18.5173 48.4403 18.4142 48.5671C18.4075 48.5756 18.4007 48.584 18.3923 48.5925L15.6455 51.3358C15.2213 51.7617 14.6533 51.9967 14.0482 51.9967H14.0465L14.0482 51.9984ZM4.43894 35.0921L1.92041 37.6107C1.28824 38.2428 1.28824 39.2722 1.92041 39.9044L12.9005 50.8845C13.2048 51.1887 13.6121 51.3578 14.0465 51.3578C14.4792 51.3578 14.8866 51.1887 15.1892 50.8845L17.7094 48.366L4.43894 35.0921Z" fill="#02440A"/>
<path d="M20.9108 50.6242C20.331 50.6242 19.7512 50.4044 19.3101 49.9649L2.83821 33.4931C1.95757 32.6125 1.95757 31.1774 2.83821 30.2934L6.95575 26.1758C7.08084 26.0508 7.28367 26.0508 7.40875 26.1758L26.6273 45.3927C26.6882 45.4536 26.722 45.5347 26.722 45.6192C26.722 45.7037 26.6882 45.7866 26.6273 45.8457L22.5098 49.9633C22.0686 50.4027 21.4888 50.6242 20.9091 50.6242H20.9108ZM7.18394 26.857L3.2929 30.7481C2.66242 31.3802 2.66242 32.4079 3.2929 33.0401L19.7648 49.5103C20.3969 50.1407 21.4263 50.1407 22.0585 49.5103L25.9495 45.6192L7.18563 26.857H7.18394Z" fill="#02440A"/>
<path d="M49.7363 11.6226C49.6535 11.6226 49.5724 11.5904 49.5098 11.5279L41.2764 3.29283C41.1513 3.16775 41.1513 2.96491 41.2764 2.83983C41.2764 2.83983 41.8917 2.22288 42.6489 1.46901C43.0732 1.04306 43.6395 0.808105 44.2446 0.808105H44.2463C44.8514 0.808105 45.4193 1.04306 45.847 1.46901L51.3387 6.95906C52.2194 7.84139 52.2194 9.27644 51.3387 10.1588C50.5832 10.9126 49.9645 11.5296 49.9645 11.5296C49.902 11.5921 49.8191 11.6226 49.738 11.6226H49.7363ZM41.9559 3.06633L49.7363 10.8484C49.9831 10.6033 50.4057 10.1807 50.8823 9.70409C51.5128 9.07192 51.5128 8.04422 50.8823 7.41206L45.3906 1.922C45.0846 1.61606 44.6773 1.44872 44.2446 1.44872C43.8119 1.44872 43.4062 1.61775 43.1019 1.922C42.6236 2.39867 42.2027 2.82124 41.9576 3.06633H41.9559Z" fill="#02440A"/>
<path d="M48.3678 18.4885C48.2832 18.4885 48.2004 18.4547 48.1413 18.3938L34.4263 4.67884C34.3908 4.64673 34.362 4.60785 34.3434 4.56222C34.2944 4.4422 34.3215 4.3036 34.4127 4.21233L37.1578 1.4673C37.5837 1.04135 38.1517 0.806396 38.7585 0.806396C39.3653 0.806396 39.9332 1.04135 40.3592 1.4673L51.341 12.4491C51.7669 12.8734 52.0019 13.4413 52.0019 14.0481C52.0019 14.6549 51.7669 15.2229 51.3393 15.6488L48.5942 18.3938C48.5334 18.4547 48.4523 18.4885 48.3678 18.4885ZM35.0922 4.43882L48.3661 17.7127L50.8846 15.1941C51.1905 14.8899 51.3579 14.4825 51.3579 14.0481C51.3579 13.6137 51.1905 13.208 50.8846 12.9038L39.9045 1.92199C39.6002 1.61604 39.1929 1.44871 38.7585 1.44871C38.3241 1.44871 37.9167 1.61604 37.6125 1.92199L35.0956 4.43882H35.0922Z" fill="#02440A"/>
<path d="M45.619 26.7235C45.5361 26.7235 45.455 26.6914 45.3925 26.6288L26.1739 7.41193C26.0488 7.28685 26.0488 7.08402 26.1739 6.95894L30.2914 2.83802C31.1754 1.95569 32.6105 1.95569 33.4928 2.83802L49.9647 19.3116C50.3906 19.7375 50.6256 20.3054 50.6256 20.9106C50.6256 21.5157 50.3906 22.0853 49.9647 22.5113L45.8471 26.6288C45.7846 26.6914 45.7018 26.7235 45.6206 26.7235H45.619ZM26.8534 7.18544L45.619 25.9493L49.51 22.0583C49.8159 21.7523 49.9833 21.3467 49.9833 20.9123C49.9833 20.4779 49.8142 20.0722 49.51 19.7662L33.0381 3.2927C32.406 2.66054 31.3783 2.66054 30.7444 3.2927L26.8551 7.18544H26.8534Z" fill="#02440A"/>
<path d="M22.9628 49.3818C22.8783 49.3818 22.7954 49.348 22.7363 49.2871L3.52447 30.0635C3.39939 29.9384 3.39939 29.7356 3.52447 29.6105L4.89868 28.238C4.95953 28.1771 5.04066 28.1433 5.12518 28.1433C5.20969 28.1433 5.29252 28.1771 5.35168 28.238L24.5618 47.4616C24.6869 47.5867 24.6869 47.7895 24.5618 47.9146L23.1876 49.2871C23.1267 49.348 23.0456 49.3818 22.9611 49.3818H22.9628ZM4.20566 29.837L22.9628 48.6076L23.8823 47.6881L5.12518 28.9175L4.20566 29.837Z" fill="#02440A"/>
<path d="M47.6758 24.6715C47.593 24.6715 47.5118 24.6394 47.4493 24.5768L28.2392 5.35487C28.1783 5.29402 28.1445 5.21288 28.1445 5.12837C28.1445 5.04386 28.1783 4.96103 28.2392 4.90187L29.6134 3.52936C29.7385 3.40428 29.9413 3.40428 30.0664 3.52936L49.2748 22.7513C49.3357 22.8122 49.3695 22.8933 49.3695 22.9778C49.3695 23.0623 49.3357 23.1451 49.2748 23.2043L47.9006 24.5768C47.8381 24.6394 47.7552 24.6715 47.6741 24.6715H47.6758ZM28.9204 5.12837L47.6758 23.8973L48.5953 22.9778L29.8399 4.21054L28.9204 5.13006V5.12837Z" fill="#02440A"/>
<path d="M45.621 49.8233C44.4986 49.8233 43.4422 49.3855 42.6478 48.5928L39.9027 45.8477C32.0683 38.0132 25.1871 30.1703 20.5101 23.7438C16.947 23.7016 13.6019 22.2936 11.0732 19.77L0.0947875 8.7848C-0.0302938 8.65972 -0.0302938 8.45688 0.0947875 8.3318C0.219869 8.20672 0.422703 8.20672 0.547785 8.3318L8.78286 16.5686C9.08881 16.8745 9.49617 17.0435 9.93057 17.0435C10.365 17.0435 10.7706 16.8745 11.0766 16.5686C11.7003 15.9449 11.7071 14.9341 11.0969 14.3002C11.0884 14.2934 11.0817 14.285 11.0732 14.2782L2.83812 6.03977C2.71304 5.91469 2.71304 5.71186 2.83812 5.58677C2.96321 5.46169 3.16604 5.46169 3.29112 5.58677L11.5279 13.8235C11.5279 13.8235 11.5431 13.8388 11.5499 13.8455C11.8541 14.1379 12.2513 14.2985 12.6739 14.2985C13.0965 14.2985 13.514 14.1295 13.8199 13.8235C14.1276 13.5159 14.2949 13.1086 14.2949 12.6742C14.2949 12.2414 14.1259 11.8375 13.8199 11.5332L5.58484 3.29306C5.45976 3.16797 5.45976 2.96514 5.58484 2.84006C5.70992 2.71498 5.91276 2.71498 6.03784 2.84006L14.2729 11.0785C14.9051 11.709 15.9328 11.709 16.5649 11.0785C16.8709 10.7726 17.0399 10.3652 17.0399 9.9325C17.0399 9.49979 16.8709 9.09243 16.5649 8.78649L8.32987 0.548029C8.20479 0.422947 8.20479 0.220113 8.32987 0.0950316C8.45495 -0.0300496 8.65778 -0.0300496 8.78286 0.0950316L19.7664 11.0785C22.2916 13.6038 23.698 16.9489 23.7402 20.5137C30.1684 25.1907 38.013 32.0702 45.8458 39.9047L48.5925 42.6463C50.2321 44.2859 50.2321 46.9515 48.5925 48.5911C47.7998 49.3855 46.7433 49.8216 45.621 49.8216V49.8233ZM9.89676 17.6842L11.5262 19.3153C13.972 21.7578 17.2208 23.1032 20.6723 23.1032C20.7755 23.1032 20.8718 23.1522 20.9327 23.2351C25.5928 29.6598 32.4908 37.5298 40.3557 45.3947L43.1008 48.1398C43.7735 48.8125 44.6694 49.1827 45.621 49.1827C46.5726 49.1827 47.4668 48.8125 48.1395 48.1398C49.5289 46.7503 49.5289 44.4904 48.1395 43.101L45.3928 40.3594C37.5279 32.4945 29.6579 25.5981 23.2314 20.938C23.1486 20.8771 23.0996 20.7808 23.0996 20.6777C23.0996 17.2227 21.7541 13.974 19.3117 11.5315L17.6805 9.90039C17.6805 9.91053 17.6805 9.92067 17.6805 9.93081C17.6805 10.5359 17.4456 11.1039 17.0179 11.5315C16.4365 12.1113 15.6133 12.309 14.8679 12.1231C14.9118 12.3006 14.9355 12.4848 14.9355 12.6725C14.9355 13.2776 14.7006 13.8472 14.2729 14.2765C13.8453 14.7042 13.2773 14.9391 12.6739 14.9391C12.4863 14.9391 12.3004 14.9155 12.1229 14.8715C12.3088 15.6169 12.111 16.4384 11.5313 17.0199C11.0969 17.456 10.512 17.6892 9.89845 17.6825L9.89676 17.6842Z" fill="#02440A"/>
<path d="M30.6055 26.6407C30.5294 26.6407 30.4567 26.6137 30.3993 26.5663C28.8087 25.2344 27.2756 24.0005 25.8456 22.9001C25.7729 22.8443 25.7273 22.7581 25.7205 22.6668C25.7138 22.5756 25.7493 22.4843 25.8135 22.4201L31.667 16.5683C31.7278 16.5074 31.809 16.4736 31.8935 16.4736C31.978 16.4736 32.0608 16.5074 32.12 16.5683L36.2375 20.6892C36.3626 20.8143 36.3626 21.0171 36.2375 21.1422L30.8303 26.5477C30.7694 26.6086 30.6883 26.6424 30.6038 26.6424L30.6055 26.6407ZM26.5251 22.6144C27.8114 23.61 29.1738 24.7087 30.5852 25.8852L35.558 20.914L31.8935 17.2478L26.5251 22.6144Z" fill="#02440A"/>
<path d="M20.9105 36.3328C20.826 36.3328 20.7432 36.299 20.684 36.2382L16.5665 32.1206C16.4414 31.9955 16.4414 31.7927 16.5665 31.6676L22.4013 25.8328C22.4368 25.7922 22.4842 25.7601 22.5382 25.7415C22.6684 25.6975 22.8121 25.7415 22.8966 25.8497C24.0088 27.2881 25.2427 28.8195 26.5645 30.4016C26.671 30.5284 26.6626 30.716 26.5459 30.8343L21.1387 36.2415C21.0778 36.3024 20.9967 36.3362 20.9122 36.3362L20.9105 36.3328ZM17.246 31.8941L20.9105 35.5587L25.8833 30.5858C24.7137 29.1829 23.615 27.8205 22.6109 26.5292L17.246 31.8941Z" fill="#02440A"/>
<mask id="mask1_2002_3130" style="mask-type:luminance" maskUnits="userSpaceOnUse" x="65" y="8" width="158" height="18">
<path d="M78.9366 25.1025L77.723 21.6577H70.7066L69.493 25.1025H65.9434L72.0926 8.39905H76.3352L82.4845 25.1025H78.9349H78.9366ZM71.7241 18.7554H76.7071L74.2224 11.6698L71.7258 18.7554H71.7241ZM92.9288 25.3323C88.0151 25.3323 84.3861 21.9923 84.3861 16.744C84.3861 11.4957 88.0151 8.16748 92.9288 8.16748C96.6508 8.16748 99.6342 10.0741 100.824 13.2417L97.5872 14.4199C96.8469 12.4777 95.0788 11.3571 92.9288 11.3571C90.0502 11.3571 87.8427 13.3685 87.8427 16.744C87.8427 20.1195 90.0502 22.1428 92.9288 22.1428C95.0788 22.1428 96.8469 21.0103 97.5872 19.0681L100.824 20.2463C99.6342 23.4139 96.6508 25.3323 92.9288 25.3323ZM115.383 25.1008L114.169 21.656H107.153L105.939 25.1008H102.389L108.539 8.39736H112.781L118.93 25.1008H115.381H115.383ZM108.17 18.7538H113.151L110.667 11.6681L108.17 18.7538ZM121.978 25.1008V8.39905H128.024C133.352 8.39905 135.989 11.7509 135.989 16.7457C135.989 21.7405 133.354 25.1025 128.024 25.1025H121.978V25.1008ZM125.447 22.038H127.85C130.925 22.038 132.334 20.1195 132.334 16.744C132.334 13.3685 130.925 11.45 127.85 11.45H125.447V22.0397V22.038ZM149.462 11.45H143.267V15.2413H148.757V18.2585H143.267V22.038H149.462V25.1008H139.775V8.39905H149.462V11.4517V11.45ZM164.981 8.39736H168.437V25.1008H164.426L157.028 13.1589V25.1008H153.571V8.39905H157.537L164.981 20.2699V8.39905V8.39736ZM179.482 25.3323C175.817 25.3323 172.95 23.4595 172.95 19.2524V8.39905H176.419V18.7791C176.419 21.3213 177.771 22.2696 179.482 22.2696C181.192 22.2696 182.568 21.3112 182.568 18.7791V8.39905H186.037V19.2541C186.037 23.4612 183.158 25.334 179.482 25.334V25.3323ZM200.237 8.39736V11.45H196.271V25.1025H192.838V11.45H188.851V8.39736H200.237ZM212.217 25.1008L207.872 17.7497H206.866V25.1008H203.398V8.39905H209.454C213.233 8.39905 214.829 10.6302 214.829 13.3938C214.829 15.6369 213.558 17.0922 211.293 17.579L216.321 25.1042H212.217V25.1008ZM206.866 11.2759V15.2633H208.911C210.76 15.2633 211.513 14.4773 211.513 13.2755C211.513 12.0737 210.76 11.2759 208.911 11.2759H206.866ZM219.401 25.1008V8.39905H222.87V25.1025H219.401V25.1008Z" fill="white"/>
</mask>
<g mask="url(#mask1_2002_3130)">
<path d="M220.207 8.39917H219.399V25.1043H220.207V8.39917Z" fill="#57A32B"/>
<path d="M221.539 8.39917H220.209V25.1043H221.539V8.39917Z" fill="#58A42C"/>
<path d="M222.87 8.39917H221.54V25.1043H222.87V8.39917Z" fill="#59A52C"/>
<path d="M206.91 11.2776H206.864V15.265H206.91V11.2776Z" fill="#509928"/>
<path d="M208.24 11.2776H206.91V15.265H208.24V11.2776Z" fill="#519A29"/>
<path d="M209.57 11.2776H208.24V15.265H209.57V11.2776Z" fill="#519B29"/>
<path d="M210.901 11.2776H209.57V15.265H210.901V11.2776Z" fill="#529C29"/>
<path d="M211.513 11.2776H210.901V15.265H211.513V11.2776Z" fill="#539D29"/>
<path d="M204.25 8.39917H203.396V25.1043H204.25V8.39917Z" fill="#4E9728"/>
<path d="M205.581 8.39917H204.251V25.1043H205.581V8.39917Z" fill="#4F9828"/>
<path d="M206.91 8.39917H205.58V25.1043H206.91V8.39917Z" fill="#509928"/>
<path d="M208.24 8.39917H206.91V25.1043H208.24V8.39917Z" fill="#519A29"/>
<path d="M209.57 8.39917H208.24V25.1043H209.57V8.39917Z" fill="#519B29"/>
<path d="M210.901 8.39917H209.57V25.1043H210.901V8.39917Z" fill="#529C29"/>
<path d="M212.232 8.39917H210.901V25.1043H212.232V8.39917Z" fill="#539D29"/>
<path d="M213.56 8.39917H212.229V25.1043H213.56V8.39917Z" fill="#549E2A"/>
<path d="M214.89 8.39917H213.56V25.1043H214.89V8.39917Z" fill="#549F2A"/>
<path d="M216.22 8.39917H214.89V25.1043H216.22V8.39917Z" fill="#55A02A"/>
<path d="M216.322 8.39917H216.221V25.1043H216.322V8.39917Z" fill="#56A12B"/>
<path d="M189.622 8.39917H188.85V25.1026H189.622V8.39917Z" fill="#468C24"/>
<path d="M190.952 8.39917H189.622V25.1026H190.952V8.39917Z" fill="#478D24"/>
<path d="M192.282 8.39917H190.952V25.1026H192.282V8.39917Z" fill="#488E25"/>
<path d="M193.612 8.39917H192.282V25.1026H193.612V8.39917Z" fill="#488F25"/>
<path d="M194.943 8.39917H193.612V25.1026H194.943V8.39917Z" fill="#499025"/>
<path d="M196.272 8.39917H194.941V25.1026H196.272V8.39917Z" fill="#4A9126"/>
<path d="M197.602 8.39917H196.271V25.1026H197.602V8.39917Z" fill="#4B9226"/>
<path d="M198.932 8.39917H197.602V25.1026H198.932V8.39917Z" fill="#4B9326"/>
<path d="M200.237 8.39917H198.932V25.1026H200.237V8.39917Z" fill="#4C9427"/>
<path d="M173.664 8.39917H172.949V25.3342H173.664V8.39917Z" fill="#3D8020"/>
<path d="M174.994 8.39917H173.664V25.3342H174.994V8.39917Z" fill="#3E8121"/>
<path d="M176.324 8.39917H174.994V25.3342H176.324V8.39917Z" fill="#3F8221"/>
<path d="M177.654 8.39917H176.324V25.3342H177.654V8.39917Z" fill="#3F8321"/>
<path d="M178.984 8.39917H177.653V25.3342H178.984V8.39917Z" fill="#408422"/>
<path d="M180.314 8.39917H178.983V25.3342H180.314V8.39917Z" fill="#418522"/>
<path d="M181.644 8.39917H180.313V25.3342H181.644V8.39917Z" fill="#428622"/>
<path d="M182.974 8.39917H181.644V25.3342H182.974V8.39917Z" fill="#428723"/>
<path d="M184.303 8.39917H182.973V25.3342H184.303V8.39917Z" fill="#438823"/>
<path d="M185.633 8.39917H184.303V25.3342H185.633V8.39917Z" fill="#448923"/>
<path d="M186.037 8.39917H185.633V25.3342H186.037V8.39917Z" fill="#458A23"/>
<path d="M153.717 8.39917H153.571V25.1043H153.717V8.39917Z" fill="#32711C"/>
<path d="M155.045 8.39917H153.715V25.1043H155.045V8.39917Z" fill="#33721C"/>
<path d="M156.376 8.39917H155.046V25.1043H156.376V8.39917Z" fill="#33731C"/>
<path d="M157.706 8.39917H156.376V25.1043H157.706V8.39917Z" fill="#34741D"/>
<path d="M159.036 8.39917H157.706V25.1043H159.036V8.39917Z" fill="#35751D"/>
<path d="M160.366 8.39917H159.036V25.1043H160.366V8.39917Z" fill="#36761D"/>
<path d="M161.695 8.39917H160.365V25.1043H161.695V8.39917Z" fill="#36771D"/>
<path d="M163.026 8.39917H161.695V25.1043H163.026V8.39917Z" fill="#37781E"/>
<path d="M164.356 8.39917H163.025V25.1043H164.356V8.39917Z" fill="#38791E"/>
<path d="M165.686 8.39917H164.355V25.1043H165.686V8.39917Z" fill="#397A1E"/>
<path d="M167.014 8.39917H165.684V25.1043H167.014V8.39917Z" fill="#397B1F"/>
<path d="M168.345 8.39917H167.015V25.1043H168.345V8.39917Z" fill="#3A7C1F"/>
<path d="M168.436 8.39917H168.345V25.1043H168.436V8.39917Z" fill="#3B7D1F"/>
<path d="M140.418 8.39917H139.775V25.1026H140.418V8.39917Z" fill="#2A6618"/>
<path d="M141.748 8.39917H140.418V25.1026H141.748V8.39917Z" fill="#2B6719"/>
<path d="M143.078 8.39917H141.748V25.1026H143.078V8.39917Z" fill="#2C6819"/>
<path d="M144.406 8.39917H143.076V25.1026H144.406V8.39917Z" fill="#2D6919"/>
<path d="M145.737 8.39917H144.407V25.1026H145.737V8.39917Z" fill="#2D6B1A"/>
<path d="M147.068 8.39917H145.737V25.1026H147.068V8.39917Z" fill="#2E6C1A"/>
<path d="M148.398 8.39917H147.067V25.1026H148.398V8.39917Z" fill="#2F6D1A"/>
<path d="M149.46 8.39917H148.396V25.1026H149.46V8.39917Z" fill="#306E1B"/>
<path d="M125.789 11.45H125.447V22.0396H125.789V11.45Z" fill="#225B15"/>
<path d="M127.118 11.45H125.788V22.0396H127.118V11.45Z" fill="#235C15"/>
<path d="M128.448 11.45H127.118V22.0396H128.448V11.45Z" fill="#245D16"/>
<path d="M129.779 11.45H128.449V22.0396H129.779V11.45Z" fill="#245E16"/>
<path d="M131.11 11.45H129.779V22.0396H131.11V11.45Z" fill="#255F16"/>
<path d="M132.335 11.45H131.107V22.0396H132.335V11.45Z" fill="#266016"/>
<path d="M123.13 8.39917H121.979V25.1026H123.13V8.39917Z" fill="#215914"/>
<path d="M124.46 8.39917H123.13V25.1026H124.46V8.39917Z" fill="#215A15"/>
<path d="M125.79 8.39917H124.46V25.1026H125.79V8.39917Z" fill="#225B15"/>
<path d="M127.118 8.39917H125.788V25.1026H127.118V8.39917Z" fill="#235C15"/>
<path d="M128.448 8.39917H127.118V25.1026H128.448V8.39917Z" fill="#245D16"/>
<path d="M129.779 8.39917H128.449V25.1026H129.779V8.39917Z" fill="#245E16"/>
<path d="M131.11 8.39917H129.779V25.1026H131.11V8.39917Z" fill="#255F16"/>
<path d="M132.438 8.39917H131.107V25.1026H132.438V8.39917Z" fill="#266016"/>
<path d="M133.768 8.39917H132.438V25.1026H133.768V8.39917Z" fill="#276117"/>
<path d="M135.099 8.39917H133.769V25.1026H135.099V8.39917Z" fill="#276217"/>
<path d="M135.989 8.39917H135.099V25.1026H135.989V8.39917Z" fill="#286317"/>
<path d="M108.5 11.6697H108.17V18.7554H108.5V11.6697Z" fill="#184E11"/>
<path d="M109.83 11.6697H108.5V18.7554H109.83V11.6697Z" fill="#194F11"/>
<path d="M111.16 11.6697H109.83V18.7554H111.16V11.6697Z" fill="#1A5011"/>
<path d="M112.49 11.6697H111.16V18.7554H112.49V11.6697Z" fill="#1B5112"/>
<path d="M113.154 11.6697H112.491V18.7554H113.154V11.6697Z" fill="#1B5212"/>
<path d="M103.181 8.39917H102.392V25.1026H103.181V8.39917Z" fill="#154A10"/>
<path d="M104.511 8.39917H103.181V25.1026H104.511V8.39917Z" fill="#164B10"/>
<path d="M105.841 8.39917H104.511V25.1026H105.841V8.39917Z" fill="#174C10"/>
<path d="M107.171 8.39917H105.841V25.1026H107.171V8.39917Z" fill="#184D10"/>
<path d="M108.502 8.39917H107.172V25.1026H108.502V8.39917Z" fill="#184E11"/>
<path d="M109.83 8.39917H108.5V25.1026H109.83V8.39917Z" fill="#194F11"/>
<path d="M111.16 8.39917H109.83V25.1026H111.16V8.39917Z" fill="#1A5011"/>
<path d="M112.49 8.39917H111.16V25.1026H112.49V8.39917Z" fill="#1B5112"/>
<path d="M113.821 8.39917H112.491V25.1026H113.821V8.39917Z" fill="#1B5212"/>
<path d="M115.15 8.39917H113.819V25.1026H115.15V8.39917Z" fill="#1C5312"/>
<path d="M116.48 8.39917H115.149V25.1026H116.48V8.39917Z" fill="#1D5413"/>
<path d="M117.81 8.39917H116.479V25.1026H117.81V8.39917Z" fill="#1E5513"/>
<path d="M118.935 8.39917H117.811V25.1026H118.935V8.39917Z" fill="#1E5613"/>
<path d="M84.5625 8.16748H84.3867V25.334H84.5625V8.16748Z" fill="#0B3C0B"/>
<path d="M85.8937 8.16748H84.5635V25.334H85.8937V8.16748Z" fill="#0C3D0B"/>
<path d="M87.2228 8.16748H85.8926V25.334H87.2228V8.16748Z" fill="#0C3E0C"/>
<path d="M88.5529 8.16748H87.2227V25.334H88.5529V8.16748Z" fill="#0D3F0C"/>
<path d="M89.883 8.16748H88.5527V25.334H89.883V8.16748Z" fill="#0E400C"/>
<path d="M91.2131 8.16748H89.8828V25.334H91.2131V8.16748Z" fill="#0F410D"/>
<path d="M92.5422 8.16748H91.2119V25.334H92.5422V8.16748Z" fill="#0F420D"/>
<path d="M93.8722 8.16748H92.542V25.334H93.8722V8.16748Z" fill="#10430D"/>
<path d="M95.2023 8.16748H93.8721V25.334H95.2023V8.16748Z" fill="#11440E"/>
<path d="M96.5324 8.16748H95.2021V25.334H96.5324V8.16748Z" fill="#12450E"/>
<path d="M97.8615 8.16748H96.5312V25.334H97.8615V8.16748Z" fill="#12460E"/>
<path d="M99.1916 8.16748H97.8613V25.334H99.1916V8.16748Z" fill="#13470F"/>
<path d="M100.522 8.16748H99.1914V25.334H100.522V8.16748Z" fill="#14480F"/>
<path d="M100.826 8.16748H100.521V25.334H100.826V8.16748Z" fill="#15490F"/>
<path d="M72.5951 11.6697H71.7246V18.7554H72.5951V11.6697Z" fill="#043308"/>
<path d="M73.925 11.6697H72.5947V18.7554H73.925V11.6697Z" fill="#053409"/>
<path d="M75.2541 11.6697H73.9238V18.7554H75.2541V11.6697Z" fill="#063509"/>
<path d="M76.5842 11.6697H75.2539V18.7554H76.5842V11.6697Z" fill="#063609"/>
<path d="M76.7074 11.6697H76.584V18.7554H76.7074V11.6697Z" fill="#07370A"/>
<path d="M67.2756 8.39917H65.9453V25.1026H67.2756V8.39917Z" fill="#012F07"/>
<path d="M68.6056 8.39917H67.2754V25.1026H68.6056V8.39917Z" fill="#023007"/>
<path d="M69.9347 8.39917H68.6045V25.1026H69.9347V8.39917Z" fill="#033108"/>
<path d="M71.2648 8.39917H69.9346V25.1026H71.2648V8.39917Z" fill="#033208"/>
<path d="M72.5949 8.39917H71.2646V25.1026H72.5949V8.39917Z" fill="#043308"/>
<path d="M73.925 8.39917H72.5947V25.1026H73.925V8.39917Z" fill="#053409"/>
<path d="M75.2541 8.39917H73.9238V25.1026H75.2541V8.39917Z" fill="#063509"/>
<path d="M76.5842 8.39917H75.2539V25.1026H76.5842V8.39917Z" fill="#063609"/>
<path d="M77.9142 8.39917H76.584V25.1026H77.9142V8.39917Z" fill="#07370A"/>
<path d="M79.2443 8.39917H77.9141V25.1026H79.2443V8.39917Z" fill="#08380A"/>
<path d="M80.5734 8.39917H79.2432V25.1026H80.5734V8.39917Z" fill="#09390A"/>
<path d="M81.9035 8.39917H80.5732V25.1026H81.9035V8.39917Z" fill="#093A0A"/>
<path d="M82.4865 8.39917H81.9033V25.1026H82.4865V8.39917Z" fill="#0A3B0B"/>
</g>
<path d="M66.8223 33.3884V37.9776H71.381V38.7805H66.8223V43.8834H65.9434V32.523H71.4571V33.3867H66.8223V33.3884ZM72.336 43.8851V32.5264H73.3062V43.8851H72.336ZM80.9396 44.0981L79.895 43.1887C79.2493 43.7448 78.4971 44.022 77.6385 44.022C77.2142 44.022 76.8288 43.9595 76.4789 43.8327C76.1307 43.706 75.8298 43.5166 75.578 43.2648C75.3261 43.0112 75.1284 42.6969 74.9881 42.3182C74.8478 41.9396 74.7751 41.5035 74.7751 41.0083V35.405C74.7751 34.3959 75.0371 33.6454 75.5628 33.1552C76.0885 32.665 76.8237 32.4199 77.7737 32.4199C78.1878 32.4199 78.5681 32.4824 78.9163 32.6092C79.2645 32.736 79.5671 32.9219 79.8257 33.1687C80.0826 33.4155 80.2821 33.7265 80.424 34.1001C80.5643 34.4736 80.637 34.9029 80.637 35.3864V41.0066C80.637 41.5711 80.5255 42.112 80.304 42.6276L81.3943 43.5369L80.9396 44.0964V44.0981ZM79.8341 35.2376C79.8341 34.9858 79.802 34.7305 79.7361 34.4719C79.6702 34.215 79.5586 33.98 79.4031 33.7688C79.2459 33.5575 79.0329 33.3851 78.7591 33.2549C78.487 33.1231 78.1489 33.0588 77.7449 33.0588C77.3004 33.0588 76.937 33.1163 76.6547 33.2329C76.3724 33.3496 76.1527 33.5101 75.9955 33.718C75.8383 33.9243 75.7301 34.1727 75.6693 34.4601C75.6084 34.7474 75.578 35.0635 75.578 35.4066V41.0708C75.578 41.3328 75.6186 41.5965 75.6997 41.8585C75.7808 42.1205 75.9059 42.3639 76.0783 42.5853C76.249 42.8067 76.4671 42.9859 76.7291 43.1228C76.9911 43.2597 77.3105 43.3273 77.6824 43.3273C77.985 43.3273 78.2672 43.2783 78.5309 43.1837C78.7929 43.0873 79.0515 42.9284 79.3034 42.707L77.6976 41.4038L78.1219 40.873L79.682 42.1154C79.7327 41.8838 79.7699 41.6962 79.7953 41.5559C79.8206 41.4156 79.8324 41.2736 79.8324 41.1316V35.2393L79.8341 35.2376ZM84.741 44.022C83.8131 44.022 83.093 43.7702 82.5825 43.2648C82.0721 42.7594 81.8185 42.0123 81.8185 41.0235V32.5264H82.6366V40.9778C82.6366 41.2195 82.6688 41.4748 82.7347 41.7435C82.8006 42.0106 82.9138 42.2523 83.0744 42.4704C83.235 42.6884 83.4514 42.8659 83.7184 43.0079C83.9855 43.1498 84.3168 43.2208 84.7106 43.2208C85.145 43.2208 85.5034 43.1583 85.7856 43.0315C86.0679 42.9048 86.2961 42.7307 86.4668 42.5092C86.6392 42.2878 86.7592 42.0241 86.8302 41.7216C86.9012 41.419 86.9367 41.0961 86.9367 40.7513V32.5281H87.7396V41.0252C87.7396 42.0343 87.4945 42.7864 87.0043 43.2817C86.5142 43.7769 85.7603 44.0237 84.741 44.0237V44.022ZM88.7994 43.8851V32.5264H94.3723V33.4053H89.5854V37.7223H94.325V38.4187H89.5854V43.0079H94.4771V43.8868H88.7977L88.7994 43.8851ZM105.019 43.8851V34.2522L102.278 40.8105L101.429 40.7953L98.7485 34.237V43.8851H98.0064V32.5247H98.7941L101.869 39.9163L104.959 32.5247H105.761V43.8851H105.018H105.019ZM112.744 43.8851L111.911 40.5384H108.216L107.382 43.8851H106.625L109.761 32.5264H110.411L113.532 43.8851H112.744ZM110.109 33.238L108.398 39.8115H111.715L110.109 33.238ZM114.259 43.8851V32.5264H115.229V43.8851H114.259ZM119.483 44.022C118.988 44.022 118.548 43.9561 118.166 43.8243C117.783 43.6924 117.46 43.4845 117.196 43.1955C116.934 42.9081 116.74 42.5312 116.613 42.0664C116.486 41.6015 116.434 41.0404 116.454 40.3862H117.364C117.364 40.7091 117.379 41.0454 117.409 41.3936C117.44 41.7418 117.521 42.0596 117.651 42.347C117.783 42.6343 117.982 42.8693 118.249 43.0501C118.516 43.231 118.888 43.3239 119.363 43.3239C119.767 43.3239 120.11 43.2631 120.393 43.1414C120.675 43.0214 120.905 42.8591 121.082 42.6563C121.258 42.4551 121.383 42.2168 121.452 41.9447C121.523 41.6708 121.559 41.3886 121.559 41.0961C121.559 40.753 121.496 40.4522 121.37 40.1952C121.243 39.9383 121.077 39.7084 120.869 39.5056C120.663 39.3044 120.42 39.1236 120.142 38.9681C119.865 38.8109 119.574 38.6723 119.272 38.5523C118.787 38.3596 118.363 38.1703 117.999 37.9843C117.636 37.7967 117.338 37.5888 117.105 37.3555C116.873 37.124 116.699 36.8535 116.583 36.5459C116.468 36.2383 116.409 35.8613 116.409 35.4168C116.409 34.4077 116.674 33.6555 117.203 33.1602C117.732 32.665 118.493 32.4182 119.483 32.4182C120.342 32.4182 121.02 32.6684 121.52 33.1687C122.02 33.669 122.27 34.4178 122.27 35.4185V36.2518H121.422V35.3424C121.422 35.0297 121.385 34.739 121.309 34.4719C121.233 34.2048 121.114 33.9699 120.952 33.7688C120.79 33.5676 120.587 33.407 120.338 33.2921C120.09 33.1772 119.796 33.118 119.453 33.118C118.645 33.118 118.067 33.331 117.719 33.7535C117.37 34.1778 117.211 34.7491 117.242 35.4641C117.252 35.7768 117.309 36.0456 117.416 36.267C117.522 36.4884 117.663 36.6828 117.84 36.8501C118.018 37.0175 118.229 37.1662 118.477 37.2964C118.726 37.4282 119 37.5584 119.304 37.6902C119.657 37.8423 120.007 38.0029 120.357 38.1753C120.705 38.3461 121.032 38.559 121.334 38.8109C121.637 39.0729 121.887 39.3788 122.085 39.727C122.282 40.0752 122.38 40.5062 122.38 41.0218C122.38 42.0224 122.125 42.7712 121.615 43.2715C121.106 43.7719 120.396 44.022 119.487 44.022H119.483ZM126.89 33.3901V37.9793H131.449V38.7821H126.89V43.8851H126.011V32.5247H131.525V33.3884H126.89V33.3901ZM134.948 44.022C133.039 44.022 132.084 43.0214 132.084 41.0235V35.4202C132.084 34.4111 132.324 33.6589 132.804 33.1636C133.284 32.6684 134.059 32.4216 135.129 32.4216C136.107 32.4216 136.832 32.6718 137.302 33.1721C137.772 33.6724 138.005 34.4111 138.005 35.3914V41.0252C138.005 41.5306 137.953 41.97 137.846 42.3419C137.74 42.7154 137.566 43.0281 137.324 43.2817C137.082 43.5335 136.766 43.7212 136.378 43.8412C135.989 43.9629 135.512 44.0237 134.946 44.0237L134.948 44.022ZM137.204 35.3745C137.204 35.1227 137.169 34.8658 137.098 34.6021C137.027 34.3384 136.91 34.1 136.749 33.882C136.587 33.664 136.373 33.4882 136.105 33.3513C135.838 33.2143 135.507 33.1467 135.113 33.1467C134.679 33.1467 134.317 33.2076 134.03 33.3276C133.742 33.4476 133.514 33.6183 133.349 33.8347C133.181 34.0527 133.063 34.3063 132.992 34.6004C132.921 34.8928 132.885 35.2106 132.885 35.5537V40.9305C132.885 41.1925 132.916 41.4613 132.977 41.7334C133.038 42.0055 133.146 42.2557 133.303 42.4839C133.46 42.7121 133.671 42.898 133.94 43.0434C134.207 43.1887 134.544 43.2631 134.948 43.2631C135.382 43.2631 135.744 43.2056 136.031 43.089C136.318 42.9724 136.548 42.8135 136.721 42.6123C136.891 42.4112 137.017 42.1712 137.091 41.8923C137.167 41.6134 137.204 41.3142 137.204 40.9914V35.3728V35.3745ZM144.883 43.8868L142.383 39.176H140.066V43.8868H139.324V32.5281H141.898C142.493 32.5281 143.004 32.616 143.428 32.7935C143.852 32.9692 144.2 33.2093 144.472 33.5135C144.746 33.8161 144.947 34.1677 145.079 34.5666C145.211 34.9655 145.275 35.3813 145.275 35.8157C145.275 36.5527 145.086 37.2169 144.707 37.8068C144.329 38.3968 143.832 38.8295 143.215 39.1016L145.88 43.8885H144.88L144.883 43.8868ZM141.793 33.2245H140.066V38.4052H141.898C142.412 38.4052 142.838 38.3275 143.171 38.1703C143.504 38.0131 143.764 37.8119 143.95 37.5634C144.136 37.315 144.268 37.0327 144.344 36.7149C144.42 36.3972 144.457 36.0709 144.457 35.7379C144.457 35.3847 144.396 35.0568 144.275 34.7542C144.153 34.4516 143.979 34.1863 143.752 33.9581C143.526 33.7316 143.247 33.5524 142.919 33.4206C142.591 33.2887 142.214 33.2245 141.79 33.2245H141.793ZM149.063 33.3614V43.8885H148.184V33.3614H145.715V32.5281H151.531V33.3614H149.062H149.063ZM152.364 43.8885V32.5281H157.937V33.407H153.15V37.724H157.89V38.4204H153.15V43.0096H158.042V43.8885H152.363H152.364ZM161.573 43.8885V32.5281H167.146V33.407H162.359V37.724H167.1V38.4204H162.359V43.0096H167.251V43.8885H161.571H161.573ZM173.887 44.0254C173.392 44.0254 172.952 43.9595 172.57 43.8277C172.186 43.6958 171.862 43.4862 171.6 43.1989C171.338 42.9115 171.143 42.5346 171.017 42.0714C170.89 41.6066 170.838 41.0454 170.858 40.3896H171.767C171.767 40.7125 171.781 41.0488 171.811 41.397C171.842 41.7452 171.923 42.063 172.055 42.3503C172.186 42.6377 172.386 42.8726 172.653 43.0535C172.92 43.2344 173.292 43.3273 173.765 43.3273C174.169 43.3273 174.512 43.2665 174.796 43.1465C175.078 43.0248 175.308 42.8642 175.484 42.6614C175.662 42.4602 175.785 42.2219 175.856 41.9497C175.925 41.6776 175.962 41.3936 175.962 41.1012C175.962 40.7581 175.898 40.4572 175.773 40.2003C175.646 39.9434 175.479 39.7135 175.273 39.5107C175.065 39.3095 174.823 39.1287 174.546 38.9731C174.269 38.816 173.978 38.6773 173.674 38.5573C173.19 38.3646 172.766 38.1753 172.403 37.9894C172.039 37.8035 171.74 37.5939 171.509 37.3606C171.277 37.129 171.101 36.8586 170.986 36.551C170.871 36.2433 170.812 35.8664 170.812 35.4235C170.812 34.4144 171.078 33.6623 171.607 33.167C172.137 32.6718 172.898 32.425 173.887 32.425C174.745 32.425 175.423 32.6751 175.924 33.1755C176.424 33.6758 176.674 34.4246 176.674 35.4252V36.2585H175.826V35.3492C175.826 35.0365 175.788 34.7457 175.712 34.4787C175.636 34.2116 175.518 33.9767 175.356 33.7755C175.195 33.5744 174.991 33.4138 174.742 33.2989C174.495 33.1822 174.2 33.1248 173.856 33.1248C173.048 33.1248 172.472 33.3377 172.122 33.762C171.774 34.1863 171.615 34.7559 171.645 35.4726C171.656 35.7853 171.715 36.054 171.82 36.2754C171.926 36.4969 172.066 36.6913 172.244 36.8586C172.421 37.0259 172.633 37.1747 172.881 37.3048C173.128 37.4367 173.403 37.5668 173.706 37.6987C174.059 37.8508 174.411 38.0114 174.759 38.1838C175.107 38.3545 175.433 38.5675 175.736 38.821C176.039 39.083 176.289 39.389 176.486 39.7372C176.684 40.0854 176.781 40.5164 176.781 41.0319C176.781 42.0326 176.527 42.7814 176.017 43.2817C175.506 43.782 174.796 44.0322 173.888 44.0322H173.887V44.0254ZM183.352 43.8885L182.519 40.5417H178.824L177.991 43.8885H177.234L180.367 32.5281H181.02L184.14 43.8885H183.352ZM180.717 33.2414L179.005 39.8149H182.321L180.717 33.2414ZM187.548 44.0254C186.618 44.0254 185.9 43.7736 185.389 43.2682C184.88 42.7628 184.625 42.0157 184.625 41.0268V32.5298H185.443V40.9812C185.443 41.2229 185.475 41.4782 185.541 41.7452C185.607 42.0123 185.72 42.2557 185.883 42.472C186.043 42.6901 186.258 42.8676 186.527 43.0096C186.794 43.1515 187.123 43.2225 187.517 43.2225C187.952 43.2225 188.31 43.16 188.594 43.0332C188.876 42.9064 189.103 42.7323 189.275 42.5109C189.448 42.2895 189.568 42.0258 189.639 41.7232C189.71 41.4207 189.745 41.0978 189.745 40.753V32.5298H190.548V41.0268C190.548 42.0359 190.303 42.7881 189.813 43.2834C189.324 43.7786 188.569 44.0254 187.549 44.0254H187.548ZM196.998 41.5863C196.927 41.899 196.824 42.1948 196.687 42.472C196.55 42.7493 196.373 42.9943 196.15 43.2073C195.926 43.4203 195.658 43.5859 195.34 43.7076C195.022 43.8293 194.65 43.8902 194.226 43.8902H191.469V32.5298H194.12C194.887 32.5298 195.531 32.7089 196.052 33.0673C196.57 33.4256 196.907 34.0291 197.059 34.8776C197.089 35.0398 197.115 35.29 197.133 35.6281C197.154 35.9661 197.171 36.3549 197.179 36.7944C197.189 37.2338 197.194 37.6953 197.194 38.1804C197.194 38.6655 197.187 39.1287 197.17 39.5732C197.155 40.0177 197.133 40.4183 197.103 40.7767C197.072 41.135 197.037 41.4055 196.996 41.5863H196.998ZM193.984 33.3022H192.228V43.0721H194.197C194.469 43.0721 194.711 43.0231 194.924 42.9284C195.135 42.8321 195.325 42.707 195.492 42.5498C195.659 42.3926 195.798 42.2185 195.908 42.0275C196.018 41.8365 196.109 41.6489 196.18 41.468C196.231 41.3362 196.275 41.0995 196.31 40.7564C196.346 40.4133 196.371 40.0211 196.386 39.5833C196.4 39.1439 196.408 38.6773 196.408 38.1821C196.408 37.6868 196.401 37.222 196.386 36.7893C196.369 36.3549 196.347 35.9712 196.317 35.6382C196.286 35.3052 196.253 35.0737 196.21 34.9418C196.15 34.761 196.07 34.5716 195.969 34.3739C195.867 34.1761 195.734 34.0003 195.568 33.8431C195.401 33.6859 195.189 33.5575 194.931 33.456C194.672 33.3546 194.358 33.3039 193.984 33.3039V33.3022ZM203.935 43.8885L203.102 40.5417H199.407L198.573 43.8885H197.816L200.95 32.5281H201.602L204.723 43.8885H203.935ZM201.3 33.2414L199.588 39.8149H202.904L201.3 33.2414ZM207.691 43.8885H207.04L203.905 32.5281H204.707L207.358 42.5701L210.069 32.5281H210.842L207.691 43.8885ZM211.447 43.8885V32.5281H217.02V33.407H212.234V37.724H216.974V38.4204H212.234V43.0096H217.126V43.8885H211.447ZM218.186 43.8885V32.5281H219.004V43.0687H222.866V43.8868H218.186V43.8885Z" fill="#02440A"/>
</g>
</svg>
