<svg width="135" height="40" viewBox="0 0 135 40" fill="none" xmlns="http://www.w3.org/2000/svg">
<g clip-path="url(#clip0_336_8926)">
<rect x="0.881836" y="0.5" width="133.518" height="39" rx="3.75" fill="#141316"/>
<path d="M25.0443 19.4617L15.1094 30.0059C15.1103 30.0078 15.1103 30.0106 15.1112 30.0125C15.4164 31.1574 16.4615 32 17.7025 32C18.1989 32 18.6646 31.8656 19.0639 31.6305L19.0957 31.6118L30.2782 25.1593L25.0443 19.4617Z" fill="#EA4335"/>
<path d="M35.0948 17.6662L35.0855 17.6597L30.2575 14.8612L24.8184 19.7013L30.2771 25.1582L35.079 22.3878C35.9206 21.9324 36.4926 21.045 36.4926 20.0223C36.4926 19.0052 35.929 18.1225 35.0948 17.6662Z" fill="#FBBC04"/>
<path d="M15.109 9.99325C15.0493 10.2135 15.0176 10.4449 15.0176 10.6838V29.3163C15.0176 29.5552 15.0493 29.7866 15.11 30.0059L25.3855 19.7313L15.109 9.99325Z" fill="#4285F4"/>
<path d="M25.118 20L30.2595 14.8594L19.0901 8.3836C18.6842 8.14006 18.2101 8.00009 17.7035 8.00009C16.4624 8.00009 15.4154 8.84456 15.1103 9.99043C15.1103 9.99137 15.1094 9.9923 15.1094 9.99323L25.118 20Z" fill="#34A853"/>
<path d="M51.1159 10.9794C51.1159 11.7185 50.8971 12.3068 50.4588 12.7461C49.9604 13.2682 49.3122 13.5293 48.5148 13.5293C47.7501 13.5293 47.101 13.2647 46.5674 12.7346C46.032 12.2054 45.7656 11.5483 45.7656 10.7651C45.7656 9.981 46.032 9.32479 46.5674 8.79471C47.101 8.26551 47.7501 8.00003 48.5148 8.00003C48.8932 8.00003 49.2566 8.07411 49.6006 8.22229C49.9454 8.37047 50.2215 8.56715 50.4288 8.81323L49.9631 9.27893C49.6129 8.86086 49.1305 8.65094 48.5148 8.65094C47.9574 8.65094 47.4758 8.84675 47.0692 9.23836C46.6626 9.63085 46.4598 10.1389 46.4598 10.7651C46.4598 11.3904 46.6626 11.8994 47.0692 12.291C47.4758 12.6835 47.9574 12.8784 48.5148 12.8784C49.1058 12.8784 49.5979 12.6817 49.9931 12.2874C50.2488 12.0308 50.3961 11.6744 50.4358 11.2158H48.5148V10.5799H51.0788C51.1035 10.7184 51.1159 10.8515 51.1159 10.9794Z" fill="white"/>
<path d="M51.1159 10.9794C51.1159 11.7185 50.8971 12.3068 50.4588 12.7461C49.9604 13.2682 49.3122 13.5293 48.5148 13.5293C47.7501 13.5293 47.101 13.2647 46.5674 12.7346C46.032 12.2054 45.7656 11.5483 45.7656 10.7651C45.7656 9.981 46.032 9.32479 46.5674 8.79471C47.101 8.26551 47.7501 8.00003 48.5148 8.00003C48.8932 8.00003 49.2566 8.07411 49.6006 8.22229C49.9454 8.37047 50.2215 8.56715 50.4288 8.81323L49.9631 9.27893C49.6129 8.86086 49.1305 8.65094 48.5148 8.65094C47.9574 8.65094 47.4758 8.84675 47.0692 9.23836C46.6626 9.63085 46.4598 10.1389 46.4598 10.7651C46.4598 11.3904 46.6626 11.8994 47.0692 12.291C47.4758 12.6835 47.9574 12.8784 48.5148 12.8784C49.1058 12.8784 49.5979 12.6817 49.9931 12.2874C50.2488 12.0308 50.3961 11.6744 50.4358 11.2158H48.5148V10.5799H51.0788C51.1035 10.7184 51.1159 10.8515 51.1159 10.9794Z" fill="white"/>
<path d="M55.1815 8.76916H52.7718V10.4467H54.9451V11.0826H52.7718V12.7602H55.1815V13.4111H52.0918V8.11912H55.1815V8.76916Z" fill="white"/>
<path d="M55.1815 8.76916H52.7718V10.4467H54.9451V11.0826H52.7718V12.7602H55.1815V13.4111H52.0918V8.11912H55.1815V8.76916Z" fill="white"/>
<path d="M58.0489 13.4109H57.3689V8.76891H55.8906V8.11888H59.5271V8.76891H58.0489V13.4109Z" fill="white"/>
<path d="M58.0489 13.4109H57.3689V8.76891H55.8906V8.11888H59.5271V8.76891H58.0489V13.4109Z" fill="white"/>
<path d="M62.1582 8.11888H62.8382V13.4109H62.1582V8.11888Z" fill="white"/>
<path d="M65.8546 13.4109H65.1745V8.76891H63.6963V8.11888H67.3328V8.76891H65.8546V13.4109Z" fill="white"/>
<path d="M65.8546 13.4109H65.1745V8.76891H63.6963V8.11888H67.3328V8.76891H65.8546V13.4109Z" fill="white"/>
<path d="M70.8382 12.2839C71.2298 12.6808 71.7087 12.8784 72.2759 12.8784C72.843 12.8784 73.3219 12.6808 73.7135 12.2839C74.1051 11.887 74.3018 11.3807 74.3018 10.7651C74.3018 10.1495 74.1051 9.64231 73.7135 9.24629C73.3219 8.84939 72.843 8.65094 72.2759 8.65094C71.7087 8.65094 71.2298 8.84939 70.8382 9.24629C70.4475 9.64231 70.2508 10.1495 70.2508 10.7651C70.2508 11.3807 70.4475 11.887 70.8382 12.2839ZM74.2163 12.7267C73.6959 13.2621 73.0494 13.5293 72.2759 13.5293C71.5023 13.5293 70.8558 13.2621 70.3363 12.7267C69.8159 12.1922 69.5566 11.5386 69.5566 10.7651C69.5566 9.99159 69.8159 9.33714 70.3363 8.80265C70.8558 8.26815 71.5023 8.00003 72.2759 8.00003C73.045 8.00003 73.6897 8.26904 74.2127 8.80618C74.7349 9.34331 74.996 9.996 74.996 10.7651C74.996 11.5386 74.7358 12.1922 74.2163 12.7267Z" fill="white"/>
<path d="M70.8382 12.2839C71.2298 12.6808 71.7087 12.8784 72.2759 12.8784C72.843 12.8784 73.3219 12.6808 73.7135 12.2839C74.1051 11.887 74.3018 11.3807 74.3018 10.7651C74.3018 10.1495 74.1051 9.64231 73.7135 9.24629C73.3219 8.84939 72.843 8.65094 72.2759 8.65094C71.7087 8.65094 71.2298 8.84939 70.8382 9.24629C70.4475 9.64231 70.2508 10.1495 70.2508 10.7651C70.2508 11.3807 70.4475 11.887 70.8382 12.2839ZM74.2163 12.7267C73.6959 13.2621 73.0494 13.5293 72.2759 13.5293C71.5023 13.5293 70.8558 13.2621 70.3363 12.7267C69.8159 12.1922 69.5566 11.5386 69.5566 10.7651C69.5566 9.99159 69.8159 9.33714 70.3363 8.80265C70.8558 8.26815 71.5023 8.00003 72.2759 8.00003C73.045 8.00003 73.6897 8.26904 74.2127 8.80618C74.7349 9.34331 74.996 9.996 74.996 10.7651C74.996 11.5386 74.7358 12.1922 74.2163 12.7267Z" fill="white"/>
<path d="M75.9502 13.4109V8.11888H76.7775L79.3494 12.2352H79.3794L79.3494 11.2156V8.11888H80.0303V13.4109H79.3203L76.6293 9.09437H76.6002L76.6293 10.1148V13.4109H75.9502Z" fill="white"/>
<path d="M75.9502 13.4109V8.11888H76.7775L79.3494 12.2352H79.3794L79.3494 11.2156V8.11888H80.0303V13.4109H79.3203L76.6293 9.09437H76.6002L76.6293 10.1148V13.4109H75.9502Z" fill="white"/>
<path d="M103.611 28.405H105.257V17.379H103.611V28.405ZM118.435 21.3507L116.548 26.1312H116.492L114.534 21.3507H112.761L115.697 28.0319L114.024 31.7486H115.739L120.265 21.3507H118.435ZM109.101 27.1525C108.562 27.1525 107.81 26.8835 107.81 26.2158C107.81 25.3656 108.746 25.0392 109.555 25.0392C110.278 25.0392 110.619 25.1954 111.059 25.4079C110.931 26.4293 110.051 27.1525 109.101 27.1525ZM109.3 21.1099C108.108 21.1099 106.873 21.6347 106.364 22.7981L107.824 23.4075C108.136 22.7981 108.718 22.5987 109.328 22.5987C110.179 22.5987 111.044 23.1094 111.059 24.0179V24.1308C110.76 23.9605 110.123 23.7057 109.342 23.7057C107.768 23.7057 106.164 24.5709 106.164 26.1876C106.164 27.6632 107.456 28.614 108.902 28.614C110.009 28.614 110.619 28.1174 111.002 27.5353H111.059V28.3864H112.647V24.159C112.647 22.2018 111.186 21.1099 109.3 21.1099ZM99.1286 22.6931H96.7877V18.9137H99.1286C100.359 18.9137 101.058 19.9324 101.058 20.803C101.058 21.6576 100.359 22.6931 99.1286 22.6931ZM99.0862 17.379H95.1428V28.405H96.7877V24.2278H99.0862C100.91 24.2278 102.703 22.9066 102.703 20.803C102.703 18.6994 100.91 17.379 99.0862 17.379ZM77.5821 27.1543C76.4452 27.1543 75.4935 26.2026 75.4935 24.8955C75.4935 23.5742 76.4452 22.6076 77.5821 22.6076C78.7049 22.6076 79.5851 23.5742 79.5851 24.8955C79.5851 26.2026 78.7049 27.1543 77.5821 27.1543ZM79.4723 21.9681H79.4149C79.0454 21.528 78.3354 21.1302 77.4401 21.1302C75.5641 21.1302 73.8451 22.7778 73.8451 24.8955C73.8451 26.9982 75.5641 28.6325 77.4401 28.6325C78.3354 28.6325 79.0454 28.2347 79.4149 27.7796H79.4723V28.3203C79.4723 29.7553 78.7049 30.5226 77.4683 30.5226C76.4593 30.5226 75.834 29.7976 75.5782 29.1864L74.1432 29.7835C74.5551 30.7784 75.6496 32 77.4683 32C79.4008 32 81.0352 30.8631 81.0352 28.0927V21.3569H79.4723V21.9681ZM82.1721 28.405H83.8205V17.3782H82.1721V28.405ZM86.2496 24.7676C86.2072 23.3184 87.3724 22.5793 88.2103 22.5793C88.8647 22.5793 89.4186 22.9057 89.6029 23.3749L86.2496 24.7676ZM91.3652 23.5169C91.053 22.679 90.1004 21.1302 88.1538 21.1302C86.2213 21.1302 84.6161 22.6499 84.6161 24.8814C84.6161 26.9841 86.2072 28.6325 88.3382 28.6325C90.0581 28.6325 91.053 27.5812 91.4649 26.9699L90.1859 26.117C89.7599 26.7424 89.1769 27.1543 88.3382 27.1543C87.5003 27.1543 86.9031 26.7706 86.5195 26.0183L91.5354 23.9429L91.3652 23.5169ZM51.4034 22.2812V23.8723H55.211C55.0972 24.7676 54.7991 25.4211 54.3449 25.8754C53.7901 26.4302 52.9231 27.0414 51.4034 27.0414C49.0581 27.0414 47.2253 25.1513 47.2253 22.8069C47.2253 20.4616 49.0581 18.5724 51.4034 18.5724C52.6682 18.5724 53.5916 19.0698 54.2734 19.7093L55.3962 18.5865C54.4436 17.6772 53.1797 16.9804 51.4034 16.9804C48.192 16.9804 45.4922 19.5955 45.4922 22.8069C45.4922 26.0183 48.192 28.6325 51.4034 28.6325C53.1365 28.6325 54.4436 28.0636 55.4668 26.9982C56.519 25.9468 56.8453 24.4695 56.8453 23.2752C56.8453 22.9057 56.8171 22.5652 56.7598 22.2812H51.4034ZM61.1751 27.1543C60.0382 27.1543 59.0574 26.2167 59.0574 24.8814C59.0574 23.531 60.0382 22.6076 61.1751 22.6076C62.3111 22.6076 63.2919 23.531 63.2919 24.8814C63.2919 26.2167 62.3111 27.1543 61.1751 27.1543ZM61.1751 21.1302C59.0997 21.1302 57.4089 22.7072 57.4089 24.8814C57.4089 27.0414 59.0997 28.6325 61.1751 28.6325C63.2496 28.6325 64.9404 27.0414 64.9404 24.8814C64.9404 22.7072 63.2496 21.1302 61.1751 21.1302ZM69.3892 27.1543C68.2523 27.1543 67.2715 26.2167 67.2715 24.8814C67.2715 23.531 68.2523 22.6076 69.3892 22.6076C70.5261 22.6076 71.506 23.531 71.506 24.8814C71.506 26.2167 70.5261 27.1543 69.3892 27.1543ZM69.3892 21.1302C67.3147 21.1302 65.6239 22.7072 65.6239 24.8814C65.6239 27.0414 67.3147 28.6325 69.3892 28.6325C71.4637 28.6325 73.1545 27.0414 73.1545 24.8814C73.1545 22.7072 71.4637 21.1302 69.3892 21.1302Z" fill="white"/>
</g>
<defs>
<clipPath id="clip0_336_8926">
<rect width="133.518" height="39" fill="white" transform="translate(0.881836 0.5)"/>
</clipPath>
</defs>
</svg>
