<svg width="100%" height="100%" viewBox="0 0 20 24" fill="none" xmlns="http://www.w3.org/2000/svg">
<path d="M16.7139 12.7632C16.7258 11.8433 16.9701 10.9414 17.4242 10.1413C17.8783 9.34118 18.5274 8.66894 19.3111 8.18712C18.8133 7.47607 18.1565 6.8909 17.3929 6.47809C16.6293 6.06529 15.78 5.83622 14.9123 5.80907C13.0616 5.61481 11.2674 6.91653 10.3243 6.91653C9.36292 6.91653 7.91085 5.82836 6.34722 5.86053C5.33582 5.89321 4.35013 6.18731 3.4862 6.7142C2.62226 7.24108 1.90953 7.98277 1.41747 8.867C-0.714062 12.5574 0.875865 17.981 2.91769 20.9641C3.93926 22.4248 5.13318 24.0565 6.6954 23.9986C8.22412 23.9352 8.79508 23.0238 10.6404 23.0238C12.4686 23.0238 13.0042 23.9986 14.5981 23.9618C16.2385 23.9352 17.2721 22.4946 18.2578 21.0201C18.9918 19.9792 19.5566 18.8289 19.9313 17.6117C18.9783 17.2086 18.165 16.5339 17.5928 15.6717C17.0207 14.8095 16.715 13.798 16.7139 12.7632Z" fill="white"/>
<path d="M13.7031 3.84712C14.5976 2.77342 15.0382 1.39335 14.9315 0C13.565 0.14352 12.3028 0.796599 11.3963 1.82911C10.9531 2.33352 10.6136 2.92033 10.3974 3.55601C10.1811 4.19169 10.0922 4.86376 10.1358 5.53381C10.8193 5.54084 11.4954 5.3927 12.1134 5.10054C12.7313 4.80838 13.2749 4.37982 13.7031 3.84712Z" fill="white"/>
</svg>
