<svg width="100%" height="200%" viewBox="0 0 20 20" fill="none" xmlns="http://www.w3.org/2000/svg">
<g opacity="0.5">
<path fill-rule="evenodd" clip-rule="evenodd" d="M18.0817 13.1944C18.0817 14.8833 16.7079 16.255 15.0211 16.255H4.97984C3.29309 16.255 1.91922 14.8833 1.91922 13.1944V6.80524C1.91884 6.26092 2.06466 5.72648 2.34145 5.25778L7.24098 10.1573C7.97398 10.8925 8.95559 11.2975 10.0015 11.2975C11.0453 11.2975 12.0269 10.8925 12.7599 10.1573L17.6595 5.25778C17.9363 5.72648 18.0821 6.26092 18.0817 6.80524V13.1944H18.0817ZM15.0211 3.74466H4.97984C4.28328 3.74466 3.64027 3.9804 3.1259 4.37263L8.07473 9.3236C8.58699 9.83368 9.27066 10.1166 10.0015 10.1166C10.7302 10.1166 11.4139 9.83368 11.9262 9.3236L16.875 4.37263C16.3607 3.9804 15.7177 3.74466 15.0211 3.74466ZM15.0211 2.56372H4.97984C2.64152 2.56372 0.738281 4.46696 0.738281 6.80528V13.1944C0.738281 15.5349 2.64152 17.436 4.97984 17.436H15.0211C17.3594 17.436 19.2627 15.5349 19.2627 13.1944V6.80524C19.2627 4.46692 17.3594 2.56372 15.0211 2.56372Z" fill="black"/>
</g>
</svg>
