<svg width="100%" height="100%" viewBox="0 0 22 24" fill="none" xmlns="http://www.w3.org/2000/svg">
<path d="M10.0443 11.4617L0.109375 22.0059C0.110308 22.0078 0.110308 22.0106 0.111241 22.0125C0.416372 23.1574 1.46147 24 2.70252 24C3.19894 24 3.66457 23.8656 4.06394 23.6305L4.09567 23.6118L15.2782 17.1593L10.0443 11.4617Z" fill="#EA4335"/>
<path d="M20.0948 9.66619L20.0855 9.65966L15.2575 6.86123L9.81836 11.7013L15.2771 17.1582L20.079 14.3878C20.9206 13.9324 21.4926 13.045 21.4926 12.0223C21.4926 11.0052 20.929 10.1225 20.0948 9.66619Z" fill="#FBBC04"/>
<path d="M0.109024 1.99325C0.0493042 2.21347 0.0175781 2.44488 0.0175781 2.68376V21.3163C0.0175781 21.5552 0.0493042 21.7866 0.109957 22.0059L10.3855 11.7313L0.109024 1.99325Z" fill="#4285F4"/>
<path d="M10.118 12L15.2595 6.85945L4.09007 0.383602C3.68416 0.140058 3.21013 9.05991e-05 2.70345 9.05991e-05C1.4624 9.05991e-05 0.415438 0.844563 0.110308 1.99043C0.110308 1.99137 0.109375 1.9923 0.109375 1.99323L10.118 12Z" fill="#34A853"/>
</svg>
