<svg width="100%" height="100%" viewBox="0 0 40 40" fill="none" xmlns="http://www.w3.org/2000/svg">
<g clip-path="url(#clip0_336_9082)">
<path d="M36.4565 27.3005C36.4711 27.2828 36.4861 27.2657 36.5004 27.248C36.5415 27.1967 36.5817 27.1447 36.621 27.0921C36.6277 27.0832 36.6347 27.0744 36.6415 27.0653C37.3122 26.1579 37.6763 25.0635 37.6763 23.9182V3.22361C37.6763 1.44594 36.2304 0 34.453 0H15.5982C13.8209 0 12.3747 1.44594 12.3747 3.22361V10.5716C11.4854 10.5194 10.5824 10.6718 9.75869 11.0218C8.59721 11.5155 7.64931 12.3554 7.01696 13.451L3.93414 18.7898L0.851237 24.1292C0.559705 24.6332 0.346289 25.1785 0.218266 25.7466C0.176734 25.9305 0.144454 26.1164 0.121547 26.3035C0.109996 26.3966 0.100722 26.4899 0.0937341 26.5834C0.0800567 26.7694 0.0753637 26.956 0.0796715 27.1425C0.081859 27.2444 0.0876403 27.3457 0.0952966 27.4473C0.136394 27.9899 0.253176 28.524 0.442251 29.0343C0.498148 29.1837 0.56018 29.3308 0.628189 29.4752C0.640689 29.5018 0.651939 29.5289 0.664752 29.5555C1.16772 30.5914 1.97004 31.4526 2.96789 32.0274C2.99757 32.0445 3.0271 32.0604 3.05695 32.0768C3.08296 32.0912 3.1089 32.1061 3.13507 32.1202C3.15593 32.1311 3.17695 32.1415 3.19773 32.1525C3.23406 32.1711 3.27 32.19 3.30664 32.208C3.31976 32.2145 3.33289 32.2203 3.34601 32.2267C3.39086 32.2483 3.43601 32.2701 3.48156 32.2904C3.48484 32.292 3.4882 32.2933 3.49156 32.2947C4.2343 32.6287 5.03932 32.8016 5.85368 32.8022C6.69133 32.8019 7.51897 32.6202 8.27978 32.2697C8.28564 32.267 8.29142 32.2645 8.29752 32.2618C8.30299 32.2593 8.30845 32.2572 8.314 32.2544C8.48916 34.2271 9.33822 36.0609 10.7496 37.483C12.3414 39.0868 14.4618 39.9803 16.7208 39.9992H16.738C16.756 39.9995 16.7737 39.9998 16.7915 39.9998C20.6888 39.9998 23.9827 37.367 24.9882 33.7868H27.9575C28.7174 33.7868 29.4651 33.6186 30.1487 33.3086C30.1679 33.3012 30.1872 33.2942 30.2057 33.2857C30.3062 33.2382 30.4051 33.1876 30.5024 33.134C30.503 33.1336 30.5033 33.1333 30.504 33.1331C30.5792 33.0919 30.6533 33.049 30.7264 33.0043C30.7307 33.0018 30.7346 32.9991 30.7389 32.9966C30.8079 32.9541 30.876 32.9101 30.9431 32.8646C31.0239 32.8094 31.1032 32.7523 31.1811 32.6931C31.2381 32.6494 31.2942 32.6045 31.3493 32.5584C31.3624 32.5477 31.3755 32.5373 31.3884 32.5264C31.4404 32.4821 31.4915 32.4368 31.5418 32.3906C31.5559 32.3775 31.5706 32.365 31.5846 32.3518C31.6447 32.2954 31.7039 32.2377 31.7616 32.1782C31.7637 32.1758 31.7661 32.1736 31.7683 32.1711L36.1857 27.6047C36.2221 27.5672 36.2562 27.5285 36.2913 27.49C36.3097 27.4699 36.3286 27.4503 36.3468 27.4302C36.3841 27.3878 36.4201 27.3442 36.4565 27.3005ZM8.37025 14.2319C9.13103 12.9139 10.5568 12.1229 12.0403 12.1229C12.3521 12.1229 12.6671 12.158 12.9787 12.2306C13.3839 12.3253 13.7729 12.4792 14.1332 12.6874C15.435 13.4393 16.2435 14.8417 16.2435 16.3471C16.2435 17.0829 16.0482 17.8108 15.678 18.4516L12.986 23.1142L5.67797 18.8948L8.37025 14.2319ZM8.18197 30.5424C8.14712 30.565 8.11236 30.5879 8.07697 30.6096C8.06197 30.6189 8.0465 30.6275 8.03119 30.6367C8.00095 30.655 7.97048 30.673 7.93962 30.6907C7.92103 30.7011 7.90212 30.7112 7.88345 30.7215C7.85603 30.7365 7.82853 30.7514 7.8008 30.7658C7.77876 30.7771 7.7565 30.7881 7.73423 30.7991C7.71017 30.8113 7.68572 30.8229 7.66134 30.8345C7.61526 30.856 7.56888 30.8768 7.5222 30.897C7.49165 30.9101 7.46111 30.9227 7.43025 30.9349C7.4154 30.941 7.40009 30.9468 7.38509 30.9529C7.34884 30.9666 7.31243 30.9804 7.27587 30.9935C7.26821 30.9962 7.26064 30.9986 7.25298 31.0014C6.35391 31.3145 5.3636 31.3188 4.45328 30.998C4.45203 30.9978 4.45055 30.9972 4.44938 30.9968C4.40605 30.9815 4.36299 30.9655 4.32024 30.9486C4.27569 30.9311 4.23141 30.9129 4.18742 30.8939C4.17523 30.8885 4.16305 30.8833 4.15086 30.8778C4.1182 30.8637 4.08617 30.8485 4.05414 30.8336C4.00818 30.812 3.9627 30.7894 3.91773 30.7658C3.90484 30.7594 3.89203 30.753 3.87922 30.7463C3.83549 30.723 3.79215 30.699 3.74922 30.6743C1.73444 29.5106 1.04171 26.9249 2.20445 24.9101L4.89664 20.2476L12.0818 24.3962C12.0559 24.4135 12.0305 24.4316 12.0046 24.4493C11.9744 24.4696 11.9439 24.4905 11.9139 24.5112C11.9021 24.5195 11.8905 24.5274 11.8788 24.536C11.8572 24.5512 11.8358 24.567 11.8145 24.5823C11.8132 24.5832 11.8123 24.5842 11.8111 24.5848C11.7812 24.6064 11.7513 24.6278 11.7221 24.6498C11.7082 24.6599 11.6946 24.6702 11.6808 24.6806C11.6573 24.6983 11.6341 24.7163 11.6106 24.7343C11.5853 24.7538 11.5596 24.7731 11.5343 24.7929C11.5185 24.8054 11.5028 24.8179 11.4873 24.8304C11.4626 24.8499 11.4385 24.8695 11.4144 24.8893C11.3933 24.9067 11.372 24.9235 11.3509 24.9409C11.3332 24.9556 11.3157 24.9708 11.2984 24.9854L11.2234 25.0495C11.2065 25.0642 11.1892 25.0788 11.1724 25.0935C11.1528 25.1106 11.1336 25.1286 11.1144 25.146C11.0888 25.1688 11.0631 25.1917 11.0378 25.2149L10.9984 25.2506C10.9771 25.2705 10.9563 25.291 10.9353 25.311C10.909 25.3358 10.8831 25.3605 10.8574 25.3853C10.8239 25.4182 10.7906 25.4511 10.7576 25.4845C10.7329 25.5095 10.7082 25.5342 10.6835 25.5592C10.6789 25.5641 10.674 25.5689 10.6692 25.5738C10.6404 25.6038 10.6124 25.6342 10.584 25.6645C10.5617 25.6883 10.5389 25.7117 10.5168 25.7356L10.5101 25.7432C10.4799 25.7762 10.4506 25.8097 10.421 25.843C10.4015 25.8649 10.3817 25.8867 10.3624 25.9086L10.3487 25.9248C10.3221 25.9556 10.2962 25.9871 10.2699 26.0181C10.2492 26.0429 10.2285 26.0674 10.208 26.0921C10.1909 26.1131 10.1742 26.1342 10.1571 26.1552C10.1457 26.1692 10.1351 26.1833 10.1238 26.197C10.1033 26.2232 10.0823 26.2492 10.0618 26.2754C10.0551 26.2842 10.0478 26.2931 10.041 26.302C10.0199 26.3295 9.99963 26.3572 9.97908 26.385C9.96018 26.41 9.94127 26.435 9.92268 26.4603C9.91354 26.4732 9.90409 26.4857 9.89487 26.4982C9.87533 26.5253 9.85612 26.5532 9.8369 26.5803C9.82073 26.6032 9.80424 26.626 9.78846 26.6492C9.7584 26.6921 9.72908 26.7354 9.70049 26.7792L9.65963 26.8412C9.64651 26.8614 9.63338 26.8812 9.62057 26.9014C9.60338 26.9279 9.58666 26.9548 9.56986 26.9816L9.53572 27.0368C9.52104 27.0607 9.50674 27.0845 9.49236 27.1082C9.47651 27.1345 9.46065 27.161 9.4451 27.1876C9.43588 27.2035 9.42674 27.2196 9.41729 27.2358C9.40143 27.2633 9.38588 27.2907 9.37033 27.3182C9.35565 27.3445 9.34104 27.3704 9.32658 27.3967C9.32268 27.4037 9.31901 27.411 9.31502 27.4183C9.3108 27.426 9.3065 27.4339 9.30252 27.4417C9.28635 27.4717 9.27018 27.5017 9.25432 27.5316C9.23205 27.5739 9.21041 27.6167 9.18869 27.6594C9.17377 27.6887 9.15939 27.718 9.1451 27.7473C9.12339 27.7914 9.10211 27.8358 9.08127 27.8803C9.06783 27.9087 9.05502 27.9371 9.04189 27.9655L9.03736 27.9756C9.03158 27.9887 9.02541 28.0015 9.01939 28.0146C9.00619 28.0446 8.99307 28.0742 8.98033 28.104C8.96932 28.1294 8.95861 28.1547 8.94791 28.18C8.94033 28.198 8.93267 28.216 8.92533 28.2341C8.91189 28.2661 8.89877 28.2985 8.88564 28.3308C8.87713 28.3521 8.86924 28.3735 8.86064 28.3949C8.85299 28.415 8.84502 28.4349 8.83744 28.455C8.824 28.4901 8.81088 28.5249 8.79775 28.56C8.79166 28.5774 8.78557 28.5948 8.77916 28.6121C8.7715 28.6342 8.76353 28.6564 8.75595 28.6784C8.74283 28.7159 8.72939 28.7538 8.71658 28.7917L8.70377 28.8322C8.69619 28.8554 8.68853 28.8792 8.68119 28.9027C8.66427 28.9549 8.64799 29.0073 8.63236 29.0599L8.61314 29.1264C8.59752 29.1811 8.58205 29.2353 8.56736 29.2903C8.56283 29.3077 8.55853 29.3254 8.55392 29.3431C8.52556 29.4517 8.49931 29.5613 8.47549 29.6714C8.47189 29.6886 8.4676 29.7054 8.46392 29.7224C8.45298 29.7752 8.44283 29.8286 8.43283 29.8818C8.42736 29.9091 8.42181 29.9364 8.41689 29.9638C8.41603 29.9677 8.41533 29.9718 8.41455 29.976C8.40658 30.0209 8.39923 30.0661 8.39189 30.1111C8.38728 30.1396 8.38244 30.1677 8.37814 30.1961C8.37687 30.2038 8.37575 30.2117 8.37478 30.2195C8.36838 30.2617 8.36291 30.3041 8.35713 30.3462C8.35584 30.3566 8.35441 30.367 8.35283 30.3773C8.35072 30.3947 8.34798 30.4118 8.3458 30.4289C8.30189 30.4609 8.25728 30.4921 8.21244 30.5223C8.20236 30.5293 8.19197 30.5357 8.18197 30.5424ZM9.84213 31.4875C9.84213 31.2925 9.85034 31.0972 9.86744 30.9029C9.87323 30.8323 9.87994 30.7625 9.88815 30.6925C9.90315 30.5604 9.92205 30.4293 9.94463 30.2992C9.94588 30.2915 9.94674 30.2839 9.9483 30.2763C9.95713 30.226 9.9669 30.1759 9.97698 30.1258C9.98065 30.1072 9.98401 30.0886 9.98768 30.0704C9.99682 30.0261 10.0072 29.9821 10.0173 29.9382C10.0228 29.914 10.0277 29.89 10.0335 29.8661C10.0426 29.8271 10.053 29.7889 10.0628 29.7502C10.0703 29.7215 10.0771 29.6925 10.085 29.6638C10.0945 29.6284 10.1052 29.5933 10.1155 29.5579C10.1244 29.5265 10.1332 29.4947 10.1427 29.4636C10.1528 29.4307 10.1635 29.3983 10.1742 29.366C10.1848 29.3324 10.1949 29.2986 10.2062 29.2652C10.2168 29.2344 10.2281 29.2036 10.2392 29.1728C10.251 29.1386 10.2629 29.1038 10.2754 29.0696C10.2867 29.0397 10.2986 29.0104 10.3099 28.9806C10.3237 28.9457 10.3368 28.911 10.3506 28.8761C10.3621 28.8478 10.3746 28.8197 10.3865 28.7916C10.4015 28.7562 10.4158 28.7205 10.4314 28.6857C10.4433 28.6585 10.4561 28.6317 10.4683 28.6049C10.4848 28.5689 10.501 28.5328 10.5178 28.4975C10.5303 28.4718 10.5431 28.4464 10.5556 28.4209C10.5735 28.3845 10.5913 28.3479 10.6096 28.3119C10.6224 28.2869 10.6362 28.2625 10.6493 28.2377C10.6685 28.2014 10.6874 28.1654 10.707 28.1294C10.7204 28.1053 10.7344 28.0814 10.7481 28.0577C10.7686 28.0217 10.7888 27.9857 10.8099 27.9499C10.8239 27.9261 10.8385 27.903 10.8528 27.8794C10.8742 27.844 10.8956 27.8086 10.9175 27.7735C10.9325 27.7503 10.9478 27.7275 10.963 27.7043C10.9853 27.6698 11.0075 27.635 11.0307 27.6005C11.0464 27.5776 11.0622 27.5553 11.0781 27.5328C11.1015 27.4985 11.1248 27.4647 11.1489 27.4308C11.165 27.4085 11.1818 27.3866 11.1983 27.3643C11.2227 27.331 11.2471 27.2975 11.2721 27.2648C11.2892 27.2425 11.3067 27.2212 11.324 27.1992C11.3494 27.1668 11.3744 27.1342 11.4003 27.1021C11.4186 27.0802 11.4373 27.0585 11.4556 27.0365C11.4815 27.0054 11.5071 26.9743 11.5337 26.9435C11.5526 26.9215 11.5721 26.9001 11.5914 26.8785C11.6179 26.8482 11.6445 26.8183 11.6717 26.7888C11.6912 26.7671 11.7116 26.7464 11.7314 26.7249C11.7592 26.6957 11.7864 26.6664 11.8145 26.6377C11.8349 26.6166 11.8559 26.5962 11.8767 26.5754C11.9048 26.5471 11.9328 26.5187 11.9619 26.4909C11.9832 26.4701 12.0052 26.45 12.0268 26.4296C12.0559 26.4024 12.0842 26.3749 12.1135 26.3483C12.1361 26.328 12.159 26.3081 12.1815 26.2879C12.2112 26.262 12.2401 26.2357 12.2701 26.2101C12.2935 26.1897 12.3178 26.1702 12.3418 26.1503C12.3714 26.1256 12.4007 26.1006 12.4309 26.0761C12.4553 26.0566 12.4807 26.0374 12.5053 26.0178C12.5356 25.9944 12.5655 25.9703 12.5963 25.9471C12.6217 25.9278 12.6476 25.9092 12.6732 25.8903C12.704 25.8677 12.7346 25.8449 12.7657 25.8225C12.7919 25.8039 12.8188 25.786 12.8453 25.7676C12.8768 25.746 12.9078 25.724 12.9396 25.7026C12.9668 25.6846 12.9946 25.6669 13.0224 25.6492C13.0538 25.6288 13.0852 25.608 13.1172 25.5881C13.1457 25.5705 13.1746 25.5534 13.2033 25.536C13.2347 25.5171 13.2658 25.4975 13.2978 25.4792L13.3092 25.4728C13.3984 25.4212 13.4889 25.3718 13.5805 25.3245C13.6958 25.2643 13.8128 25.2073 13.9311 25.1533C13.9321 25.153 13.933 25.1524 13.9339 25.1521C14.5725 24.8645 15.2508 24.6751 15.9459 24.5903V38.3858C12.5151 37.9649 9.84213 35.0215 9.84213 31.4875ZM17.5084 38.401V24.5751C17.613 24.5859 17.7173 24.5991 17.8212 24.6145C17.8271 24.6153 17.8329 24.6163 17.8386 24.6168C17.9372 24.6318 18.0349 24.6492 18.1322 24.6684C18.1435 24.6706 18.1548 24.6728 18.1664 24.6749C18.2601 24.6938 18.3526 24.7149 18.4447 24.7374C18.459 24.7408 18.4734 24.7442 18.4877 24.7478C18.5778 24.7704 18.6672 24.7951 18.756 24.8213C18.7713 24.826 18.7869 24.8305 18.8024 24.8351C18.9054 24.8664 19.0077 24.9 19.1091 24.9361C19.1954 24.9666 19.2812 24.9986 19.3661 25.0328L19.4069 25.0492C19.4933 25.0844 19.5788 25.121 19.6633 25.1595L19.6941 25.1742C19.7817 25.2144 19.8683 25.2562 19.9538 25.3002C19.9584 25.3026 19.9633 25.305 19.9682 25.3078C20.052 25.3509 20.1348 25.3959 20.2166 25.4427C20.2248 25.4473 20.233 25.4515 20.241 25.4564C20.3219 25.5025 20.4012 25.5507 20.48 25.6002C20.4919 25.6078 20.504 25.6151 20.5159 25.6228C20.5917 25.6711 20.6665 25.721 20.7403 25.7723L20.7815 25.8006C20.868 25.8618 20.9533 25.9248 21.0372 25.9896C21.1068 26.0435 21.1755 26.0989 21.2429 26.1549C21.3241 26.2232 21.404 26.2931 21.4824 26.3646C21.4937 26.375 21.5051 26.3857 21.5163 26.3964C21.5831 26.4581 21.6486 26.5212 21.7129 26.5856C21.7211 26.5938 21.7293 26.6027 21.7376 26.6109C21.8038 26.6781 21.8691 26.7464 21.9329 26.8164C21.9366 26.8206 21.9402 26.8246 21.9438 26.8289C22.0065 26.8978 22.0675 26.9682 22.1273 27.0399L22.1466 27.0628C22.2055 27.1339 22.2625 27.2063 22.3187 27.2799C22.3273 27.2911 22.336 27.3021 22.3446 27.3135C22.3986 27.3854 22.4511 27.4584 22.5027 27.5322C22.5118 27.546 22.5213 27.5591 22.5305 27.5725C22.5808 27.646 22.6296 27.7205 22.6769 27.796C22.6861 27.8103 22.6949 27.8246 22.7041 27.8393C22.7508 27.915 22.7966 27.9916 22.8405 28.0693C22.8487 28.0837 22.8567 28.098 22.8647 28.1123C22.909 28.1914 22.9516 28.2714 22.9925 28.3522C22.9989 28.3647 23.005 28.3772 23.0114 28.3897C23.0533 28.4733 23.0935 28.5578 23.132 28.6431C23.1362 28.6522 23.1402 28.6614 23.1441 28.6705C23.1838 28.76 23.2223 28.8506 23.2586 28.9421C23.2595 28.9443 23.2602 28.9464 23.261 28.9486C23.297 29.0398 23.3309 29.1323 23.363 29.2253C23.3657 29.2336 23.3687 29.2415 23.3716 29.2498C23.4064 29.3528 23.4391 29.4566 23.4695 29.5611C23.4954 29.6511 23.5195 29.742 23.5418 29.8336C23.5455 29.8482 23.5491 29.8625 23.5525 29.8775C23.5741 29.9682 23.594 30.0594 23.6119 30.1516C23.633 30.2596 23.6515 30.3681 23.6674 30.4769C23.6834 30.5871 23.697 30.6976 23.708 30.8083C23.7094 30.8211 23.7102 30.834 23.7115 30.8468C23.7206 30.946 23.7279 31.0454 23.7328 31.1458L23.7337 31.1705C23.7443 31.3896 23.744 31.6091 23.7328 31.8282C23.732 31.852 23.7291 31.8755 23.728 31.899C23.7232 31.9882 23.7166 32.0772 23.7081 32.1661C23.7045 32.2029 23.6993 32.2396 23.695 32.2765C23.6868 32.35 23.6785 32.4239 23.6678 32.4972C23.6602 32.5493 23.6505 32.6006 23.6416 32.6525C23.6322 32.709 23.6233 32.7654 23.6123 32.8215C23.0334 35.7887 20.5608 38.0868 17.5084 38.4011V38.401ZM25.2721 32.2243C25.2727 32.2179 25.2727 32.2115 25.2734 32.2047C25.2825 32.0957 25.2895 31.9859 25.2948 31.8757L25.2966 31.8254C25.3009 31.7134 25.3039 31.6007 25.3039 31.4879C25.3039 30.6925 25.194 29.9226 24.9889 29.192H26.397C26.8285 29.192 27.1783 28.8423 27.1783 28.4107C27.1783 27.9795 26.8285 27.6295 26.397 27.6295H24.378C22.9687 24.8698 20.0972 22.9756 16.7916 22.9756C16.7748 22.9756 16.758 22.9759 16.7412 22.9762L16.726 22.9765H16.7205C16.6311 22.977 16.5416 22.9795 16.4522 22.9832C16.433 22.9838 16.4138 22.9853 16.3949 22.9863C16.3274 22.9893 16.2603 22.993 16.1932 22.9975C16.1547 23.0002 16.1166 23.0039 16.0781 23.007C16.0307 23.011 15.9835 23.0149 15.9365 23.0198C15.8892 23.0244 15.8419 23.0302 15.7946 23.0356C15.7571 23.0403 15.7192 23.0445 15.6813 23.0494C15.6289 23.0564 15.5766 23.0641 15.5242 23.072C15.4922 23.0769 15.4601 23.0814 15.4281 23.0869C15.3439 23.1004 15.26 23.1153 15.1763 23.1315C15.1186 23.1428 15.0609 23.1544 15.0032 23.1669C14.9773 23.1724 14.9514 23.1782 14.9254 23.184C14.8668 23.1971 14.8079 23.2109 14.7497 23.2252C14.7405 23.2274 14.7317 23.2292 14.7228 23.2316L17.0308 19.2329C17.5378 18.3556 17.8051 17.3604 17.806 16.3471C17.806 14.2854 16.6982 12.3649 14.9147 11.3346C14.8436 11.2939 14.7716 11.2545 14.699 11.2165C14.6761 11.2046 14.6529 11.1932 14.63 11.1817C14.5534 11.1429 14.476 11.1057 14.3978 11.0703C14.3446 11.0464 14.2911 11.0233 14.2372 11.0011C14.215 10.9918 14.1927 10.9821 14.1701 10.9729C14.0931 10.942 14.0155 10.9127 13.9373 10.885V3.22361C13.9373 2.30743 14.6825 1.56251 15.5983 1.56251H34.4531C35.3689 1.56251 36.1139 2.30743 36.1139 3.22361V23.9179C36.1139 24.2771 36.0629 24.6293 35.9653 24.9656H31.9142C30.3588 24.9656 29.0931 26.2312 29.0931 27.787V32.0457C28.7261 32.1635 28.3431 32.2237 27.9576 32.2243H25.2721ZM30.6557 31.0743V27.787C30.6557 27.0927 31.2203 26.5282 31.9143 26.5282H35.0528L31.0132 30.7047L30.6557 31.0743Z" fill="white" stroke="white" stroke-width="0.2"/>
<path d="M31.3931 13.8669H31.3913C30.9597 13.8669 30.6109 14.2169 30.6109 14.6482C30.6109 15.0798 30.9616 15.4294 31.3931 15.4294C31.8246 15.4294 32.1743 15.0798 32.1743 14.6482C32.1743 14.2169 31.8246 13.8669 31.3931 13.8669ZM28.8537 14.6482C28.8537 14.2169 28.504 13.8669 28.0725 13.8669H18.7939C18.3624 13.8669 18.0127 14.2169 18.0127 14.6482C18.0127 15.0798 18.3624 15.4294 18.7939 15.4294H28.0725C28.504 15.4294 28.8537 15.0798 28.8537 14.6482ZM31.9851 21.5296C31.9851 21.0981 31.6354 20.7484 31.2039 20.7484H22.5953C22.164 20.7484 21.814 21.0981 21.814 21.5296C21.814 21.9609 22.164 22.3109 22.5953 22.3109H31.2039C31.6354 22.3109 31.9851 21.9612 31.9851 21.5296Z" fill="white" stroke="white" stroke-width="0.2"/>
<path d="M28.0636 11.5776C28.049 11.5237 28.0238 11.4737 27.9901 11.4299L27.2815 10.5096L26.5105 9.50789L27.9901 7.58527C28.058 7.49712 28.0884 7.38481 28.0738 7.2742C28.0592 7.16358 28.0013 7.06307 27.9132 6.99456C27.8244 6.92662 27.7127 6.8963 27.6015 6.9109C27.4909 6.9255 27.3904 6.98333 27.3224 7.07149L25.9793 8.81723L24.6738 7.1209C25.7356 6.96256 26.5526 6.04505 26.5526 4.93999C26.5526 3.72376 25.5638 2.73438 24.3476 2.73438H22.5305C22.4188 2.73438 22.3115 2.77873 22.2323 2.85791C22.1532 2.93708 22.1094 3.04377 22.1094 3.15551V10.3013C22.1094 10.5338 22.2975 10.7224 22.5305 10.7224C22.7635 10.7224 22.9516 10.5338 22.9516 10.3013V7.14505H23.6299L25.4476 9.50789L23.9685 11.4299C23.9208 11.4923 23.8911 11.567 23.8832 11.645C23.8759 11.7231 23.8899 11.8022 23.9247 11.873C23.9596 11.9432 24.0129 12.0027 24.0797 12.0442C24.1465 12.0858 24.2235 12.1077 24.3021 12.1083C24.3667 12.1083 24.4307 12.0937 24.4885 12.065C24.5463 12.0364 24.5969 11.9948 24.6362 11.9437L25.9793 10.1985L26.8019 11.2677L27.3219 11.9437C27.3556 11.9875 27.3977 12.0246 27.4454 12.0527C27.4937 12.0802 27.5465 12.0981 27.6015 12.1054C27.6565 12.1127 27.7127 12.1094 27.766 12.0948C27.8194 12.0807 27.8699 12.056 27.9137 12.0218C27.9575 11.9881 27.9946 11.946 28.0221 11.8982C28.0496 11.85 28.0676 11.7966 28.0749 11.7416C28.0816 11.6871 28.0782 11.631 28.0636 11.5776ZM22.9511 6.30278V3.57664H24.3476C25.0989 3.57664 25.7103 4.18813 25.7103 4.93999C25.7103 5.69186 25.0989 6.30278 24.3476 6.30278H22.9511Z" fill="white" stroke="white" stroke-width="0.2"/>
</g>
<defs>
<clipPath id="clip0_336_9082">
<rect width="40" height="40" fill="white"/>
</clipPath>
</defs>
</svg>
