<svg width="100%" height="100%" viewBox="0 0 40 40" fill="none" xmlns="http://www.w3.org/2000/svg">
<g clip-path="url(#clip0_336_9018)">
<path fill-rule="evenodd" clip-rule="evenodd" d="M0 0.859375C0 0.384755 0.384755 0 0.859375 0H29.1406C29.6152 0 30 0.384755 30 0.859375V22.0933H28.2812V1.71875H1.71875V34.8438H24.5316V36.5625H0.859375C0.384755 36.5625 0 36.1777 0 35.7031V0.859375Z" fill="white"/>
<path fill-rule="evenodd" clip-rule="evenodd" d="M10.064 6.82678C10.3996 7.16239 10.3996 7.70651 10.064 8.04212L7.4349 10.6713C7.27373 10.8324 7.05514 10.923 6.82722 10.923C6.59929 10.923 6.3807 10.8324 6.21954 10.6712L4.63939 9.09101C4.30379 8.75539 4.3038 8.21127 4.63942 7.87567C4.97503 7.54007 5.51916 7.54008 5.85476 7.8757L6.82724 8.84823L8.8487 6.82678C9.1843 6.49117 9.72843 6.49117 10.064 6.82678ZM10.064 13.2408C10.3996 13.5764 10.3996 14.1205 10.064 14.4561L7.43489 17.0852C7.09928 17.4208 6.55516 17.4208 6.21956 17.0852L4.6394 15.505C4.30379 15.1694 4.30379 14.6253 4.6394 14.2897C4.97501 13.9541 5.51913 13.9541 5.85474 14.2897L6.82724 15.2622L8.84871 13.2408C9.18432 12.9052 9.72844 12.9052 10.064 13.2408ZM10.064 19.6547C10.3996 19.9903 10.3996 20.5344 10.064 20.87L7.4349 23.4991C7.09929 23.8348 6.55516 23.8348 6.21956 23.4991L4.6394 21.919C4.30379 21.5834 4.30379 21.0393 4.6394 20.7037C4.97501 20.368 5.51913 20.368 5.85474 20.7037L6.82723 21.6761L8.8487 19.6547C9.1843 19.3191 9.72843 19.3191 10.064 19.6547ZM10.064 26.0687C10.3996 26.4043 10.3996 26.9484 10.064 27.284L7.43489 29.9131C7.09928 30.2487 6.55516 30.2487 6.21956 29.9131L4.6394 28.3329C4.30379 27.9973 4.30379 27.4532 4.6394 27.1176C4.97501 26.7819 5.51913 26.782 5.85474 27.1176L6.82724 28.0901L8.84871 26.0686C9.18432 25.733 9.72844 25.7331 10.064 26.0687Z" fill="white"/>
<path fill-rule="evenodd" clip-rule="evenodd" d="M12.5566 10.0636C12.5566 9.58898 12.9414 9.20422 13.416 9.20422H24.4625C24.9371 9.20422 25.3219 9.58898 25.3219 10.0636C25.3219 10.5382 24.9371 10.923 24.4625 10.923H13.416C12.9414 10.923 12.5566 10.5382 12.5566 10.0636ZM12.5566 16.4775C12.5566 16.0029 12.9414 15.6181 13.416 15.6181H24.4625C24.9371 15.6181 25.3219 16.0029 25.3219 16.4775C25.3219 16.9521 24.9371 17.3369 24.4625 17.3369H13.416C12.9414 17.3369 12.5566 16.9521 12.5566 16.4775ZM12.5566 22.8915C12.5566 22.4169 12.9414 22.0321 13.416 22.0321H24.4625C24.9371 22.0321 25.3219 22.4169 25.3219 22.8915C25.3219 23.3661 24.9371 23.7509 24.4625 23.7509H13.416C12.9414 23.7509 12.5566 23.3661 12.5566 22.8915ZM12.5566 29.3054C12.5566 28.8308 12.9414 28.446 13.416 28.446H19.3845C19.8592 28.446 20.2439 28.8308 20.2439 29.3054C20.2439 29.78 19.8592 30.1648 19.3845 30.1648H13.416C12.9414 30.1648 12.5566 29.78 12.5566 29.3054Z" fill="white"/>
<path fill-rule="evenodd" clip-rule="evenodd" d="M23.3623 32.8502C23.3623 29.1006 25.7963 25.7003 29.1946 25.7003C30.0925 25.7003 30.9348 25.9487 31.6809 26.3788C32.4271 25.9487 33.2695 25.7003 34.1674 25.7003C37.5658 25.7003 39.9996 29.1007 39.9996 32.8502C39.9996 36.5997 37.5658 40 34.1673 40C33.2694 40 32.427 39.7516 31.6809 39.3215C30.9348 39.7516 30.0924 40 29.1945 40C25.7962 40 23.3623 36.5997 23.3623 32.8502ZM29.1946 27.4191C27.1001 27.4191 25.0811 29.6514 25.0811 32.8502C25.0811 36.0489 27.1 38.2813 29.1945 38.2813C29.8986 38.2813 30.5725 38.0434 31.1732 37.6036C31.4755 37.3823 31.8862 37.3823 32.1885 37.6035C32.7894 38.0434 33.4632 38.2813 34.1673 38.2813C36.262 38.2813 38.2809 36.0489 38.2809 32.8502C38.2809 29.6514 36.2619 27.4191 34.1674 27.4191C33.4633 27.4191 32.7894 27.6569 32.1887 28.0968C31.8864 28.318 31.4757 28.3181 31.1734 28.0968C30.5725 27.657 29.8986 27.4191 29.1946 27.4191Z" fill="white"/>
<path fill-rule="evenodd" clip-rule="evenodd" d="M34.4928 20.9646C34.844 21.2839 34.8699 21.8274 34.5507 22.1786C33.3014 23.5532 32.541 25.377 32.541 27.3805C32.541 27.8551 32.1563 28.2399 31.6816 28.2399C31.207 28.2399 30.8223 27.8551 30.8223 27.3805C30.8223 24.9331 31.7532 22.7011 33.2788 21.0226C33.598 20.6714 34.1416 20.6454 34.4928 20.9646Z" fill="white"/>
<path fill-rule="evenodd" clip-rule="evenodd" d="M26.6377 22.3568C26.6377 21.8822 27.0225 21.4974 27.4971 21.4974H29.4646C31.1825 21.4974 32.5752 22.8901 32.5752 24.608V26.5756C32.5752 27.0502 32.1904 27.4349 31.7158 27.4349H29.7482C28.0303 27.4349 26.6377 26.0423 26.6377 24.3244V22.3568ZM28.3564 23.2162V24.3244C28.3564 25.0931 28.9796 25.7162 29.7482 25.7162H30.8564V24.608C30.8564 23.8393 30.2333 23.2162 29.4646 23.2162H28.3564Z" fill="white"/>
</g>
<defs>
<clipPath id="clip0_336_9018">
<rect width="40" height="40" fill="white"/>
</clipPath>
</defs>
</svg>
