<svg width="100%" height="100%" viewBox="0 0 44 44" fill="none" xmlns="http://www.w3.org/2000/svg">
<path d="M29.9201 33.5909H14.0793C13.8153 33.5909 13.5621 33.486 13.3755 33.2994C13.1888 33.1127 13.084 32.8596 13.084 32.5956V28.6215C13.084 24.4974 15.8802 20.9347 19.8837 19.9584L20.3559 21.8926C18.8475 22.2578 17.5062 23.1203 16.548 24.341C15.5897 25.5618 15.0706 27.0696 15.0741 28.6215V31.6003H28.9244V28.6215C28.9244 26.7713 28.2041 25.032 26.8951 23.7235C25.9994 22.8269 24.8746 22.1936 23.6435 21.8926L24.1152 19.9584C25.7005 20.3459 27.1488 21.1614 28.3023 22.3159C29.1331 23.142 29.7918 24.1246 30.2403 25.207C30.6888 26.2894 30.9181 27.4499 30.915 28.6215V32.5956C30.915 32.8596 30.8101 33.1127 30.6235 33.2994C30.4368 33.486 30.1841 33.5909 29.9201 33.5909Z" fill="white"/>
<path d="M21.9999 22.2917C18.7241 22.2917 16.0586 19.6266 16.0586 16.3504C16.0586 13.0746 18.7241 10.4091 21.9999 10.4091C25.2757 10.4091 27.9412 13.0746 27.9412 16.3504C27.9412 19.6266 25.2757 22.2917 21.9999 22.2917ZM21.9999 12.3996C19.8219 12.3996 18.0492 14.1719 18.0492 16.3504C18.0492 18.5288 19.8219 20.3016 21.9999 20.3016C24.1779 20.3016 25.9507 18.5288 25.9507 16.3504C25.9507 14.1724 24.1784 12.3996 21.9999 12.3996ZM29.8878 25.6207L28.2519 24.4877C29.3705 22.8704 31.0426 21.7188 32.9524 21.2502L33.4267 23.1831C31.9888 23.5359 30.7299 24.4031 29.8878 25.6207ZM39.6932 33.5909H27.8176V31.6003H39.6932C40.0157 31.5999 40.3248 31.4715 40.5528 31.2435C40.7808 31.0154 40.909 30.7062 40.9093 30.3837V29.0611C40.9093 27.4507 40.2788 25.9314 39.1335 24.7821C38.3512 24 37.3697 23.4471 36.2955 23.1831L36.7707 21.2502C38.1984 21.601 39.5028 22.3359 40.5424 23.3754C42.063 24.9022 42.8999 26.9205 42.8999 29.0611V30.3837C42.8999 32.1525 41.4611 33.5909 39.6932 33.5909Z" fill="white"/>
<path d="M34.8599 23.5439C31.8855 23.5439 29.4664 21.1244 29.4664 18.1504C29.4664 15.1764 31.886 12.7573 34.8599 12.7573C37.8334 12.7573 40.253 15.1769 40.253 18.1504C40.253 21.1239 37.8334 23.5439 34.8599 23.5439ZM34.8599 14.7483C32.9833 14.7483 31.457 16.2742 31.457 18.1504C31.457 20.0266 32.9838 21.5534 34.8599 21.5534C36.7361 21.5534 38.2624 20.0266 38.2624 18.1504C38.2624 16.2742 36.7356 14.7483 34.8599 14.7483ZM14.1117 25.6207C13.2696 24.403 12.0107 23.5359 10.5728 23.1831L11.0471 21.2502C12.9569 21.7187 14.6291 22.8704 15.7476 24.4877L14.1117 25.6207ZM16.1815 33.5909H4.30633C2.53797 33.5909 1.09961 32.1521 1.09961 30.3837V29.0611C1.09961 26.9205 1.93649 24.9018 3.45581 23.3767C4.49567 22.3366 5.80054 21.6012 7.22881 21.2502L7.70401 23.1831C6.6292 23.4473 5.64725 24.0007 4.86469 24.7834C3.72069 25.9314 3.09017 27.4507 3.09017 29.0611V30.3837C3.09052 30.7062 3.21875 31.0154 3.44673 31.2434C3.67472 31.4715 3.98385 31.5999 4.30633 31.6003H16.1819L16.1815 33.5909Z" fill="white"/>
<path d="M9.13917 23.5439C6.16565 23.5439 3.74609 21.1244 3.74609 18.1504C3.74609 15.1764 6.16565 12.7573 9.13917 12.7573C12.1136 12.7573 14.5327 15.1769 14.5327 18.1504C14.5327 21.1239 12.1127 23.5439 9.13917 23.5439ZM9.13917 14.7483C7.26301 14.7483 5.73665 16.2742 5.73665 18.1504C5.73665 20.0266 7.26345 21.5534 9.13917 21.5534C11.0158 21.5534 12.5421 20.0266 12.5421 18.1504C12.5421 16.2742 11.0153 14.7483 9.13917 14.7483Z" fill="white"/>
</svg>
