<svg width="100%" height="100%" viewBox="0 0 40 40" fill="none" xmlns="http://www.w3.org/2000/svg">
<g clip-path="url(#clip0_336_9041)">
<path d="M26.667 28.3333H30.0003C30.2213 28.3333 30.4333 28.2455 30.5896 28.0893C30.7459 27.933 30.8337 27.721 30.8337 27.5C30.8337 27.279 30.7459 27.067 30.5896 26.9107C30.4333 26.7545 30.2213 26.6667 30.0003 26.6667H28.3337V25.8333C28.3337 25.6123 28.2459 25.4004 28.0896 25.2441C27.9333 25.0878 27.7213 25 27.5003 25C27.2793 25 27.0673 25.0878 26.9111 25.2441C26.7548 25.4004 26.667 25.6123 26.667 25.8333V26.6667C26.004 26.6667 25.3681 26.9301 24.8992 27.3989C24.4304 27.8677 24.167 28.5036 24.167 29.1667C24.167 29.8297 24.4304 30.4656 24.8992 30.9344C25.3681 31.4033 26.004 31.6667 26.667 31.6667H28.3337C28.5547 31.6667 28.7666 31.7545 28.9229 31.9107C29.0792 32.067 29.167 32.279 29.167 32.5C29.167 32.721 29.0792 32.933 28.9229 33.0893C28.7666 33.2455 28.5547 33.3333 28.3337 33.3333H25.0003C24.7793 33.3333 24.5673 33.4211 24.4111 33.5774C24.2548 33.7337 24.167 33.9457 24.167 34.1667C24.167 34.3877 24.2548 34.5996 24.4111 34.7559C24.5673 34.9122 24.7793 35 25.0003 35H26.667V35.8333C26.667 36.0543 26.7548 36.2663 26.9111 36.4226C27.0673 36.5789 27.2793 36.6667 27.5003 36.6667C27.7213 36.6667 27.9333 36.5789 28.0896 36.4226C28.2459 36.2663 28.3337 36.0543 28.3337 35.8333V35C28.9967 35 29.6326 34.7366 30.1014 34.2678C30.5703 33.7989 30.8337 33.163 30.8337 32.5C30.8337 31.837 30.5703 31.2011 30.1014 30.7322C29.6326 30.2634 28.9967 30 28.3337 30H26.667C26.446 30 26.234 29.9122 26.0777 29.7559C25.9215 29.5996 25.8337 29.3877 25.8337 29.1667C25.8337 28.9457 25.9215 28.7337 26.0777 28.5774C26.234 28.4211 26.446 28.3333 26.667 28.3333Z" fill="white"/>
<path d="M25.8333 21.825V9.16665C28.0916 9.16665 28.8333 9.36665 29.1083 8.63332C29.3833 7.89998 29.3583 8.13332 20.5583 0.216652C20.4051 0.0784522 20.2062 0.00195313 19.9999 0.00195313C19.7937 0.00195312 19.5947 0.0784522 19.4416 0.216652L11.1083 7.71665C10.9839 7.82966 10.8967 7.97762 10.8579 8.1411C10.8191 8.30459 10.8307 8.47597 10.8911 8.63277C10.9515 8.78957 11.0578 8.92445 11.1962 9.01972C11.3346 9.115 11.4986 9.16621 11.6666 9.16665H14.1666V18.3333H5.41659C4.86406 18.3333 4.33415 18.5528 3.94345 18.9435C3.55275 19.3342 3.33326 19.8641 3.33326 20.4167C3.33326 23.2417 3.24159 23.4833 3.75826 24.1667C3.22493 24.875 3.33326 25.2167 3.33326 27.9167C3.33626 28.3683 3.48536 28.8068 3.75826 29.1667C3.48536 29.5265 3.33626 29.965 3.33326 30.4167C3.33326 33.2416 3.24159 33.4833 3.75826 34.1667C3.22493 34.875 3.33326 35.2167 3.33326 37.9167C3.33326 38.1902 3.38715 38.4611 3.49184 38.7139C3.59654 38.9667 3.75 39.1963 3.94345 39.3898C4.13691 39.5832 4.36657 39.7367 4.61934 39.8414C4.8721 39.9461 5.14301 40 5.41659 40H19.5833C19.8583 40 20.1305 39.9456 20.3844 39.8398C20.6382 39.7341 20.8686 39.5791 21.0623 39.3839C21.256 39.1887 21.4091 38.9571 21.5128 38.7024C21.6165 38.4477 21.6688 38.175 21.6666 37.9C22.8549 38.8831 24.2721 39.5505 25.7868 39.8403C27.3016 40.1302 28.865 40.0332 30.3323 39.5583C31.7997 39.0834 33.1235 38.246 34.1811 37.1236C35.2388 36.0011 35.9962 34.63 36.3832 33.137C36.7702 31.6441 36.7742 30.0777 36.3949 28.5828C36.0157 27.0879 35.2654 25.7129 34.2135 24.585C33.1616 23.4571 31.8421 22.6129 30.3773 22.1304C28.9124 21.648 27.3495 21.5429 25.8333 21.825ZM14.9999 7.49999H13.8416L19.9999 1.95832L26.1583 7.49999H24.9999C24.7789 7.49999 24.567 7.58778 24.4107 7.74406C24.2544 7.90034 24.1666 8.1123 24.1666 8.33332V22.3C23.0944 22.7358 22.1135 23.369 21.2749 24.1667C21.7916 23.4417 21.6666 23 21.6666 20.4583C21.6721 20.1812 21.6223 19.9058 21.5201 19.6483C21.4179 19.3907 21.2653 19.1561 21.0713 18.9582C20.8773 18.7603 20.6458 18.6031 20.3903 18.4958C20.1347 18.3885 19.8604 18.3333 19.5833 18.3333H15.8333V8.33332C15.8333 8.1123 15.7455 7.90034 15.5892 7.74406C15.4329 7.58778 15.2209 7.49999 14.9999 7.49999ZM4.99993 32.9167C4.99993 30.4167 4.86659 30 5.41659 30H18.3749C18.2651 31.1211 18.3727 32.2529 18.6916 33.3333C4.54159 33.3333 4.99993 33.5083 4.99993 32.9167ZM4.99993 27.9167C4.99993 25.4167 4.86659 25 5.41659 25C20.3666 25 19.9999 24.8167 19.9999 25.4167C19.9999 25.8333 19.2583 26.325 18.6916 28.3333C4.54159 28.3333 4.99993 28.5083 4.99993 27.9167ZM4.99993 20.4167C4.99993 19.8167 4.41659 20 19.5833 20C20.1333 20 19.9999 20.4333 19.9999 22.9167C19.9999 23.5167 20.5833 23.3333 5.41659 23.3333C4.86659 23.3333 4.99993 22.9 4.99993 20.4167ZM19.5833 38.3333C4.63326 38.3333 4.99993 38.5167 4.99993 37.9167C4.99993 35.4167 4.86659 35 5.41659 35H19.3499C19.5387 35.3771 19.756 35.7393 19.9999 36.0833C19.9999 37.8666 20.1083 38.3333 19.5833 38.3333ZM27.4999 38.3333C26.0166 38.3333 24.5665 37.8935 23.3332 37.0693C22.0998 36.2452 21.1385 35.0739 20.5708 33.7034C20.0032 32.333 19.8546 30.825 20.144 29.3701C20.4334 27.9153 21.1477 26.5789 22.1966 25.53C23.2455 24.4811 24.5819 23.7668 26.0367 23.4774C27.4916 23.188 28.9996 23.3366 30.3701 23.9042C31.7405 24.4719 32.9118 25.4332 33.736 26.6665C34.5601 27.8999 34.9999 29.35 34.9999 30.8333C34.9999 32.8224 34.2098 34.7301 32.8032 36.1366C31.3967 37.5431 29.4891 38.3333 27.4999 38.3333Z" fill="white"/>
</g>
<defs>
<clipPath id="clip0_336_9041">
<rect width="40" height="40" fill="white"/>
</clipPath>
</defs>
</svg>
