<svg width="100%" height="100%" viewBox="0 0 40 40" fill="none" xmlns="http://www.w3.org/2000/svg">
<path fill-rule="evenodd" clip-rule="evenodd" d="M10.4697 9.53064C10.9443 9.53064 11.3291 9.91539 11.3291 10.39V39.1406C11.3291 39.6153 10.9443 40 10.4697 40C9.99511 40 9.61035 39.6153 9.61035 39.1406V10.39C9.61035 9.91539 9.99511 9.53064 10.4697 9.53064ZM17.6177 9.53064C18.0923 9.53064 18.4771 9.91539 18.4771 10.39V39.1406C18.4771 39.6153 18.0923 40 17.6177 40C17.1431 40 16.7583 39.6153 16.7583 39.1406V35.2347H15.235C14.7604 35.2347 14.3757 34.8499 14.3757 34.3753C14.3757 33.9007 14.7604 33.516 15.235 33.516H16.7583V30.4694H15.235C14.7604 30.4694 14.3757 30.0846 14.3757 29.61C14.3757 29.1354 14.7604 28.7506 15.235 28.7506H16.7583V25.7041H15.235C14.7604 25.7041 14.3757 25.3193 14.3757 24.8447C14.3757 24.3701 14.7604 23.9853 15.235 23.9853H16.7583V20.9388H15.235C14.7604 20.9388 14.3757 20.5541 14.3757 20.0795C14.3757 19.6048 14.7604 19.2201 15.235 19.2201H16.7583V16.1735H15.235C14.7604 16.1735 14.3757 15.7888 14.3757 15.3142C14.3757 14.8395 14.7604 14.4548 15.235 14.4548H16.7583V10.39C16.7583 9.91539 17.1431 9.53064 17.6177 9.53064Z" fill="white"/>
<path fill-rule="evenodd" clip-rule="evenodd" d="M9.61035 5.62463C9.61035 5.15001 9.99511 4.76526 10.4697 4.76526H20.0004C20.475 4.76526 20.8597 5.15001 20.8597 5.62463V9.53057H27.1483C27.6229 9.53057 28.0077 9.91533 28.0077 10.3899C28.0077 10.8646 27.6229 11.2493 27.1483 11.2493H10.4697C9.99511 11.2493 9.61035 10.8646 9.61035 10.3899V5.62463ZM19.141 9.53057V6.48401H11.3291V9.53057H19.141Z" fill="white"/>
<path fill-rule="evenodd" clip-rule="evenodd" d="M9.61019 0.859375C9.61019 0.384755 9.99495 0 10.4696 0H17.6175C18.0922 0 18.4769 0.384755 18.4769 0.859375V5.62469C18.4769 6.09931 18.0922 6.48406 17.6175 6.48406C17.1429 6.48406 16.7582 6.09931 16.7582 5.62469V1.71875H11.3289V5.62469C11.3289 6.09931 10.9442 6.48406 10.4696 6.48406C9.99495 6.48406 9.61019 6.09931 9.61019 5.62469V0.859375ZM7.22754 39.1406C7.22754 38.666 7.61229 38.2812 8.08691 38.2812H24.7655C25.2401 38.2812 25.6249 38.666 25.6249 39.1406C25.6249 39.6152 25.2401 40 24.7655 40H8.08691C7.61229 40 7.22754 39.6152 7.22754 39.1406Z" fill="white"/>
<path fill-rule="evenodd" clip-rule="evenodd" d="M26.5651 16.2889C25.7878 16.6108 25.4188 17.5019 25.7407 18.2792C26.0626 19.0564 26.9537 19.4255 27.731 19.1036C28.5082 18.7816 28.8773 17.8905 28.5554 17.1133C28.2334 16.336 27.3423 15.967 26.5651 16.2889ZM24.1528 18.9369C23.4676 17.2827 24.2531 15.3862 25.9074 14.701C27.5616 14.0158 29.4581 14.8013 30.1433 16.4556C30.8285 18.1098 30.0429 20.0063 28.3887 20.6915C26.7345 21.3767 24.838 20.5911 24.1528 18.9369Z" fill="white"/>
<path fill-rule="evenodd" clip-rule="evenodd" d="M21.5234 22.462C21.5234 21.9874 21.9082 21.6027 22.3828 21.6027H31.9134C32.3881 21.6027 32.7728 21.9874 32.7728 22.462V29.61C32.7728 29.8379 32.6823 30.0565 32.5211 30.2177L30.3902 32.3486V39.1406C30.3902 39.6152 30.0054 40 29.5308 40H24.7655C24.2909 40 23.9061 39.6152 23.9061 39.1406V32.3486L21.7751 30.2177C21.614 30.0565 21.5234 29.8379 21.5234 29.61V22.462ZM23.2422 23.3214V29.254L25.3731 31.385C25.5343 31.5462 25.6248 31.7647 25.6248 31.9927V38.2813H28.6714V31.9927C28.6714 31.7647 28.7619 31.5462 28.9231 31.385L31.0541 29.254V23.3214H23.2422Z" fill="white"/>
</svg>
