<svg width="100%" height="100%" viewBox="0 0 39 42" fill="none" xmlns="http://www.w3.org/2000/svg">
<path d="M8.49813 2.71365H3.92325C2.31537 2.71365 1 4.02958 1 5.63584V24.0999V33.6453C1 35.2539 2.31537 36.5698 3.92325 36.5698H19.2879M21.3312 2.71365H25.9084C27.5163 2.71365 28.8315 4.02958 28.8315 5.63584V19.8803" stroke="white" stroke-width="1.6" stroke-miterlimit="10" stroke-linecap="round" stroke-linejoin="round"/>
<path d="M5.61384 26.5197C6.18286 24.1023 8.60156 22.6019 11.0203 23.1688C13.4368 23.7358 14.9364 26.1579 14.3697 28.5753C13.803 30.9951 11.382 32.4953 8.96554 31.9262C6.54676 31.3592 5.04717 28.9395 5.61384 26.5197Z" stroke="white" stroke-width="1.6" stroke-miterlimit="10" stroke-linecap="round" stroke-linejoin="round"/>
<path d="M6.2334 10.6392H24.6849" stroke="white" stroke-width="1.6" stroke-miterlimit="10" stroke-linecap="round" stroke-linejoin="round"/>
<path d="M6.2334 14.8818H21.1166" stroke="white" stroke-width="1.6" stroke-miterlimit="10" stroke-linecap="round" stroke-linejoin="round"/>
<path d="M8.38965 27.7365L9.44697 28.7297L11.5962 26.3653" stroke="white" stroke-width="1.6" stroke-miterlimit="10" stroke-linecap="round" stroke-linejoin="round"/>
<path d="M9.17301 1.00149H20.6563C21.0272 1.00149 21.3312 1.30563 21.3312 1.67677V3.88913C21.3312 4.2601 21.0272 4.56433 20.6563 4.56433H9.17301C8.80211 4.56433 8.49805 4.2601 8.49805 3.88913V1.67677C8.49805 1.30563 8.80211 1.00149 9.17301 1.00149Z" stroke="white" stroke-width="1.6" stroke-miterlimit="10" stroke-linecap="round" stroke-linejoin="round"/>
<path d="M6.2334 19.1244H18.8016" stroke="white" stroke-width="1.6" stroke-miterlimit="10" stroke-linecap="round" stroke-linejoin="round"/>
<path d="M27.7377 23.6644C15.3976 19.3457 15.5012 41.0015 25.4664 41.0015H30.0114C39.9765 41.0015 40.0802 19.3457 27.74 23.6644H27.7377Z" stroke="white" stroke-width="1.6" stroke-miterlimit="10" stroke-linecap="round" stroke-linejoin="round"/>
<path d="M27.7371 23.6644C27.7578 23.6622 27.8983 19.4931 23.3994 19.7122C23.6366 21.3022 24.2426 22.4868 25.3275 23.1252" stroke="white" stroke-width="1.6" stroke-miterlimit="10" stroke-linecap="round" stroke-linejoin="round"/>
<path d="M27.74 23.6644C27.74 23.6644 27.4474 17.2439 34.4181 17.5851C34.0149 20.2675 32.9322 22.1964 30.9489 23.0974" stroke="white" stroke-width="1.6" stroke-miterlimit="10" stroke-linecap="round" stroke-linejoin="round"/>
</svg>
