<svg width="100%" height="100%" viewBox="0 0 32 32" fill="none" xmlns="http://www.w3.org/2000/svg">
<rect y="3.05176e-05" width="32" height="32" rx="16" fill="url(#paint0_linear_336_9199)"/>
<path d="M23.6665 17.4357V22.1387C23.6665 22.2542 23.5675 22.3532 23.4519 22.3532H21.0262C20.9107 22.3532 20.8117 22.2542 20.8117 22.1387V17.7657C20.8117 16.6106 20.3991 15.8185 19.3595 15.8185C18.5675 15.8185 18.1054 16.3466 17.8909 16.8581C17.8084 17.0397 17.7919 17.3037 17.7919 17.5512V22.1387C17.7919 22.2542 17.6929 22.3532 17.5774 22.3532H15.1681C15.0526 22.3532 14.9536 22.2542 14.9536 22.1387C14.9536 20.967 14.9866 15.307 14.9536 13.9869C14.9536 13.8713 15.0526 13.7723 15.1681 13.7723H17.5939C17.7094 13.7723 17.8084 13.8713 17.8084 13.9869V14.9935C17.8084 15.01 17.7919 15.01 17.7919 15.0265H17.8084V14.9935C18.1879 14.4159 18.8645 13.5743 20.3826 13.5743C22.2638 13.5743 23.6665 14.8119 23.6665 17.4357ZM10.7292 22.3697H13.1549C13.2704 22.3697 13.3694 22.2707 13.3694 22.1552V13.9869C13.3694 13.8713 13.2704 13.7723 13.1549 13.7723H10.7292C10.6137 13.7723 10.5146 13.8713 10.5146 13.9869V22.1552C10.5312 22.2707 10.6137 22.3697 10.7292 22.3697Z" fill="white"/>
<path d="M11.8677 12.6997C12.7152 12.6997 13.4023 12.0126 13.4023 11.1651C13.4023 10.3175 12.7152 9.6304 11.8677 9.6304C11.0201 9.6304 10.333 10.3175 10.333 11.1651C10.333 12.0126 11.0201 12.6997 11.8677 12.6997Z" fill="white"/>
<defs>
<linearGradient id="paint0_linear_336_9199" x1="16.6729" y1="22.5829" x2="16.5088" y2="3.93225" gradientUnits="userSpaceOnUse">
<stop stop-color="#2EA582"/>
<stop offset="1" stop-color="#37C66D"/>
</linearGradient>
</defs>
</svg>
