<svg width="100%" height="100%" viewBox="0 0 32 32" fill="none" xmlns="http://www.w3.org/2000/svg">
<rect y="3.05176e-05" width="32" height="32" rx="16" fill="url(#paint0_linear_336_9196)"/>
<g clip-path="url(#clip0_336_9196)">
<path d="M18.7503 8.66669H13.2503C12.0347 8.66669 10.869 9.14957 10.0094 10.0091C9.14988 10.8687 8.66699 12.0344 8.66699 13.25L8.66699 18.75C8.66699 19.9656 9.14988 21.1314 10.0094 21.9909C10.869 22.8505 12.0347 23.3334 13.2503 23.3334H18.7503C19.9659 23.3334 21.1317 22.8505 21.9912 21.9909C22.8508 21.1314 23.3337 19.9656 23.3337 18.75V13.25C23.3337 12.0344 22.8508 10.8687 21.9912 10.0091C21.1317 9.14957 19.9659 8.66669 18.7503 8.66669ZM21.9587 18.75C21.9587 20.5192 20.5195 21.9584 18.7503 21.9584H13.2503C11.4812 21.9584 10.042 20.5192 10.042 18.75V13.25C10.042 11.4809 11.4812 10.0417 13.2503 10.0417H18.7503C20.5195 10.0417 21.9587 11.4809 21.9587 13.25V18.75Z" fill="white"/>
<path d="M16.0007 12.3333C15.0282 12.3333 14.0956 12.7197 13.4079 13.4073C12.7203 14.0949 12.334 15.0275 12.334 16C12.334 16.9725 12.7203 17.9051 13.4079 18.5927C14.0956 19.2804 15.0282 19.6667 16.0007 19.6667C16.9731 19.6667 17.9057 19.2804 18.5934 18.5927C19.281 17.9051 19.6673 16.9725 19.6673 16C19.6673 15.0275 19.281 14.0949 18.5934 13.4073C17.9057 12.7197 16.9731 12.3333 16.0007 12.3333ZM16.0007 18.2917C15.3931 18.2909 14.8106 18.0493 14.381 17.6197C13.9514 17.19 13.7097 16.6076 13.709 16C13.709 14.7359 14.7375 13.7083 16.0007 13.7083C17.2638 13.7083 18.2923 14.7359 18.2923 16C18.2923 17.2632 17.2638 18.2917 16.0007 18.2917Z" fill="white"/>
<path d="M19.9417 12.5469C20.2115 12.5469 20.4303 12.3282 20.4303 12.0583C20.4303 11.7885 20.2115 11.5698 19.9417 11.5698C19.6719 11.5698 19.4531 11.7885 19.4531 12.0583C19.4531 12.3282 19.6719 12.5469 19.9417 12.5469Z" fill="white"/>
</g>
<defs>
<linearGradient id="paint0_linear_336_9196" x1="16.6729" y1="22.5829" x2="16.5088" y2="3.93225" gradientUnits="userSpaceOnUse">
<stop stop-color="#2EA582"/>
<stop offset="1" stop-color="#37C66D"/>
</linearGradient>
<clipPath id="clip0_336_9196">
<rect width="16" height="16" fill="white" transform="translate(8 8.00003)"/>
</clipPath>
</defs>
</svg>
