<svg width="100%" height="100%" viewBox="0 0 32 32" fill="none" xmlns="http://www.w3.org/2000/svg">
<rect y="3.05176e-05" width="32" height="32" rx="16" fill="url(#paint0_linear_336_9193)"/>
<g clip-path="url(#clip0_336_9193)">
<path d="M19.6135 8.77544V11.1021H18.2296C18.1813 11.0953 18.1251 11.0917 18.0683 11.0917C17.7371 11.0917 17.4353 11.2157 17.2062 11.4204L17.2074 11.4192C17.0394 11.6538 16.9392 11.9464 16.9392 12.2629C16.9392 12.3008 16.9404 12.3387 16.9435 12.376V12.3711V14.0366H19.5273L19.1852 16.6455H16.9471V23.3334H14.2484V16.6449H12V14.0366H14.2484V12.1151C14.2441 12.0528 14.2417 11.9794 14.2417 11.9061C14.2417 11.0031 14.593 10.1819 15.1661 9.57217L15.1643 9.574C15.7582 9.01189 16.5622 8.66669 17.4463 8.66669C17.5013 8.66669 17.5563 8.66791 17.6113 8.67096H17.6033C17.6754 8.66974 17.7597 8.66913 17.8447 8.66913C18.4679 8.66913 19.0819 8.70823 19.6843 8.784L19.6129 8.77666L19.6135 8.77544Z" fill="white"/>
</g>
<defs>
<linearGradient id="paint0_linear_336_9193" x1="16.6729" y1="22.5829" x2="16.5088" y2="3.93225" gradientUnits="userSpaceOnUse">
<stop stop-color="#2EA582"/>
<stop offset="1" stop-color="#37C66D"/>
</linearGradient>
<clipPath id="clip0_336_9193">
<rect width="16" height="16" fill="white" transform="translate(8 8.00003)"/>
</clipPath>
</defs>
</svg>
