<svg  width="100%" height="100%" viewBox="0 0 40 40" fill="none" xmlns="http://www.w3.org/2000/svg">
<g clip-path="url(#clip0_336_9107)">
<path d="M25.625 26.25C25.625 25.1375 25.2951 24.0499 24.677 23.1249C24.0589 22.1999 23.1804 21.4789 22.1526 21.0532C21.1248 20.6274 19.9938 20.516 18.9026 20.7331C17.8115 20.9501 16.8092 21.4859 16.0225 22.2725C15.2359 23.0592 14.7001 24.0615 14.4831 25.1526C14.266 26.2438 14.3774 27.3748 14.8032 28.4026C15.2289 29.4304 15.9499 30.3089 16.8749 30.927C17.7999 31.5451 18.8875 31.875 20 31.875C21.4913 31.8733 22.9211 31.2802 23.9756 30.2257C25.0302 29.1711 25.6233 27.7413 25.625 26.25ZM20 29.375C19.3819 29.375 18.7777 29.1917 18.2638 28.8483C17.7499 28.505 17.3494 28.0169 17.1129 27.4459C16.8764 26.8749 16.8145 26.2465 16.935 25.6403C17.0556 25.0342 17.3533 24.4773 17.7903 24.0403C18.2273 23.6033 18.7842 23.3056 19.3903 23.185C19.9965 23.0645 20.6249 23.1264 21.1959 23.3629C21.7669 23.5994 22.255 23.9999 22.5983 24.5138C22.9417 25.0277 23.125 25.6319 23.125 26.25C23.124 27.0785 22.7944 27.8728 22.2086 28.4586C21.6228 29.0445 20.8285 29.374 20 29.375ZM23.125 31.875H16.875C16.0465 31.876 15.2522 32.2056 14.6664 32.7914C14.0806 33.3772 13.751 34.1715 13.75 35V36.25C13.75 36.5815 13.8817 36.8995 14.1161 37.1339C14.3505 37.3683 14.6685 37.5 15 37.5C15.3315 37.5 15.6495 37.3683 15.8839 37.1339C16.1183 36.8995 16.25 36.5815 16.25 36.25V35C16.2502 34.8343 16.3161 34.6754 16.4332 34.5582C16.5504 34.4411 16.7093 34.3752 16.875 34.375H23.125C23.2907 34.3752 23.4496 34.4411 23.5668 34.5582C23.6839 34.6754 23.7498 34.8343 23.75 35V36.25C23.75 36.5815 23.8817 36.8995 24.1161 37.1339C24.3505 37.3683 24.6685 37.5 25 37.5C25.3315 37.5 25.6495 37.3683 25.8839 37.1339C26.1183 36.8995 26.25 36.5815 26.25 36.25V35C26.249 34.1715 25.9194 33.3772 25.3336 32.7914C24.7478 32.2056 23.9535 31.876 23.125 31.875ZM39.375 26.25C39.375 25.1375 39.0451 24.0499 38.427 23.1249C37.8089 22.1999 36.9304 21.4789 35.9026 21.0532C34.8748 20.6274 33.7438 20.516 32.6526 20.7331C31.5615 20.9501 30.5592 21.4859 29.7725 22.2725C28.9859 23.0592 28.4501 24.0615 28.2331 25.1526C28.016 26.2438 28.1274 27.3748 28.5532 28.4026C28.9789 29.4304 29.6999 30.3089 30.6249 30.927C31.5499 31.5451 32.6375 31.875 33.75 31.875C35.2413 31.8733 36.6711 31.2802 37.7256 30.2257C38.7802 29.1711 39.3733 27.7413 39.375 26.25ZM33.75 29.375C33.1319 29.375 32.5277 29.1917 32.0138 28.8483C31.4999 28.505 31.0994 28.0169 30.8629 27.4459C30.6264 26.8749 30.5645 26.2465 30.685 25.6403C30.8056 25.0342 31.1033 24.4773 31.5403 24.0403C31.9773 23.6033 32.5342 23.3056 33.1403 23.185C33.7465 23.0645 34.3749 23.1264 34.9459 23.3629C35.5169 23.5994 36.005 23.9999 36.3483 24.5138C36.6917 25.0277 36.875 25.6319 36.875 26.25C36.874 27.0785 36.5444 27.8728 35.9586 28.4586C35.3728 29.0445 34.5785 29.374 33.75 29.375ZM36.875 31.875H30.625C29.7965 31.876 29.0022 32.2056 28.4164 32.7914C27.8306 33.3772 27.501 34.1715 27.5 35V36.25C27.5 36.5815 27.6317 36.8995 27.8661 37.1339C28.1005 37.3683 28.4185 37.5 28.75 37.5C29.0815 37.5 29.3995 37.3683 29.6339 37.1339C29.8683 36.8995 30 36.5815 30 36.25V35C30.0002 34.8343 30.0661 34.6754 30.1832 34.5582C30.3004 34.4411 30.4593 34.3752 30.625 34.375H36.875C37.0407 34.3752 37.1996 34.4411 37.3168 34.5582C37.4339 34.6754 37.4998 34.8343 37.5 35V36.25C37.5 36.5815 37.6317 36.8995 37.8661 37.1339C38.1005 37.3683 38.4185 37.5 38.75 37.5C39.0815 37.5 39.3995 37.3683 39.6339 37.1339C39.8683 36.8995 40 36.5815 40 36.25V35C39.999 34.1715 39.6694 33.3772 39.0836 32.7914C38.4978 32.2056 37.7035 31.876 36.875 31.875ZM18.75 8.125C18.75 7.01248 18.4201 5.92495 17.802 4.99992C17.1839 4.07489 16.3054 3.35392 15.2776 2.92818C14.2498 2.50244 13.1188 2.39104 12.0276 2.60809C10.9365 2.82513 9.93419 3.36086 9.14752 4.14753C8.36085 4.9342 7.82512 5.93648 7.60808 7.02762C7.39104 8.11876 7.50243 9.24976 7.92818 10.2776C8.35392 11.3054 9.07489 12.1839 9.99992 12.802C10.9249 13.4201 12.0125 13.75 13.125 13.75C14.6163 13.7483 16.0461 13.1552 17.1006 12.1007C18.1552 11.0461 18.7483 9.61634 18.75 8.125ZM13.125 11.25C12.5069 11.25 11.9027 11.0667 11.3888 10.7233C10.8749 10.38 10.4744 9.89191 10.2379 9.32089C10.0014 8.74987 9.93947 8.12154 10.06 7.51535C10.1806 6.90915 10.4783 6.35233 10.9153 5.91529C11.3523 5.47825 11.9092 5.18063 12.5153 5.06005C13.1215 4.93947 13.7499 5.00135 14.3209 5.23788C14.8919 5.4744 15.38 5.87494 15.7233 6.38885C16.0667 6.90275 16.25 7.50694 16.25 8.125C16.249 8.9535 15.9194 9.74778 15.3336 10.3336C14.7478 10.9195 13.9535 11.249 13.125 11.25ZM8.125 19.375C8.45652 19.375 8.77446 19.2433 9.00888 19.0089C9.2433 18.7745 9.375 18.4565 9.375 18.125V16.875C9.37516 16.7093 9.44107 16.5504 9.55824 16.4332C9.67542 16.3161 9.83429 16.2502 10 16.25H16.25C16.4157 16.2502 16.5746 16.3161 16.6918 16.4332C16.8089 16.5504 16.8748 16.7093 16.875 16.875V18.125C16.875 18.4565 17.0067 18.7745 17.2411 19.0089C17.4755 19.2433 17.7935 19.375 18.125 19.375C18.4565 19.375 18.7745 19.2433 19.0089 19.0089C19.2433 18.7745 19.375 18.4565 19.375 18.125V16.875C19.374 16.0465 19.0444 15.2522 18.4586 14.6664C17.8728 14.0806 17.0785 13.751 16.25 13.75H10C9.1715 13.751 8.37722 14.0806 7.79139 14.6664C7.20555 15.2522 6.87599 16.0465 6.875 16.875V18.125C6.875 18.4565 7.0067 18.7745 7.24112 19.0089C7.47554 19.2433 7.79348 19.375 8.125 19.375ZM32.5 8.125C32.5 7.01248 32.1701 5.92495 31.552 4.99992C30.9339 4.07489 30.0554 3.35392 29.0276 2.92818C27.9998 2.50244 26.8688 2.39104 25.7776 2.60809C24.6865 2.82513 23.6842 3.36086 22.8975 4.14753C22.1109 4.9342 21.5751 5.93648 21.3581 7.02762C21.141 8.11876 21.2524 9.24976 21.6782 10.2776C22.1039 11.3054 22.8249 12.1839 23.7499 12.802C24.6749 13.4201 25.7625 13.75 26.875 13.75C28.3663 13.7483 29.7961 13.1552 30.8506 12.1007C31.9052 11.0461 32.4983 9.61634 32.5 8.125ZM26.875 11.25C26.2569 11.25 25.6527 11.0667 25.1388 10.7233C24.6249 10.38 24.2244 9.89191 23.9879 9.32089C23.7514 8.74987 23.6895 8.12154 23.81 7.51535C23.9306 6.90915 24.2283 6.35233 24.6653 5.91529C25.1023 5.47825 25.6592 5.18063 26.2653 5.06005C26.8715 4.93947 27.4999 5.00135 28.0709 5.23788C28.6419 5.4744 29.13 5.87494 29.4733 6.38885C29.8167 6.90275 30 7.50694 30 8.125C29.999 8.9535 29.6694 9.74778 29.0836 10.3336C28.4978 10.9195 27.7035 11.249 26.875 11.25ZM21.875 19.375C22.2065 19.375 22.5245 19.2433 22.7589 19.0089C22.9933 18.7745 23.125 18.4565 23.125 18.125V16.875C23.1252 16.7093 23.1911 16.5504 23.3082 16.4332C23.4254 16.3161 23.5843 16.2502 23.75 16.25H30C30.1657 16.2502 30.3246 16.3161 30.4418 16.4332C30.5589 16.5504 30.6248 16.7093 30.625 16.875V18.125C30.625 18.4565 30.7567 18.7745 30.9911 19.0089C31.2255 19.2433 31.5435 19.375 31.875 19.375C32.2065 19.375 32.5245 19.2433 32.7589 19.0089C32.9933 18.7745 33.125 18.4565 33.125 18.125V16.875C33.124 16.0465 32.7944 15.2522 32.2086 14.6664C31.6228 14.0806 30.8285 13.751 30 13.75H23.75C22.9215 13.751 22.1272 14.0806 21.5414 14.6664C20.9556 15.2522 20.626 16.0465 20.625 16.875V18.125C20.625 18.4565 20.7567 18.7745 20.9911 19.0089C21.2255 19.2433 21.5435 19.375 21.875 19.375ZM11.875 26.25C11.875 25.1375 11.5451 24.0499 10.927 23.1249C10.3089 22.1999 9.43043 21.4789 8.40259 21.0532C7.37476 20.6274 6.24376 20.516 5.15262 20.7331C4.06147 20.9501 3.05919 21.4859 2.27252 22.2725C1.48585 23.0592 0.950125 24.0615 0.733083 25.1526C0.516041 26.2438 0.627435 27.3748 1.05318 28.4026C1.47892 29.4304 2.19989 30.3089 3.12492 30.927C4.04994 31.5451 5.13748 31.875 6.25 31.875C7.74133 31.8733 9.17111 31.2802 10.2256 30.2257C11.2802 29.1711 11.8733 27.7413 11.875 26.25ZM6.25 29.375C5.63193 29.375 5.02775 29.1917 4.51384 28.8483C3.99994 28.505 3.5994 28.0169 3.36288 27.4459C3.12635 26.8749 3.06447 26.2465 3.18505 25.6403C3.30562 25.0342 3.60325 24.4773 4.04029 24.0403C4.47733 23.6033 5.03415 23.3056 5.64034 23.185C6.24653 23.0645 6.87487 23.1264 7.44589 23.3629C8.0169 23.5994 8.50496 23.9999 8.84834 24.5138C9.19172 25.0277 9.375 25.6319 9.375 26.25C9.37401 27.0785 9.04445 27.8728 8.45861 28.4586C7.87278 29.0445 7.0785 29.374 6.25 29.375ZM9.375 31.875H3.125C2.2965 31.876 1.50222 32.2056 0.916387 32.7914C0.330551 33.3772 0.000992411 34.1715 0 35L0 36.25C0 36.5815 0.131696 36.8995 0.366117 37.1339C0.600537 37.3683 0.918479 37.5 1.25 37.5C1.58152 37.5 1.89946 37.3683 2.13388 37.1339C2.3683 36.8995 2.5 36.5815 2.5 36.25V35C2.50017 34.8343 2.56607 34.6754 2.68324 34.5582C2.80042 34.4411 2.95929 34.3752 3.125 34.375H9.375C9.54071 34.3752 9.69958 34.4411 9.81676 34.5582C9.93393 34.6754 9.99984 34.8343 10 35V36.25C10 36.5815 10.1317 36.8995 10.3661 37.1339C10.6005 37.3683 10.9185 37.5 11.25 37.5C11.5815 37.5 11.8995 37.3683 12.1339 37.1339C12.3683 36.8995 12.5 36.5815 12.5 36.25V35C12.499 34.1715 12.1694 33.3772 11.5836 32.7914C10.9978 32.2056 10.2035 31.876 9.375 31.875Z" fill="url(#paint0_linear_336_9107)" stroke="white" stroke-width="0.6"/>
<path d="M13.125 21.25C13.8154 21.25 14.375 20.6904 14.375 20C14.375 19.3096 13.8154 18.75 13.125 18.75C12.4346 18.75 11.875 19.3096 11.875 20C11.875 20.6904 12.4346 21.25 13.125 21.25Z" fill="url(#paint1_linear_336_9107)"/>
</g>
<defs>
<linearGradient id="paint0_linear_336_9107" x1="-4.52581e-05" y1="2.50045" x2="39.9999" y2="2.50045" gradientUnits="userSpaceOnUse">
<stop stop-color="#012F07"/>
<stop offset="1" stop-color="#59A52C"/>
</linearGradient>
<linearGradient id="paint1_linear_336_9107" x1="11.875" y1="18.75" x2="14.375" y2="18.75" gradientUnits="userSpaceOnUse">
<stop stop-color="#012F07"/>
<stop offset="1" stop-color="#59A52C"/>
</linearGradient>
<clipPath id="clip0_336_9107">
<rect width="40" height="40" fill="white"/>
</clipPath>
</defs>
</svg>
